Pinnacle-Bold Italic.ufo
<glyph name="exclam" format="1">
  <advance width="400"/>
  <unicode hex="0021"/>
  <outline>
    <contour>
      <point x="271" y="228" type="line"/>
      <point x="337" y="700" type="line"/>
      <point x="177" y="700" type="line"/>
      <point x="111" y="228" type="line"/>
    </contour>
    <contour>
      <point x="126" y="182"/>
      <point x="77" y="139"/>
      <point x="70" y="87" type="curve" smooth="yes"/>
      <point x="62" y="29"/>
      <point x="103" y="-18"/>
      <point x="160" y="-18" type="curve" smooth="yes"/>
      <point x="214" y="-18"/>
      <point x="261" y="25"/>
      <point x="269" y="77" type="curve" smooth="yes"/>
      <point x="277" y="135"/>
      <point x="237" y="182"/>
      <point x="179" y="182" type="curve" smooth="yes"/>
    </contour>
  </outline>
</glyph>
<glyph name="quotedbl" format="1">
  <advance width="632"/>
  <unicode hex="0022"/>
  <outline>
    <contour>
      <point x="298" y="533" type="line"/>
      <point x="230" y="556" type="line"/>
      <point x="134" y="466" type="line"/>
      <point x="164" y="422" type="line"/>
    </contour>
    <contour>
      <point x="288" y="509"/>
      <point x="335" y="552"/>
      <point x="343" y="604" type="curve" smooth="yes"/>
      <point x="351" y="662"/>
      <point x="311" y="709"/>
      <point x="253" y="709" type="curve" smooth="yes"/>
      <point x="200" y="709"/>
      <point x="151" y="666"/>
      <point x="144" y="614" type="curve" smooth="yes"/>
      <point x="136" y="556"/>
      <point x="177" y="509"/>
      <point x="234" y="509" type="curve" smooth="yes"/>
    </contour>
    <contour>
      <point x="530" y="533" type="line"/>
      <point x="462" y="556" type="line"/>
      <point x="366" y="466" type="line"/>
      <point x="396" y="422" type="line"/>
    </contour>
    <contour>
      <point x="520" y="509"/>
      <point x="567" y="552"/>
      <point x="575" y="604" type="curve" smooth="yes"/>
      <point x="583" y="662"/>
      <point x="543" y="709"/>
      <point x="485" y="709" type="curve" smooth="yes"/>
      <point x="432" y="709"/>
      <point x="383" y="666"/>
      <point x="376" y="614" type="curve" smooth="yes"/>
      <point x="368" y="556"/>
      <point x="409" y="509"/>
      <point x="466" y="509" type="curve" smooth="yes"/>
    </contour>
  </outline>
</glyph>
<glyph name="numbersign" format="1">
  <advance width="691"/>
  <unicode hex="0023"/>
  <outline>
    <contour>
      <point x="103" y="-50" type="line"/>
      <point x="206" y="-50" type="line"/>
      <point x="439" y="750" type="line"/>
      <point x="336" y="750" type="line"/>
    </contour>
    <contour>
      <point x="252" y="-50" type="line"/>
      <point x="355" y="-50" type="line"/>
      <point x="588" y="750" type="line"/>
      <point x="485" y="750" type="line"/>
    </contour>
    <contour>
      <point x="151" y="420" type="line"/>
      <point x="594" y="420" type="line"/>
      <point x="622" y="520" type="line"/>
      <point x="179" y="520" type="line"/>
    </contour>
    <contour>
      <point x="82" y="171" type="line"/>
      <point x="525" y="171" type="line"/>
      <point x="553" y="271" type="line"/>
      <point x="110" y="271" type="line"/>
    </contour>
  </outline>
</glyph>
<glyph name="dollar" format="1">
  <advance width="730"/>
  <unicode hex="0024"/>
  <outline>
    <contour>
      <point x="430" y="70" type="line" smooth="yes"/>
      <point x="523" y="70"/>
      <point x="608" y="144"/>
      <point x="621" y="235" type="curve" smooth="yes"/>
      <point x="635" y="333"/>
      <point x="568" y="410"/>
      <point x="473" y="410" type="curve" smooth="yes"/>
      <point x="283" y="410" type="line" smooth="yes"/>
      <point x="255" y="410"/>
      <point x="238" y="430"/>
      <point x="242" y="455" type="curve" smooth="yes"/>
      <point x="246" y="486"/>
      <point x="274" y="510"/>
      <point x="302" y="510" type="curve" smooth="yes"/>
      <point x="595" y="510" type="line"/>
      <point x="611" y="630" type="line"/>
      <point x="314" y="630" type="line" smooth="yes"/>
      <point x="220" y="630"/>
      <point x="136" y="556"/>
      <point x="123" y="465" type="curve" smooth="yes"/>
      <point x="109" y="367"/>
      <point x="176" y="290"/>
      <point x="271" y="290" type="curve" smooth="yes"/>
      <point x="461" y="290" type="line" smooth="yes"/>
      <point x="489" y="290"/>
      <point x="506" y="270"/>
      <point x="502" y="245" type="curve" smooth="yes"/>
      <point x="498" y="214"/>
      <point x="470" y="190"/>
      <point x="442" y="190" type="curve" smooth="yes"/>
      <point x="130" y="190" type="line"/>
      <point x="113" y="70" type="line"/>
    </contour>
    <contour>
      <point x="379" y="-26" type="line"/>
      <point x="400" y="125" type="line"/>
      <point x="280" y="125" type="line"/>
      <point x="259" y="-26" type="line"/>
    </contour>
    <contour>
      <point x="462" y="565" type="line"/>
      <point x="485" y="729" type="line"/>
      <point x="365" y="729" type="line"/>
      <point x="342" y="565" type="line"/>
    </contour>
  </outline>
</glyph>
<glyph name="ampersand" format="1">
  <advance width="922"/>
  <unicode hex="0026"/>
  <outline>
    <contour>
      <point x="799" y="0" type="line"/>
      <point x="362" y="506" type="line"/>
      <point x="354" y="517"/>
      <point x="352" y="531"/>
      <point x="354" y="544" type="curve" smooth="yes"/>
      <point x="360" y="584"/>
      <point x="400" y="617"/>
      <point x="441" y="617" type="curve" smooth="yes"/>
      <point x="460" y="617"/>
      <point x="472" y="614"/>
      <point x="482" y="601" type="curve"/>
      <point x="611" y="708" type="line"/>
      <point x="574" y="751"/>
      <point x="520" y="777"/>
      <point x="454" y="777" type="curve" smooth="yes"/>
      <point x="330" y="777"/>
      <point x="213" y="676"/>
      <point x="196" y="554" type="curve" smooth="yes"/>
      <point x="187" y="494"/>
      <point x="203" y="439"/>
      <point x="235" y="398" type="curve"/>
      <point x="575" y="0" type="line"/>
    </contour>
    <contour>
      <point x="388" y="-9"/>
      <point x="457" y="16"/>
      <point x="513" y="65" type="curve" smooth="yes"/>
      <point x="722" y="252" type="line"/>
      <point x="623" y="365" type="line"/>
      <point x="412" y="182" type="line" smooth="yes"/>
      <point x="390" y="162"/>
      <point x="364" y="151"/>
      <point x="334" y="151" type="curve" smooth="yes"/>
      <point x="282" y="151"/>
      <point x="245" y="194"/>
      <point x="252" y="245" type="curve" smooth="yes"/>
      <point x="256" y="275"/>
      <point x="272" y="300"/>
      <point x="295" y="320" type="curve" smooth="yes"/>
      <point x="330" y="355" type="line"/>
      <point x="229" y="467" type="line"/>
      <point x="192" y="436" type="line" smooth="yes"/>
      <point x="138" y="387"/>
      <point x="103" y="320"/>
      <point x="94" y="255" type="curve" smooth="yes"/>
      <point x="73" y="109"/>
      <point x="176" y="-9"/>
      <point x="321" y="-9" type="curve" smooth="yes"/>
    </contour>
  </outline>
</glyph>
<glyph name="quotesingle" format="1">
  <advance width="400"/>
  <unicode hex="0027"/>
  <outline>
    <contour>
      <point x="298" y="533" type="line"/>
      <point x="230" y="556" type="line"/>
      <point x="134" y="466" type="line"/>
      <point x="164" y="422" type="line"/>
    </contour>
    <contour>
      <point x="288" y="509"/>
      <point x="335" y="552"/>
      <point x="343" y="604" type="curve" smooth="yes"/>
      <point x="351" y="662"/>
      <point x="311" y="709"/>
      <point x="253" y="709" type="curve" smooth="yes"/>
      <point x="200" y="709"/>
      <point x="151" y="666"/>
      <point x="144" y="614" type="curve" smooth="yes"/>
      <point x="136" y="556"/>
      <point x="177" y="509"/>
      <point x="234" y="509" type="curve" smooth="yes"/>
    </contour>
  </outline>
</glyph>
<glyph name="parenleft" format="1">
  <advance width="498"/>
  <unicode hex="0028"/>
  <outline>
    <contour>
      <point x="369" y="-43" type="line"/>
      <point x="281" y="60"/>
      <point x="245" y="196"/>
      <point x="265" y="336" type="curve" smooth="yes"/>
      <point x="286" y="483"/>
      <point x="362" y="617"/>
      <point x="479" y="721" type="curve"/>
      <point x="378" y="837" type="line"/>
      <point x="228" y="705"/>
      <point x="132" y="528"/>
      <point x="106" y="346" type="curve" smooth="yes"/>
      <point x="80" y="159"/>
      <point x="131" y="-19"/>
      <point x="243" y="-151" type="curve"/>
    </contour>
  </outline>
</glyph>
<glyph name="parenright" format="1">
  <advance width="498"/>
  <unicode hex="0029"/>
  <outline>
    <contour>
      <point x="280" y="-23"/>
      <point x="378" y="155"/>
      <point x="403" y="336" type="curve" smooth="yes"/>
      <point x="429" y="524"/>
      <point x="380" y="701"/>
      <point x="266" y="833" type="curve"/>
      <point x="141" y="725" type="line"/>
      <point x="229" y="621"/>
      <point x="264" y="487"/>
      <point x="244" y="346" type="curve" smooth="yes"/>
      <point x="224" y="200"/>
      <point x="147" y="64"/>
      <point x="31" y="-39" type="curve"/>
      <point x="132" y="-155" type="line"/>
    </contour>
  </outline>
</glyph>
<glyph name="asterisk" format="1">
  <advance width="493"/>
  <unicode hex="002A"/>
  <outline>
    <contour>
      <point x="385" y="446" type="line"/>
      <point x="443" y="515" type="line"/>
      <point x="318" y="615" type="line"/>
      <point x="259" y="546" type="line"/>
    </contour>
    <contour>
      <point x="248" y="567" type="line"/>
      <point x="331" y="594" type="line"/>
      <point x="301" y="755" type="line"/>
      <point x="218" y="729" type="line"/>
    </contour>
    <contour>
      <point x="113" y="538" type="line"/>
      <point x="283" y="538" type="line"/>
      <point x="295" y="623" type="line"/>
      <point x="125" y="623" type="line"/>
    </contour>
    <contour>
      <point x="311" y="546" type="line"/>
      <point x="461" y="646" type="line"/>
      <point x="420" y="715" type="line"/>
      <point x="270" y="615" type="line"/>
    </contour>
    <contour>
      <point x="254" y="406" type="line"/>
      <point x="328" y="567" type="line"/>
      <point x="250" y="594" type="line"/>
      <point x="175" y="432" type="line"/>
    </contour>
  </outline>
</glyph>
<glyph name="plus" format="1">
  <advance width="620"/>
  <unicode hex="002B"/>
  <outline>
    <contour>
      <point x="228" y="140" type="line"/>
      <point x="348" y="140" type="line"/>
      <point x="407" y="560" type="line"/>
      <point x="287" y="560" type="line"/>
    </contour>
    <contour>
      <point x="115" y="410" type="line"/>
      <point x="99" y="290" type="line"/>
      <point x="519" y="290" type="line"/>
      <point x="535" y="410" type="line"/>
    </contour>
  </outline>
</glyph>
<glyph name="hyphen" format="1">
  <advance width="540"/>
  <unicode hex="002D"/>
  <outline>
    <contour>
      <point x="115" y="410" type="line"/>
      <point x="99" y="290" type="line"/>
      <point x="439" y="290" type="line"/>
      <point x="455" y="410" type="line"/>
    </contour>
  </outline>
</glyph>
<glyph name="period" format="1">
  <advance width="400"/>
  <unicode hex="002E"/>
  <outline>
    <contour>
      <point x="213" y="-20"/>
      <point x="261" y="23"/>
      <point x="268" y="75" type="curve" smooth="yes"/>
      <point x="276" y="133"/>
      <point x="237" y="180"/>
      <point x="178" y="180" type="curve" smooth="yes"/>
      <point x="126" y="180"/>
      <point x="77" y="137"/>
      <point x="70" y="85" type="curve" smooth="yes"/>
      <point x="62" y="27"/>
      <point x="102" y="-20"/>
      <point x="160" y="-20" type="curve" smooth="yes"/>
    </contour>
  </outline>
</glyph>
<glyph name="slash" format="1">
  <advance width="561"/>
  <unicode hex="002F"/>
  <outline>
    <contour>
      <point x="535" y="826" type="line"/>
      <point x="424" y="857" type="line"/>
      <point x="49" y="-63" type="line"/>
      <point x="160" y="-94" type="line"/>
    </contour>
  </outline>
</glyph>
<glyph name="zero" format="1">
  <advance width="693"/>
  <unicode hex="0030"/>
  <outline>
    <contour>
      <point x="453" y="-10"/>
      <point x="586" y="107"/>
      <point x="606" y="254" type="curve" smooth="yes"/>
      <point x="633" y="442" type="line" smooth="yes"/>
      <point x="654" y="589"/>
      <point x="550" y="710"/>
      <point x="400" y="710" type="curve" smooth="yes"/>
      <point x="254" y="710"/>
      <point x="121" y="593"/>
      <point x="101" y="446" type="curve" smooth="yes"/>
      <point x="74" y="258" type="line" smooth="yes"/>
      <point x="53" y="111"/>
      <point x="158" y="-10"/>
      <point x="308" y="-10" type="curve" smooth="yes"/>
    </contour>
    <contour>
      <point x="264" y="150"/>
      <point x="225" y="195"/>
      <point x="233" y="254" type="curve" smooth="yes"/>
      <point x="260" y="442" type="line" smooth="yes"/>
      <point x="268" y="501"/>
      <point x="325" y="550"/>
      <point x="387" y="550" type="curve" smooth="yes"/>
      <point x="443" y="550"/>
      <point x="482" y="507"/>
      <point x="474" y="452" type="curve" smooth="yes"/>
      <point x="447" y="258" type="line" smooth="yes"/>
      <point x="439" y="199"/>
      <point x="383" y="150"/>
      <point x="321" y="150" type="curve" smooth="yes"/>
    </contour>
  </outline>
</glyph>
<glyph name="one" format="1">
  <advance width="410"/>
  <unicode hex="0031"/>
  <outline>
    <contour>
      <point x="226" y="700" type="line"/>
      <point x="128" y="0" type="line"/>
      <point x="288" y="0" type="line"/>
      <point x="386" y="700" type="line"/>
    </contour>
    <contour>
      <point x="186" y="700" type="line"/>
      <point x="113" y="540" type="line"/>
      <point x="324" y="540" type="line"/>
      <point x="346" y="700" type="line"/>
    </contour>
  </outline>
</glyph>
<glyph name="two" format="1">
  <advance width="744"/>
  <unicode hex="0032"/>
  <outline>
    <contour>
      <point x="619" y="0" type="line"/>
      <point x="641" y="160" type="line"/>
      <point x="224" y="162" type="line"/>
      <point x="223" y="159"/>
      <point x="223" y="155"/>
      <point x="223" y="155" type="curve" smooth="yes"/>
      <point x="222" y="148"/>
      <point x="225" y="144"/>
      <point x="227" y="143" type="curve"/>
      <point x="503" y="256" type="line" smooth="yes"/>
      <point x="597" y="295"/>
      <point x="673" y="363"/>
      <point x="687" y="462" type="curve" smooth="yes"/>
      <point x="705" y="594"/>
      <point x="614" y="700"/>
      <point x="485" y="700" type="curve" smooth="yes"/>
      <point x="176" y="700" type="line"/>
      <point x="154" y="540" type="line"/>
      <point x="467" y="540" type="line" smooth="yes"/>
      <point x="508" y="540"/>
      <point x="531" y="510"/>
      <point x="526" y="481" type="curve" smooth="yes"/>
      <point x="522" y="447"/>
      <point x="505" y="426"/>
      <point x="455" y="404" type="curve" smooth="yes"/>
      <point x="152" y="268" type="line" smooth="yes"/>
      <point x="87" y="239"/>
      <point x="64" y="189"/>
      <point x="58" y="147" type="curve" smooth="yes"/>
      <point x="48" y="73"/>
      <point x="93" y="0"/>
      <point x="180" y="0" type="curve" smooth="yes"/>
    </contour>
  </outline>
</glyph>
<glyph name="three" format="1">
  <advance width="675"/>
  <unicode hex="0033"/>
  <outline>
    <contour>
      <point x="340" y="0" type="line" smooth="yes"/>
      <point x="458" y="0"/>
      <point x="566" y="95"/>
      <point x="582" y="210" type="curve" smooth="yes"/>
      <point x="592" y="278"/>
      <point x="569" y="336"/>
      <point x="530" y="374" type="curve"/>
      <point x="528" y="331" type="line"/>
      <point x="575" y="372"/>
      <point x="603" y="426"/>
      <point x="610" y="480" type="curve" smooth="yes"/>
      <point x="627" y="601"/>
      <point x="542" y="700"/>
      <point x="424" y="700" type="curve" smooth="yes"/>
      <point x="136" y="700" type="line"/>
      <point x="114" y="540" type="line"/>
      <point x="406" y="540" type="line" smooth="yes"/>
      <point x="437" y="540"/>
      <point x="456" y="518"/>
      <point x="452" y="490" type="curve" smooth="yes"/>
      <point x="447" y="456"/>
      <point x="417" y="430"/>
      <point x="386" y="430" type="curve" smooth="yes"/>
      <point x="158" y="430" type="line"/>
      <point x="136" y="270" type="line"/>
      <point x="378" y="270" type="line" smooth="yes"/>
      <point x="409" y="270"/>
      <point x="428" y="248"/>
      <point x="424" y="220" type="curve" smooth="yes"/>
      <point x="419" y="186"/>
      <point x="389" y="160"/>
      <point x="358" y="160" type="curve" smooth="yes"/>
      <point x="60" y="160" type="line"/>
      <point x="38" y="0" type="line"/>
    </contour>
  </outline>
</glyph>
<glyph name="four" format="1">
  <advance width="715"/>
  <unicode hex="0034"/>
  <outline>
    <contour>
      <point x="594" y="194" type="line"/>
      <point x="617" y="354" type="line"/>
      <point x="224" y="354" type="line"/>
      <point x="225" y="354"/>
      <point x="243" y="324"/>
      <point x="244" y="326" type="curve"/>
      <point x="243" y="323"/>
      <point x="243" y="322"/>
      <point x="243" y="321" type="curve"/>
      <point x="425" y="700" type="line"/>
      <point x="278" y="751" type="line"/>
      <point x="97" y="371" type="line" smooth="yes"/>
      <point x="89" y="354"/>
      <point x="85" y="338"/>
      <point x="84" y="326" type="curve" smooth="yes"/>
      <point x="73" y="252"/>
      <point x="121" y="194"/>
      <point x="201" y="194" type="curve" smooth="yes"/>
    </contour>
    <contour>
      <point x="593" y="0" type="line"/>
      <point x="677" y="599" type="line"/>
      <point x="517" y="599" type="line"/>
      <point x="433" y="0" type="line"/>
    </contour>
  </outline>
</glyph>
<glyph name="five" format="1">
  <advance width="735"/>
  <unicode hex="0035"/>
  <outline>
    <contour>
      <point x="400" y="0" type="line" smooth="yes"/>
      <point x="518" y="0"/>
      <point x="626" y="95"/>
      <point x="642" y="210" type="curve" smooth="yes"/>
      <point x="659" y="331"/>
      <point x="574" y="430"/>
      <point x="456" y="430" type="curve" smooth="yes"/>
      <point x="256" y="431" type="line"/>
      <point x="256" y="431"/>
      <point x="259" y="432"/>
      <point x="259" y="432" type="curve"/>
      <point x="279" y="585" type="line"/>
      <point x="228" y="540" type="line"/>
      <point x="649" y="540" type="line"/>
      <point x="671" y="700" type="line"/>
      <point x="294" y="700" type="line" smooth="yes"/>
      <point x="190" y="700"/>
      <point x="129" y="646"/>
      <point x="114" y="542" type="curve" smooth="yes"/>
      <point x="99" y="432" type="line" smooth="yes"/>
      <point x="84" y="328"/>
      <point x="134" y="270"/>
      <point x="238" y="270" type="curve" smooth="yes"/>
      <point x="438" y="270" type="line" smooth="yes"/>
      <point x="469" y="270"/>
      <point x="488" y="248"/>
      <point x="484" y="220" type="curve" smooth="yes"/>
      <point x="479" y="186"/>
      <point x="449" y="160"/>
      <point x="418" y="160" type="curve" smooth="yes"/>
      <point x="87" y="160" type="line"/>
      <point x="65" y="0" type="line"/>
    </contour>
  </outline>
</glyph>
<glyph name="six" format="1">
  <advance width="735"/>
  <unicode hex="0036"/>
  <outline>
    <contour>
      <point x="438" y="270" type="line" smooth="yes"/>
      <point x="469" y="270"/>
      <point x="488" y="248"/>
      <point x="484" y="220" type="curve" smooth="yes"/>
      <point x="479" y="186"/>
      <point x="449" y="160"/>
      <point x="418" y="160" type="curve" smooth="yes"/>
      <point x="273" y="160" type="line" smooth="yes"/>
      <point x="242" y="160"/>
      <point x="223" y="182"/>
      <point x="228" y="213" type="curve"/>
      <point x="266" y="483" type="line" smooth="yes"/>
      <point x="270" y="514"/>
      <point x="300" y="540"/>
      <point x="331" y="540" type="curve" smooth="yes"/>
      <point x="599" y="540" type="line"/>
      <point x="621" y="700" type="line"/>
      <point x="349" y="700" type="line" smooth="yes"/>
      <point x="231" y="700"/>
      <point x="123" y="605"/>
      <point x="106" y="487" type="curve" smooth="yes"/>
      <point x="68" y="217" type="line" smooth="yes"/>
      <point x="52" y="99"/>
      <point x="137" y="0"/>
      <point x="255" y="0" type="curve" smooth="yes"/>
      <point x="400" y="0" type="line" smooth="yes"/>
      <point x="518" y="0"/>
      <point x="626" y="95"/>
      <point x="642" y="210" type="curve" smooth="yes"/>
      <point x="659" y="331"/>
      <point x="574" y="430"/>
      <point x="456" y="430" type="curve" smooth="yes"/>
      <point x="213" y="430" type="line"/>
      <point x="191" y="270" type="line"/>
    </contour>
  </outline>
</glyph>
<glyph name="seven" format="1">
  <advance width="680"/>
  <unicode hex="0037"/>
  <outline>
    <contour>
      <point x="631" y="559" type="line" smooth="yes"/>
      <point x="637" y="573"/>
      <point x="640" y="586"/>
      <point x="642" y="597" type="curve" smooth="yes"/>
      <point x="650" y="654"/>
      <point x="613" y="700"/>
      <point x="537" y="700" type="curve" smooth="yes"/>
      <point x="136" y="700" type="line"/>
      <point x="114" y="540" type="line"/>
      <point x="457" y="541" type="line"/>
      <point x="457" y="541"/>
      <point x="461" y="539"/>
      <point x="458" y="538" type="curve"/>
      <point x="456" y="539"/>
      <point x="459" y="538"/>
      <point x="459" y="538" type="curve"/>
      <point x="202" y="0" type="line"/>
      <point x="364" y="0" type="line"/>
    </contour>
  </outline>
</glyph>
<glyph name="eight" format="1">
  <advance width="691"/>
  <unicode hex="0038"/>
  <outline>
    <contour>
      <point x="356" y="0" type="line" smooth="yes"/>
      <point x="474" y="0"/>
      <point x="582" y="95"/>
      <point x="598" y="210" type="curve" smooth="yes"/>
      <point x="608" y="278"/>
      <point x="585" y="336"/>
      <point x="546" y="374" type="curve"/>
      <point x="544" y="331" type="line"/>
      <point x="591" y="372"/>
      <point x="619" y="426"/>
      <point x="626" y="480" type="curve" smooth="yes"/>
      <point x="643" y="601"/>
      <point x="558" y="700"/>
      <point x="440" y="700" type="curve" smooth="yes"/>
      <point x="359" y="700" type="line" smooth="yes"/>
      <point x="241" y="700"/>
      <point x="133" y="605"/>
      <point x="117" y="490" type="curve" smooth="yes"/>
      <point x="108" y="430"/>
      <point x="124" y="376"/>
      <point x="160" y="335" type="curve"/>
      <point x="163" y="378" type="line"/>
      <point x="113" y="340"/>
      <point x="78" y="282"/>
      <point x="69" y="220" type="curve" smooth="yes"/>
      <point x="52" y="99"/>
      <point x="137" y="0"/>
      <point x="255" y="0" type="curve" smooth="yes"/>
    </contour>
    <contour>
      <point x="242" y="160"/>
      <point x="223" y="182"/>
      <point x="227" y="210" type="curve" smooth="yes"/>
      <point x="232" y="244"/>
      <point x="262" y="270"/>
      <point x="293" y="270" type="curve" smooth="yes"/>
      <point x="394" y="270" type="line" smooth="yes"/>
      <point x="425" y="270"/>
      <point x="444" y="248"/>
      <point x="440" y="220" type="curve" smooth="yes"/>
      <point x="435" y="186"/>
      <point x="405" y="160"/>
      <point x="374" y="160" type="curve" smooth="yes"/>
      <point x="273" y="160" type="line" smooth="yes"/>
    </contour>
    <contour>
      <point x="290" y="430"/>
      <point x="271" y="452"/>
      <point x="275" y="480" type="curve" smooth="yes"/>
      <point x="280" y="514"/>
      <point x="310" y="540"/>
      <point x="341" y="540" type="curve" smooth="yes"/>
      <point x="422" y="540" type="line" smooth="yes"/>
      <point x="453" y="540"/>
      <point x="472" y="518"/>
      <point x="468" y="490" type="curve" smooth="yes"/>
      <point x="463" y="456"/>
      <point x="433" y="430"/>
      <point x="402" y="430" type="curve" smooth="yes"/>
      <point x="321" y="430" type="line" smooth="yes"/>
    </contour>
  </outline>
</glyph>
<glyph name="nine" format="1">
  <advance width="735"/>
  <unicode hex="0039"/>
  <outline>
    <contour>
      <point x="400" y="0" type="line" smooth="yes"/>
      <point x="518" y="0"/>
      <point x="626" y="95"/>
      <point x="643" y="213" type="curve" smooth="yes"/>
      <point x="681" y="483" type="line" smooth="yes"/>
      <point x="697" y="601"/>
      <point x="612" y="700"/>
      <point x="494" y="700" type="curve" smooth="yes"/>
      <point x="349" y="700" type="line" smooth="yes"/>
      <point x="231" y="700"/>
      <point x="123" y="605"/>
      <point x="107" y="490" type="curve" smooth="yes"/>
      <point x="90" y="369"/>
      <point x="175" y="270"/>
      <point x="293" y="270" type="curve" smooth="yes"/>
      <point x="536" y="270" type="line"/>
      <point x="558" y="430" type="line"/>
      <point x="311" y="430" type="line" smooth="yes"/>
      <point x="280" y="430"/>
      <point x="261" y="452"/>
      <point x="265" y="480" type="curve" smooth="yes"/>
      <point x="270" y="514"/>
      <point x="300" y="540"/>
      <point x="331" y="540" type="curve" smooth="yes"/>
      <point x="476" y="540" type="line" smooth="yes"/>
      <point x="507" y="540"/>
      <point x="526" y="518"/>
      <point x="521" y="487" type="curve" smooth="yes"/>
      <point x="483" y="217" type="line" smooth="yes"/>
      <point x="479" y="186"/>
      <point x="449" y="160"/>
      <point x="418" y="160" type="curve" smooth="yes"/>
      <point x="150" y="160" type="line"/>
      <point x="128" y="0" type="line"/>
    </contour>
  </outline>
</glyph>
<glyph name="colon" format="1">
  <advance width="400"/>
  <unicode hex="003A"/>
  <outline>
    <contour>
      <point x="220" y="30"/>
      <point x="268" y="73"/>
      <point x="275" y="125" type="curve" smooth="yes"/>
      <point x="284" y="183"/>
      <point x="244" y="230"/>
      <point x="185" y="230" type="curve" smooth="yes"/>
      <point x="133" y="230"/>
      <point x="84" y="187"/>
      <point x="77" y="135" type="curve" smooth="yes"/>
      <point x="69" y="77"/>
      <point x="109" y="30"/>
      <point x="167" y="30" type="curve" smooth="yes"/>
    </contour>
    <contour>
      <point x="264" y="340"/>
      <point x="312" y="383"/>
      <point x="319" y="435" type="curve" smooth="yes"/>
      <point x="327" y="493"/>
      <point x="286" y="540"/>
      <point x="229" y="540" type="curve" smooth="yes"/>
      <point x="176" y="540"/>
      <point x="128" y="497"/>
      <point x="120" y="445" type="curve" smooth="yes"/>
      <point x="112" y="387"/>
      <point x="153" y="340"/>
      <point x="210" y="340" type="curve" smooth="yes"/>
    </contour>
  </outline>
</glyph>
<glyph name="semicolon" format="1">
  <advance width="400"/>
  <unicode hex="003B"/>
  <outline>
    <contour>
      <point x="224" y="4" type="line"/>
      <point x="156" y="27" type="line"/>
      <point x="60" y="-63" type="line"/>
      <point x="90" y="-107" type="line"/>
    </contour>
    <contour>
      <point x="213" y="-20"/>
      <point x="261" y="23"/>
      <point x="268" y="75" type="curve" smooth="yes"/>
      <point x="276" y="133"/>
      <point x="237" y="180"/>
      <point x="178" y="180" type="curve" smooth="yes"/>
      <point x="126" y="180"/>
      <point x="77" y="137"/>
      <point x="70" y="85" type="curve" smooth="yes"/>
      <point x="62" y="27"/>
      <point x="102" y="-20"/>
      <point x="160" y="-20" type="curve" smooth="yes"/>
    </contour>
    <contour>
      <point x="257" y="290"/>
      <point x="305" y="333"/>
      <point x="312" y="385" type="curve" smooth="yes"/>
      <point x="320" y="443"/>
      <point x="279" y="490"/>
      <point x="222" y="490" type="curve" smooth="yes"/>
      <point x="169" y="490"/>
      <point x="121" y="447"/>
      <point x="113" y="395" type="curve" smooth="yes"/>
      <point x="105" y="337"/>
      <point x="146" y="290"/>
      <point x="203" y="290" type="curve" smooth="yes"/>
    </contour>
  </outline>
</glyph>
<glyph name="less" format="1">
  <advance width="579"/>
  <unicode hex="003C"/>
  <outline>
    <contour>
      <point x="473" y="273" type="line"/>
      <point x="287" y="353" type="line"/>
      <point x="499" y="442" type="line"/>
      <point x="465" y="552" type="line"/>
      <point x="172" y="431" type="line" smooth="yes"/>
      <point x="133" y="415"/>
      <point x="112" y="385"/>
      <point x="108" y="357" type="curve" smooth="yes"/>
      <point x="103" y="323"/>
      <point x="121" y="290"/>
      <point x="158" y="274" type="curve" smooth="yes"/>
      <point x="412" y="161" type="line"/>
    </contour>
  </outline>
</glyph>
<glyph name="equal" format="1">
  <advance width="620"/>
  <unicode hex="003D"/>
  <outline>
    <contour>
      <point x="128" y="500" type="line"/>
      <point x="111" y="380" type="line"/>
      <point x="531" y="380" type="line"/>
      <point x="548" y="500" type="line"/>
    </contour>
    <contour>
      <point x="103" y="320" type="line"/>
      <point x="86" y="200" type="line"/>
      <point x="506" y="200" type="line"/>
      <point x="523" y="320" type="line"/>
    </contour>
  </outline>
</glyph>
<glyph name="greater" format="1">
  <advance width="579"/>
  <unicode hex="003E"/>
  <outline>
    <contour>
      <point x="419" y="272" type="line" smooth="yes"/>
      <point x="460" y="288"/>
      <point x="482" y="319"/>
      <point x="486" y="347" type="curve" smooth="yes"/>
      <point x="490" y="381"/>
      <point x="474" y="413"/>
      <point x="439" y="429" type="curve" smooth="yes"/>
      <point x="182" y="552" type="line"/>
      <point x="120" y="442" type="line"/>
      <point x="306" y="353" type="line"/>
      <point x="100" y="273" type="line"/>
      <point x="131" y="161" type="line"/>
    </contour>
  </outline>
</glyph>
<glyph name="question" format="1">
  <advance width="571"/>
  <unicode hex="003F"/>
  <outline>
    <contour>
      <point x="309" y="227" type="line"/>
      <point x="312" y="252"/>
      <point x="339" y="278"/>
      <point x="414" y="342" type="curve" smooth="yes"/>
      <point x="462" y="386"/>
      <point x="491" y="442"/>
      <point x="497" y="488" type="curve" smooth="yes"/>
      <point x="517" y="627"/>
      <point x="420" y="739"/>
      <point x="283" y="739" type="curve" smooth="yes"/>
      <point x="202" y="739"/>
      <point x="121" y="699"/>
      <point x="65" y="629" type="curve"/>
      <point x="188" y="537" type="line"/>
      <point x="208" y="562"/>
      <point x="239" y="579"/>
      <point x="270" y="579" type="curve" smooth="yes"/>
      <point x="315" y="579"/>
      <point x="345" y="542"/>
      <point x="339" y="498" type="curve" smooth="yes"/>
      <point x="333" y="454"/>
      <point x="297" y="425"/>
      <point x="257" y="394" type="curve" smooth="yes"/>
      <point x="198" y="343"/>
      <point x="156" y="278"/>
      <point x="149" y="231" type="curve"/>
    </contour>
    <contour>
      <point x="163" y="182"/>
      <point x="114" y="139"/>
      <point x="107" y="87" type="curve" smooth="yes"/>
      <point x="99" y="29"/>
      <point x="140" y="-18"/>
      <point x="197" y="-18" type="curve" smooth="yes"/>
      <point x="251" y="-18"/>
      <point x="298" y="25"/>
      <point x="306" y="77" type="curve" smooth="yes"/>
      <point x="314" y="135"/>
      <point x="274" y="182"/>
      <point x="216" y="182" type="curve" smooth="yes"/>
    </contour>
  </outline>
</glyph>
<glyph name="at" format="1">
  <advance width="1224"/>
  <unicode hex="0040"/>
  <outline>
    <contour>
      <point x="819" y="477" type="line" smooth="yes"/>
      <point x="805" y="556"/>
      <point x="737" y="611"/>
      <point x="652" y="611" type="curve" smooth="yes"/>
      <point x="570" y="611"/>
      <point x="492" y="560"/>
      <point x="455" y="481" type="curve" smooth="yes"/>
      <point x="278" y="99" type="line"/>
      <point x="425" y="50" type="line"/>
      <point x="601" y="426" type="line" smooth="yes"/>
      <point x="607" y="442"/>
      <point x="624" y="451"/>
      <point x="639" y="451" type="curve" smooth="yes"/>
      <point x="650" y="451"/>
      <point x="660" y="446"/>
      <point x="663" y="430" type="curve" smooth="yes"/>
      <point x="727" y="80" type="line"/>
      <point x="893" y="80" type="line"/>
    </contour>
    <contour>
      <point x="1041" y="80"/>
      <point x="1123" y="152"/>
      <point x="1142" y="285" type="curve" smooth="yes"/>
      <point x="1184" y="582"/>
      <point x="977" y="822"/>
      <point x="681" y="822" type="curve" smooth="yes"/>
      <point x="389" y="822"/>
      <point x="120" y="586"/>
      <point x="79" y="295" type="curve" smooth="yes"/>
      <point x="38" y="-2"/>
      <point x="244" y="-242"/>
      <point x="541" y="-242" type="curve" smooth="yes"/>
      <point x="685" y="-242"/>
      <point x="826" y="-184"/>
      <point x="935" y="-88" type="curve"/>
      <point x="854" y="5" type="line"/>
      <point x="768" y="-72"/>
      <point x="660" y="-116"/>
      <point x="549" y="-116" type="curve" smooth="yes"/>
      <point x="326" y="-116"/>
      <point x="173" y="64"/>
      <point x="204" y="285" type="curve" smooth="yes"/>
      <point x="236" y="513"/>
      <point x="445" y="696"/>
      <point x="672" y="696" type="curve" smooth="yes"/>
      <point x="895" y="696"/>
      <point x="1049" y="517"/>
      <point x="1017" y="295" type="curve" smooth="yes"/>
      <point x="1010" y="243"/>
      <point x="965" y="206"/>
      <point x="916" y="206" type="curve" smooth="yes"/>
      <point x="825" y="206" type="line"/>
      <point x="807" y="80" type="line"/>
      <point x="905" y="80" type="line" smooth="yes"/>
    </contour>
  </outline>
</glyph>
<glyph name="A" format="1">
  <advance width="828"/>
  <unicode hex="0041"/>
  <outline>
    <contour>
      <point x="227" y="280" type="line"/>
      <point x="205" y="120" type="line"/>
      <point x="574" y="120" type="line"/>
      <point x="596" y="280" type="line"/>
    </contour>
    <contour>
      <point x="635" y="596" type="line"/>
      <point x="619" y="672"/>
      <point x="553" y="725"/>
      <point x="470" y="725" type="curve"/>
      <point x="391" y="725"/>
      <point x="313" y="677"/>
      <point x="275" y="600" type="curve"/>
      <point x="-3" y="0" type="line"/>
      <point x="168" y="0" type="line"/>
      <point x="422" y="544" type="line"/>
      <point x="426" y="555"/>
      <point x="442" y="565"/>
      <point x="457" y="565" type="curve"/>
      <point x="468" y="565"/>
      <point x="476" y="560"/>
      <point x="479" y="548" type="curve"/>
      <point x="579" y="0" type="line"/>
      <point x="745" y="0" type="line"/>
    </contour>
    <contour>
      <point x="349" y="-167" type="move" name="below"/>
    </contour>
    <contour>
      <point x="495" y="869" type="move" name="accent"/>
    </contour>
    <contour>
      <point x="523" y="1079" type="move" name="above"/>
    </contour>
    <contour>
      <point x="648" y="8" type="move" name="bottom"/>
    </contour>
  </outline>
</glyph>
<glyph name="B" format="1">
  <advance width="815"/>
  <unicode hex="0042"/>
  <outline>
    <contour>
      <point x="214" y="700" type="line" smooth="yes"/>
      <point x="162" y="700"/>
      <point x="133" y="674"/>
      <point x="125" y="622" type="curve" smooth="yes"/>
      <point x="49" y="82" type="line" smooth="yes"/>
      <point x="48" y="76"/>
      <point x="48" y="71"/>
      <point x="48" y="66" type="curve" smooth="yes"/>
      <point x="48" y="24"/>
      <point x="74" y="0"/>
      <point x="120" y="0" type="curve" smooth="yes"/>
      <point x="500" y="0" type="line" smooth="yes"/>
      <point x="626" y="0"/>
      <point x="744" y="109"/>
      <point x="744" y="241" type="curve" smooth="yes"/>
      <point x="744" y="304"/>
      <point x="715" y="358"/>
      <point x="672" y="391" type="curve"/>
      <point x="676" y="348" type="line"/>
      <point x="718" y="392"/>
      <point x="742" y="451"/>
      <point x="742" y="511" type="curve" smooth="yes"/>
      <point x="742" y="617"/>
      <point x="662" y="700"/>
      <point x="554" y="700" type="curve" smooth="yes"/>
    </contour>
    <contour>
      <point x="566" y="270"/>
      <point x="585" y="252"/>
      <point x="585" y="227" type="curve" smooth="yes"/>
      <point x="585" y="190"/>
      <point x="551" y="160"/>
      <point x="518" y="160" type="curve" smooth="yes"/>
      <point x="220" y="160" type="line"/>
      <point x="236" y="270" type="line"/>
      <point x="538" y="270" type="line" smooth="yes"/>
    </contour>
    <contour>
      <point x="564" y="540"/>
      <point x="583" y="522"/>
      <point x="583" y="497" type="curve" smooth="yes"/>
      <point x="583" y="460"/>
      <point x="549" y="430"/>
      <point x="516" y="430" type="curve" smooth="yes"/>
      <point x="258" y="430" type="line"/>
      <point x="274" y="540" type="line"/>
      <point x="536" y="540" type="line" smooth="yes"/>
    </contour>
  </outline>
</glyph>
<glyph name="C" format="1">
  <advance width="840"/>
  <unicode hex="0043"/>
  <outline>
    <contour>
      <point x="568" y="185"/>
      <point x="499" y="135"/>
      <point x="407" y="135" type="curve" smooth="yes"/>
      <point x="289" y="135"/>
      <point x="210" y="228"/>
      <point x="226" y="345" type="curve" smooth="yes"/>
      <point x="244" y="468"/>
      <point x="355" y="565"/>
      <point x="477" y="565" type="curve" smooth="yes"/>
      <point x="565" y="565"/>
      <point x="617" y="519"/>
      <point x="646" y="460" type="curve"/>
      <point x="792" y="536" type="line"/>
      <point x="743" y="648"/>
      <point x="631" y="725"/>
      <point x="490" y="725" type="curve" smooth="yes"/>
      <point x="285" y="725"/>
      <point x="96" y="559"/>
      <point x="68" y="355" type="curve" smooth="yes"/>
      <point x="38" y="145"/>
      <point x="185" y="-25"/>
      <point x="394" y="-25" type="curve" smooth="yes"/>
      <point x="531" y="-25"/>
      <point x="661" y="48"/>
      <point x="742" y="160" type="curve"/>
      <point x="612" y="244" type="line"/>
    </contour>
    <contour>
      <point x="371" y="-40" type="move" name="bottom"/>
    </contour>
    <contour>
      <point x="515" y="869" type="move" name="accent"/>
    </contour>
  </outline>
</glyph>
<glyph name="D" format="1">
  <advance width="800"/>
  <unicode hex="0044"/>
  <outline>
    <contour>
      <point x="339" y="-10" type="line" smooth="yes"/>
      <point x="538" y="-10"/>
      <point x="719" y="149"/>
      <point x="746" y="345" type="curve" smooth="yes"/>
      <point x="775" y="547"/>
      <point x="634" y="710"/>
      <point x="435" y="710" type="curve" smooth="yes"/>
      <point x="295" y="710" type="line" smooth="yes"/>
      <point x="191" y="710"/>
      <point x="130" y="656"/>
      <point x="115" y="552" type="curve" smooth="yes"/>
      <point x="59" y="152" type="line" smooth="yes"/>
      <point x="45" y="48"/>
      <point x="95" y="-10"/>
      <point x="199" y="-10" type="curve" smooth="yes"/>
    </contour>
    <contour>
      <point x="275" y="550" type="line"/>
      <point x="418" y="550" type="line" smooth="yes"/>
      <point x="528" y="550"/>
      <point x="603" y="462"/>
      <point x="588" y="355" type="curve" smooth="yes"/>
      <point x="572" y="242"/>
      <point x="467" y="150"/>
      <point x="357" y="150" type="curve" smooth="yes"/>
      <point x="219" y="150" type="line"/>
    </contour>
    <contour>
      <point x="167" y="350" type="move" name="bar"/>
    </contour>
    <contour>
      <point x="167" y="350" type="move" name="stroke"/>
    </contour>
    <contour>
      <point x="460" y="869" type="move" name="accent"/>
    </contour>
  </outline>
</glyph>
<glyph name="F" format="1">
  <advance width="715"/>
  <unicode hex="0046"/>
  <outline>
    <contour>
      <point x="294" y="700" type="line" smooth="yes"/>
      <point x="190" y="700"/>
      <point x="129" y="646"/>
      <point x="114" y="542" type="curve" smooth="yes"/>
      <point x="38" y="0" type="line"/>
      <point x="198" y="0" type="line"/>
      <point x="274" y="540" type="line"/>
      <point x="689" y="540" type="line"/>
      <point x="711" y="700" type="line"/>
    </contour>
    <contour>
      <point x="178" y="430" type="line"/>
      <point x="156" y="270" type="line"/>
      <point x="489" y="270" type="line"/>
      <point x="511" y="430" type="line"/>
    </contour>
  </outline>
</glyph>
<glyph name="G" format="1">
  <advance width="814"/>
  <unicode hex="0047"/>
  <outline>
    <contour>
      <point x="287" y="725"/>
      <point x="96" y="557"/>
      <point x="68" y="355" type="curve" smooth="yes"/>
      <point x="39" y="147"/>
      <point x="187" y="-25"/>
      <point x="394" y="-25" type="curve" smooth="yes"/>
      <point x="507" y="-25"/>
      <point x="616" y="26"/>
      <point x="698" y="106" type="curve" smooth="yes"/>
      <point x="726" y="139"/>
      <point x="735" y="167"/>
      <point x="741" y="206" type="curve" smooth="yes"/>
      <point x="761" y="348" type="line" smooth="yes"/>
      <point x="768" y="400"/>
      <point x="742" y="430"/>
      <point x="690" y="430" type="curve" smooth="yes"/>
      <point x="455" y="430" type="line"/>
      <point x="433" y="270" type="line"/>
      <point x="590" y="270" type="line"/>
      <point x="579" y="208" type="line"/>
      <point x="533" y="165"/>
      <point x="471" y="135"/>
      <point x="407" y="135" type="curve" smooth="yes"/>
      <point x="292" y="135"/>
      <point x="210" y="231"/>
      <point x="226" y="345" type="curve" smooth="yes"/>
      <point x="243" y="465"/>
      <point x="358" y="565"/>
      <point x="477" y="565" type="curve" smooth="yes"/>
      <point x="537" y="565"/>
      <point x="581" y="545"/>
      <point x="616" y="504" type="curve"/>
      <point x="743" y="612" type="line"/>
      <point x="685" y="681"/>
      <point x="596" y="725"/>
      <point x="490" y="725" type="curve" smooth="yes"/>
    </contour>
    <contour>
      <point x="515" y="869" type="move" name="accent"/>
    </contour>
  </outline>
</glyph>
<glyph name="H" format="1">
  <advance width="795"/>
  <unicode hex="0048"/>
  <outline>
    <contour>
      <point x="611" y="700" type="line"/>
      <point x="513" y="0" type="line"/>
      <point x="673" y="0" type="line"/>
      <point x="771" y="700" type="line"/>
    </contour>
    <contour>
      <point x="136" y="700" type="line"/>
      <point x="38" y="0" type="line"/>
      <point x="198" y="0" type="line"/>
      <point x="296" y="700" type="line"/>
    </contour>
    <contour>
      <point x="178" y="430" type="line"/>
      <point x="156" y="270" type="line"/>
      <point x="634" y="270" type="line"/>
      <point x="656" y="430" type="line"/>
    </contour>
    <contour>
      <point x="435" y="557" type="move" name="bar"/>
    </contour>
  </outline>
</glyph>
<glyph name="K" format="1">
  <advance width="777"/>
  <unicode hex="004B"/>
  <outline>
    <contour>
      <point x="674" y="0" type="line"/>
      <point x="451" y="298" type="line" smooth="yes"/>
      <point x="440" y="313"/>
      <point x="438" y="331"/>
      <point x="440" y="345" type="curve" smooth="yes"/>
      <point x="443" y="365"/>
      <point x="454" y="383"/>
      <point x="469" y="398" type="curve" smooth="yes"/>
      <point x="774" y="700" type="line"/>
      <point x="559" y="700" type="line"/>
      <point x="361" y="508" type="line" smooth="yes"/>
      <point x="315" y="462"/>
      <point x="289" y="407"/>
      <point x="282" y="355" type="curve" smooth="yes"/>
      <point x="274" y="297"/>
      <point x="287" y="243"/>
      <point x="321" y="196" type="curve" smooth="yes"/>
      <point x="463" y="0" type="line"/>
    </contour>
    <contour>
      <point x="198" y="0" type="line"/>
      <point x="296" y="700" type="line"/>
      <point x="136" y="700" type="line"/>
      <point x="38" y="0" type="line"/>
    </contour>
    <contour>
      <point x="439" y="869" type="move" name="accent"/>
    </contour>
  </outline>
</glyph>
<glyph name="L" format="1">
  <advance width="695"/>
  <unicode hex="004C"/>
  <outline>
    <contour>
      <point x="136" y="700" type="line"/>
      <point x="61" y="162" type="line" smooth="yes"/>
      <point x="46" y="58"/>
      <point x="96" y="0"/>
      <point x="200" y="0" type="curve" smooth="yes"/>
      <point x="573" y="0" type="line"/>
      <point x="595" y="160" type="line"/>
      <point x="220" y="160" type="line"/>
      <point x="296" y="700" type="line"/>
    </contour>
    <contour>
      <point x="168" y="350" type="move" name="slash"/>
    </contour>
    <contour>
      <point x="240" y="869" type="move" name="accent"/>
    </contour>
  </outline>
</glyph>
<glyph name="M" format="1">
  <advance width="1160"/>
  <unicode hex="004D"/>
  <outline>
    <contour>
      <point x="815" y="725"/>
      <point x="725" y="673"/>
      <point x="696" y="566" type="curve" smooth="yes"/>
      <point x="585" y="159" type="line" smooth="yes"/>
      <point x="581" y="144"/>
      <point x="566" y="134"/>
      <point x="553" y="134" type="curve" smooth="yes"/>
      <point x="543" y="134"/>
      <point x="535" y="140"/>
      <point x="535" y="155" type="curve" smooth="yes"/>
      <point x="537" y="563" type="line" smooth="yes"/>
      <point x="538" y="669"/>
      <point x="460" y="725"/>
      <point x="373" y="725" type="curve" smooth="yes"/>
      <point x="290" y="725"/>
      <point x="201" y="673"/>
      <point x="171" y="566" type="curve" smooth="yes"/>
      <point x="18" y="0" type="line"/>
      <point x="180" y="0" type="line"/>
      <point x="327" y="541" type="line" smooth="yes"/>
      <point x="331" y="557"/>
      <point x="346" y="566"/>
      <point x="360" y="566" type="curve" smooth="yes"/>
      <point x="369" y="566"/>
      <point x="377" y="561"/>
      <point x="377" y="545" type="curve" smooth="yes"/>
      <point x="375" y="137" type="line" smooth="yes"/>
      <point x="374" y="31"/>
      <point x="452" y="-25"/>
      <point x="539" y="-25" type="curve" smooth="yes"/>
      <point x="622" y="-25"/>
      <point x="711" y="27"/>
      <point x="741" y="134" type="curve" smooth="yes"/>
      <point x="852" y="541" type="line" smooth="yes"/>
      <point x="856" y="557"/>
      <point x="871" y="566"/>
      <point x="885" y="566" type="curve" smooth="yes"/>
      <point x="894" y="566"/>
      <point x="902" y="561"/>
      <point x="902" y="545" type="curve" smooth="yes"/>
      <point x="896" y="0" type="line"/>
      <point x="1058" y="0" type="line"/>
      <point x="1062" y="562" type="line" smooth="yes"/>
      <point x="1064" y="669"/>
      <point x="984" y="725"/>
      <point x="898" y="725" type="curve" smooth="yes"/>
    </contour>
  </outline>
</glyph>
<glyph name="N" format="1">
  <advance width="873"/>
  <unicode hex="004E"/>
  <outline>
    <contour>
      <point x="223" y="726"/>
      <point x="128" y="642"/>
      <point x="113" y="537" type="curve"/>
      <point x="38" y="0" type="line"/>
      <point x="198" y="0" type="line"/>
      <point x="273" y="533" type="line"/>
      <point x="275" y="550"/>
      <point x="294" y="566"/>
      <point x="313" y="566" type="curve"/>
      <point x="323" y="566"/>
      <point x="332" y="560"/>
      <point x="335" y="549" type="curve"/>
      <point x="396" y="107" type="line"/>
      <point x="410" y="32"/>
      <point x="476" y="-25"/>
      <point x="562" y="-25" type="curve"/>
      <point x="664" y="-25"/>
      <point x="759" y="59"/>
      <point x="774" y="164" type="curve"/>
      <point x="849" y="701" type="line"/>
      <point x="689" y="701" type="line"/>
      <point x="615" y="168" type="line"/>
      <point x="612" y="151"/>
      <point x="593" y="135"/>
      <point x="575" y="135" type="curve"/>
      <point x="564" y="135"/>
      <point x="556" y="141"/>
      <point x="553" y="152" type="curve"/>
      <point x="491" y="594" type="line"/>
      <point x="477" y="669"/>
      <point x="412" y="726"/>
      <point x="326" y="726" type="curve"/>
    </contour>
    <contour>
      <point x="517" y="869" type="move" name="accent"/>
    </contour>
  </outline>
</glyph>
<glyph name="O" format="1">
  <advance width="863"/>
  <unicode hex="004F"/>
  <outline>
    <contour>
      <point x="283" y="725"/>
      <point x="96" y="559"/>
      <point x="68" y="355" type="curve" smooth="yes"/>
      <point x="38" y="145"/>
      <point x="183" y="-25"/>
      <point x="390" y="-25" type="curve" smooth="yes"/>
      <point x="594" y="-25"/>
      <point x="781" y="141"/>
      <point x="809" y="345" type="curve" smooth="yes"/>
      <point x="839" y="555"/>
      <point x="694" y="725"/>
      <point x="486" y="725" type="curve" smooth="yes"/>
    </contour>
    <contour>
      <point x="589" y="565"/>
      <point x="669" y="471"/>
      <point x="653" y="355" type="curve" smooth="yes"/>
      <point x="636" y="233"/>
      <point x="523" y="135"/>
      <point x="403" y="135" type="curve" smooth="yes"/>
      <point x="288" y="135"/>
      <point x="208" y="229"/>
      <point x="224" y="345" type="curve" smooth="yes"/>
      <point x="241" y="467"/>
      <point x="354" y="565"/>
      <point x="473" y="565" type="curve" smooth="yes"/>
    </contour>
    <contour>
      <point x="365" y="-167" type="move" name="below"/>
    </contour>
    <contour>
      <point x="511" y="869" type="move" name="accent"/>
    </contour>
    <contour>
      <point x="541" y="1079" type="move" name="above"/>
    </contour>
    <contour>
      <point x="438" y="350" type="move" name="slash"/>
    </contour>
    <contour>
      <point x="368" y="-18" type="move" name="bottom"/>
    </contour>
  </outline>
</glyph>
<glyph name="P" format="1">
  <advance width="778"/>
  <unicode hex="0050"/>
  <outline>
    <contour>
      <point x="294" y="700" type="line" smooth="yes"/>
      <point x="190" y="700"/>
      <point x="129" y="646"/>
      <point x="114" y="542" type="curve" smooth="yes"/>
      <point x="38" y="0" type="line"/>
      <point x="198" y="0" type="line"/>
      <point x="274" y="540" type="line"/>
      <point x="498" y="540" type="line"/>
      <point x="550" y="540"/>
      <point x="585" y="499"/>
      <point x="578" y="450" type="curve" smooth="yes"/>
      <point x="570" y="395"/>
      <point x="519" y="350"/>
      <point x="467" y="350" type="curve"/>
      <point x="171" y="350" type="line"/>
      <point x="149" y="190" type="line"/>
      <point x="450" y="190" type="line"/>
      <point x="591" y="190"/>
      <point x="718" y="302"/>
      <point x="738" y="440" type="curve" smooth="yes"/>
      <point x="758" y="584"/>
      <point x="657" y="700"/>
      <point x="516" y="700" type="curve"/>
    </contour>
  </outline>
</glyph>
<glyph name="Q" format="1">
  <advance width="867"/>
  <unicode hex="0051"/>
  <outline>
    <contour>
      <point x="439" y="217" type="line"/>
      <point x="650" y="-26" type="line"/>
      <point x="777" y="87" type="line"/>
      <point x="567" y="330" type="line"/>
    </contour>
    <contour>
      <point x="283" y="725"/>
      <point x="96" y="559"/>
      <point x="68" y="355" type="curve" smooth="yes"/>
      <point x="38" y="145"/>
      <point x="183" y="-25"/>
      <point x="390" y="-25" type="curve" smooth="yes"/>
      <point x="594" y="-25"/>
      <point x="781" y="141"/>
      <point x="809" y="345" type="curve" smooth="yes"/>
      <point x="839" y="555"/>
      <point x="694" y="725"/>
      <point x="486" y="725" type="curve" smooth="yes"/>
    </contour>
    <contour>
      <point x="589" y="565"/>
      <point x="669" y="471"/>
      <point x="653" y="355" type="curve" smooth="yes"/>
      <point x="636" y="233"/>
      <point x="523" y="135"/>
      <point x="403" y="135" type="curve" smooth="yes"/>
      <point x="288" y="135"/>
      <point x="208" y="229"/>
      <point x="224" y="345" type="curve" smooth="yes"/>
      <point x="241" y="467"/>
      <point x="354" y="565"/>
      <point x="473" y="565" type="curve" smooth="yes"/>
    </contour>
    <contour>
      <point x="438" y="350" type="move" name="slash"/>
    </contour>
    <contour>
      <point x="368" y="-18" type="move" name="bottom"/>
    </contour>
    <contour>
      <point x="511" y="869" type="move" name="accent"/>
    </contour>
  </outline>
</glyph>
<glyph name="R" format="1">
  <advance width="813"/>
  <unicode hex="0052"/>
  <outline>
    <contour>
      <point x="198" y="0" type="line"/>
      <point x="274" y="540" type="line"/>
      <point x="538" y="540" type="line" smooth="yes"/>
      <point x="569" y="540"/>
      <point x="589" y="517"/>
      <point x="585" y="490" type="curve" smooth="yes"/>
      <point x="580" y="456"/>
      <point x="550" y="430"/>
      <point x="519" y="430" type="curve" smooth="yes"/>
      <point x="499" y="430" type="line" smooth="yes"/>
      <point x="383" y="430"/>
      <point x="302" y="352"/>
      <point x="290" y="265" type="curve" smooth="yes"/>
      <point x="283" y="214"/>
      <point x="298" y="162"/>
      <point x="340" y="119" type="curve" smooth="yes"/>
      <point x="453" y="0" type="line"/>
      <point x="690" y="0" type="line"/>
      <point x="460" y="234" type="line"/>
      <point x="457" y="238"/>
      <point x="457" y="243"/>
      <point x="457" y="246" type="curve" smooth="yes"/>
      <point x="459" y="260"/>
      <point x="471" y="270"/>
      <point x="483" y="270" type="curve" smooth="yes"/>
      <point x="501" y="270" type="line"/>
      <point x="620" y="270"/>
      <point x="727" y="364"/>
      <point x="743" y="480" type="curve" smooth="yes"/>
      <point x="760" y="602"/>
      <point x="674" y="700"/>
      <point x="556" y="700" type="curve" smooth="yes"/>
      <point x="294" y="700" type="line" smooth="yes"/>
      <point x="205" y="700"/>
      <point x="127" y="631"/>
      <point x="114" y="543" type="curve" smooth="yes"/>
      <point x="38" y="0" type="line"/>
    </contour>
    <contour>
      <point x="469" y="869" type="move" name="accent"/>
    </contour>
  </outline>
</glyph>
<glyph name="S" format="1">
  <advance width="768"/>
  <unicode hex="0053"/>
  <outline>
    <contour>
      <point x="349" y="700" type="line"/>
      <point x="230" y="700"/>
      <point x="123" y="604"/>
      <point x="107" y="490" type="curve"/>
      <point x="90" y="368"/>
      <point x="174" y="270"/>
      <point x="293" y="270" type="curve"/>
      <point x="471" y="270" type="line"/>
      <point x="501" y="270"/>
      <point x="521" y="247"/>
      <point x="517" y="220" type="curve"/>
      <point x="512" y="186"/>
      <point x="482" y="160"/>
      <point x="451" y="160" type="curve"/>
      <point x="74" y="160" type="line"/>
      <point x="52" y="0" type="line"/>
      <point x="433" y="0" type="line"/>
      <point x="550" y="0"/>
      <point x="659" y="94"/>
      <point x="675" y="210" type="curve"/>
      <point x="692" y="331"/>
      <point x="607" y="430"/>
      <point x="489" y="430" type="curve"/>
      <point x="311" y="430" type="line"/>
      <point x="280" y="430"/>
      <point x="261" y="452"/>
      <point x="265" y="480" type="curve"/>
      <point x="270" y="514"/>
      <point x="300" y="540"/>
      <point x="331" y="540" type="curve"/>
      <point x="682" y="540" type="line"/>
      <point x="704" y="700" type="line"/>
    </contour>
    <contour>
      <point x="343" y="8" type="move" name="bottom"/>
    </contour>
    <contour>
      <point x="464" y="869" type="move" name="accent"/>
    </contour>
  </outline>
</glyph>
<glyph name="T" format="1">
  <advance width="700"/>
  <unicode hex="0054"/>
  <outline>
    <contour>
      <point x="388" y="0" type="line"/>
      <point x="470" y="585" type="line"/>
      <point x="310" y="585" type="line"/>
      <point x="228" y="0" type="line"/>
    </contour>
    <contour>
      <point x="695" y="550" type="line"/>
      <point x="716" y="700" type="line"/>
      <point x="96" y="700" type="line"/>
      <point x="75" y="550" type="line"/>
    </contour>
    <contour>
      <point x="352" y="350" type="move" name="stroke"/>
    </contour>
    <contour>
      <point x="352" y="350" type="move" name="bar"/>
    </contour>
    <contour>
      <point x="424" y="869" type="move" name="accent"/>
    </contour>
    <contour>
      <point x="309" y="8" type="move" name="bottom"/>
    </contour>
  </outline>
</glyph>
<glyph name="V" format="1">
  <advance width="828"/>
  <unicode hex="0056"/>
  <outline>
    <contour>
      <point x="677" y="700" type="line"/>
      <point x="422" y="156" type="line" smooth="yes"/>
      <point x="417" y="144"/>
      <point x="402" y="135"/>
      <point x="387" y="135" type="curve" smooth="yes"/>
      <point x="376" y="135"/>
      <point x="367" y="141"/>
      <point x="364" y="152" type="curve"/>
      <point x="265" y="700" type="line"/>
      <point x="97" y="700" type="line"/>
      <point x="208" y="104" type="line" smooth="yes"/>
      <point x="223" y="27"/>
      <point x="291" y="-25"/>
      <point x="374" y="-25" type="curve" smooth="yes"/>
      <point x="453" y="-25"/>
      <point x="530" y="24"/>
      <point x="568" y="100" type="curve" smooth="yes"/>
      <point x="845" y="700" type="line"/>
    </contour>
  </outline>
</glyph>
<glyph name="W" format="1">
  <advance width="1061"/>
  <unicode hex="0057"/>
  <outline>
    <contour>
      <point x="136" y="700" type="line"/>
      <point x="72" y="241" type="line"/>
      <point x="51" y="95"/>
      <point x="157" y="-26"/>
      <point x="304" y="-26" type="curve"/>
      <point x="448" y="-26"/>
      <point x="582" y="91"/>
      <point x="602" y="237" type="curve"/>
      <point x="667" y="700" type="line"/>
      <point x="507" y="700" type="line"/>
      <point x="443" y="241" type="line"/>
      <point x="435" y="183"/>
      <point x="377" y="134"/>
      <point x="317" y="134" type="curve"/>
      <point x="261" y="134"/>
      <point x="223" y="179"/>
      <point x="231" y="237" type="curve"/>
      <point x="296" y="700" type="line"/>
    </contour>
    <contour>
      <point x="443" y="241" type="line"/>
      <point x="422" y="95"/>
      <point x="527" y="-26"/>
      <point x="675" y="-26" type="curve"/>
      <point x="819" y="-26"/>
      <point x="952" y="91"/>
      <point x="972" y="237" type="curve"/>
      <point x="1037" y="700" type="line"/>
      <point x="877" y="700" type="line"/>
      <point x="813" y="241" type="line"/>
      <point x="805" y="183"/>
      <point x="748" y="134"/>
      <point x="688" y="134" type="curve"/>
      <point x="632" y="134"/>
      <point x="594" y="179"/>
      <point x="602" y="237" type="curve"/>
    </contour>
    <contour>
      <point x="611" y="869" type="move" name="accent"/>
    </contour>
  </outline>
</glyph>
<glyph name="X" format="1">
  <advance width="880"/>
  <unicode hex="0058"/>
  <outline>
    <contour>
      <point x="291" y="660"/>
      <point x="305" y="625"/>
      <point x="332" y="599" type="curve"/>
      <point x="686" y="227" type="line"/>
      <point x="745" y="172"/>
      <point x="770" y="91"/>
      <point x="758" y="0" type="curve"/>
      <point x="598" y="0" type="line"/>
      <point x="603" y="0"/>
      <point x="589" y="75"/>
      <point x="562" y="101" type="curve"/>
      <point x="208" y="473" type="line"/>
      <point x="149" y="528"/>
      <point x="124" y="609"/>
      <point x="136" y="700" type="curve"/>
      <point x="297" y="700" type="line"/>
    </contour>
    <contour>
      <point x="844" y="613"/>
      <point x="792" y="532"/>
      <point x="717" y="477" type="curve"/>
      <point x="258" y="105" type="line"/>
      <point x="225" y="79"/>
      <point x="204" y="44"/>
      <point x="198" y="0" type="curve"/>
      <point x="38" y="0" type="line"/>
      <point x="50" y="87"/>
      <point x="102" y="168"/>
      <point x="177" y="223" type="curve"/>
      <point x="636" y="595" type="line"/>
      <point x="669" y="621"/>
      <point x="690" y="656"/>
      <point x="696" y="700" type="curve"/>
      <point x="857" y="700" type="line"/>
    </contour>
  </outline>
</glyph>
<glyph name="Y" format="1">
  <advance width="764"/>
  <unicode hex="0059"/>
  <outline>
    <contour>
      <point x="580" y="700" type="line"/>
      <point x="523" y="294" type="line" smooth="yes"/>
      <point x="513" y="221"/>
      <point x="443" y="160"/>
      <point x="370" y="160" type="curve" smooth="yes"/>
      <point x="62" y="160" type="line"/>
      <point x="40" y="0" type="line"/>
      <point x="352" y="0" type="line" smooth="yes"/>
      <point x="513" y="0"/>
      <point x="660" y="129"/>
      <point x="683" y="290" type="curve" smooth="yes"/>
      <point x="740" y="700" type="line"/>
    </contour>
    <contour>
      <point x="136" y="700" type="line"/>
      <point x="122" y="602" type="line" smooth="yes"/>
      <point x="101" y="450"/>
      <point x="164" y="344"/>
      <point x="301" y="298" type="curve" smooth="yes"/>
      <point x="549" y="212" type="line"/>
      <point x="619" y="364" type="line"/>
      <point x="367" y="448" type="line" smooth="yes"/>
      <point x="294" y="473"/>
      <point x="270" y="516"/>
      <point x="282" y="598" type="curve" smooth="yes"/>
      <point x="296" y="700" type="line"/>
    </contour>
    <contour>
      <point x="488" y="1049" type="move" name="above"/>
    </contour>
    <contour>
      <point x="463" y="869" type="move" name="accent"/>
    </contour>
  </outline>
</glyph>
<glyph name="Z" format="1">
  <advance width="879"/>
  <unicode hex="005A"/>
  <outline>
    <contour>
      <point x="186" y="700" type="line"/>
      <point x="164" y="540" type="line"/>
      <point x="692" y="538" type="line"/>
      <point x="691" y="545"/>
      <point x="690" y="552"/>
      <point x="688" y="556" type="curve" smooth="yes"/>
      <point x="689" y="564"/>
      <point x="687" y="569"/>
      <point x="687" y="574" type="curve"/>
      <point x="138" y="261" type="line" smooth="yes"/>
      <point x="90" y="232"/>
      <point x="64" y="189"/>
      <point x="58" y="147" type="curve" smooth="yes"/>
      <point x="48" y="73"/>
      <point x="93" y="0"/>
      <point x="180" y="0" type="curve" smooth="yes"/>
      <point x="728" y="0" type="line"/>
      <point x="750" y="160" type="line"/>
      <point x="202" y="162" type="line"/>
      <point x="203" y="157"/>
      <point x="203" y="152"/>
      <point x="205" y="150" type="curve" smooth="yes"/>
      <point x="205" y="140"/>
      <point x="206" y="133"/>
      <point x="207" y="126" type="curve"/>
      <point x="756" y="439" type="line" smooth="yes"/>
      <point x="805" y="468"/>
      <point x="829" y="511"/>
      <point x="834" y="552" type="curve" smooth="yes"/>
      <point x="845" y="627"/>
      <point x="800" y="700"/>
      <point x="713" y="700" type="curve" smooth="yes"/>
    </contour>
    <contour>
      <point x="528" y="869" type="move" name="accent"/>
    </contour>
  </outline>
</glyph>
<glyph name="bracketleft" format="1">
  <advance width="480"/>
  <unicode hex="005B"/>
  <outline>
    <contour>
      <point x="343" y="34" type="line"/>
      <point x="223" y="34" type="line"/>
      <point x="313" y="674" type="line"/>
      <point x="433" y="674" type="line"/>
      <point x="449" y="794" type="line"/>
      <point x="169" y="794" type="line"/>
      <point x="46" y="-86" type="line"/>
      <point x="326" y="-86" type="line"/>
    </contour>
  </outline>
</glyph>
<glyph name="backslash" format="1">
  <advance width="521"/>
  <unicode hex="005C"/>
  <outline>
    <contour>
      <point x="330" y="-63" type="line"/>
      <point x="213" y="857" type="line"/>
      <point x="94" y="826" type="line"/>
      <point x="211" y="-94" type="line"/>
    </contour>
  </outline>
</glyph>
<glyph name="bracketright" format="1">
  <advance width="480"/>
  <unicode hex="005D"/>
  <outline>
    <contour>
      <point x="326" y="-86" type="line"/>
      <point x="449" y="794" type="line"/>
      <point x="169" y="794" type="line"/>
      <point x="153" y="674" type="line"/>
      <point x="273" y="674" type="line"/>
      <point x="183" y="34" type="line"/>
      <point x="63" y="34" type="line"/>
      <point x="46" y="-86" type="line"/>
    </contour>
  </outline>
</glyph>
<glyph name="asciicircum" format="1">
  <advance width="591"/>
  <unicode hex="005E"/>
  <outline>
    <contour>
      <point x="228" y="403" type="line"/>
      <point x="336" y="599" type="line"/>
      <point x="396" y="400" type="line"/>
      <point x="511" y="448" type="line"/>
      <point x="426" y="721" type="line" smooth="yes"/>
      <point x="416" y="758"/>
      <point x="387" y="779"/>
      <point x="354" y="779" type="curve" smooth="yes"/>
      <point x="325" y="779"/>
      <point x="292" y="761"/>
      <point x="270" y="722" type="curve" smooth="yes"/>
      <point x="120" y="449" type="line"/>
    </contour>
  </outline>
</glyph>
<glyph name="underscore" format="1">
  <advance width="780"/>
  <unicode hex="005F"/>
  <outline>
    <contour>
      <point x="75" y="120" type="line"/>
      <point x="58" y="0" type="line"/>
      <point x="638" y="0" type="line"/>
      <point x="655" y="120" type="line"/>
    </contour>
  </outline>
</glyph>
<glyph name="grave" format="1">
  <advance width="278"/>
  <unicode hex="0060"/>
  <outline>
    <contour>
      <point x="60" y="744" type="line"/>
      <point x="124" y="600" type="line"/>
      <point x="228" y="600" type="line"/>
      <point x="164" y="744" type="line"/>
    </contour>
    <contour>
      <point x="175" y="670" type="move" name="_accent"/>
    </contour>
    <contour>
      <point x="175" y="670" type="move" name="_above"/>
    </contour>
  </outline>
</glyph>
<glyph name="a" format="1">
  <advance width="704"/>
  <unicode hex="0061"/>
  <outline>
    <contour>
      <point x="445" y="0" type="line" smooth="yes"/>
      <point x="522" y="0"/>
      <point x="590" y="60"/>
      <point x="601" y="137" type="curve" smooth="yes"/>
      <point x="639" y="408" type="line"/>
      <point x="654" y="513"/>
      <point x="579" y="600"/>
      <point x="474" y="600" type="curve" smooth="yes"/>
      <point x="182" y="600" type="line"/>
      <point x="160" y="440" type="line"/>
      <point x="456" y="440" type="line" smooth="yes"/>
      <point x="473" y="440"/>
      <point x="482" y="429"/>
      <point x="480" y="412" type="curve" smooth="yes"/>
      <point x="443" y="137" type="line"/>
      <point x="451" y="144"/>
      <point x="458" y="151"/>
      <point x="466" y="158" type="curve"/>
      <point x="228" y="160" type="line" smooth="yes"/>
      <point x="207" y="160"/>
      <point x="196" y="174"/>
      <point x="199" y="191" type="curve" smooth="yes"/>
      <point x="202" y="215"/>
      <point x="222" y="233"/>
      <point x="243" y="233" type="curve" smooth="yes"/>
      <point x="536" y="233" type="line"/>
      <point x="556" y="380" type="line"/>
      <point x="259" y="380" type="line" smooth="yes"/>
      <point x="153" y="380"/>
      <point x="60" y="297"/>
      <point x="45" y="195" type="curve" smooth="yes"/>
      <point x="30" y="87"/>
      <point x="105" y="0"/>
      <point x="210" y="0" type="curve" smooth="yes"/>
    </contour>
    <contour>
      <point x="290" y="-167" type="move" name="below"/>
    </contour>
    <contour>
      <point x="421" y="759" type="move" name="accent"/>
    </contour>
    <contour>
      <point x="450" y="969" type="move" name="above"/>
    </contour>
    <contour>
      <point x="309" y="8" type="move" name="bottom"/>
    </contour>
  </outline>
</glyph>
<glyph name="b" format="1">
  <advance width="714"/>
  <unicode hex="0062"/>
  <outline>
    <contour>
      <point x="473" y="-9"/>
      <point x="630" y="130"/>
      <point x="653" y="296" type="curve" smooth="yes"/>
      <point x="678" y="468"/>
      <point x="555" y="611"/>
      <point x="383" y="611" type="curve" smooth="yes"/>
      <point x="281" y="611"/>
      <point x="184" y="561"/>
      <point x="116" y="482" type="curve"/>
      <point x="236" y="384" type="line"/>
      <point x="271" y="426"/>
      <point x="320" y="451"/>
      <point x="370" y="451" type="curve" smooth="yes"/>
      <point x="449" y="451"/>
      <point x="506" y="384"/>
      <point x="495" y="306" type="curve" smooth="yes"/>
      <point x="483" y="222"/>
      <point x="402" y="151"/>
      <point x="318" y="151" type="curve" smooth="yes"/>
      <point x="275" y="151"/>
      <point x="236" y="171"/>
      <point x="212" y="208" type="curve"/>
      <point x="216" y="187"/>
      <point x="216" y="164"/>
      <point x="218" y="141" type="curve"/>
      <point x="310" y="800" type="line"/>
      <point x="150" y="800" type="line"/>
      <point x="64" y="186" type="line" smooth="yes"/>
      <point x="60" y="154"/>
      <point x="63" y="129"/>
      <point x="82" y="107" type="curve" smooth="yes"/>
      <point x="129" y="38"/>
      <point x="208" y="-9"/>
      <point x="305" y="-9" type="curve" smooth="yes"/>
    </contour>
  </outline>
</glyph>
<glyph name="c" format="1">
  <advance width="718"/>
  <unicode hex="0063"/>
  <outline>
    <contour>
      <point x="487" y="227" type="line"/>
      <point x="455" y="181"/>
      <point x="401" y="151"/>
      <point x="344" y="151" type="curve" smooth="yes"/>
      <point x="264" y="151"/>
      <point x="208" y="216"/>
      <point x="219" y="296" type="curve" smooth="yes"/>
      <point x="231" y="381"/>
      <point x="310" y="450"/>
      <point x="396" y="450" type="curve" smooth="yes"/>
      <point x="447" y="450"/>
      <point x="492" y="424"/>
      <point x="511" y="379" type="curve"/>
      <point x="659" y="454" type="line"/>
      <point x="619" y="547"/>
      <point x="525" y="610"/>
      <point x="409" y="610" type="curve" smooth="yes"/>
      <point x="240" y="610"/>
      <point x="85" y="474"/>
      <point x="61" y="306" type="curve" smooth="yes"/>
      <point x="36" y="132"/>
      <point x="158" y="-9"/>
      <point x="331" y="-9" type="curve" smooth="yes"/>
      <point x="443" y="-9"/>
      <point x="551" y="51"/>
      <point x="617" y="143" type="curve"/>
    </contour>
    <contour>
      <point x="312" y="-24" type="move" name="bottom"/>
    </contour>
    <contour>
      <point x="435" y="759" type="move" name="accent"/>
    </contour>
  </outline>
</glyph>
<glyph name="d" format="1">
  <advance width="714"/>
  <unicode hex="0064"/>
  <outline>
    <contour>
      <point x="424" y="-9"/>
      <point x="514" y="34"/>
      <point x="583" y="99" type="curve" smooth="yes"/>
      <point x="606" y="125"/>
      <point x="613" y="150"/>
      <point x="617" y="182" type="curve" smooth="yes"/>
      <point x="704" y="800" type="line"/>
      <point x="544" y="800" type="line"/>
      <point x="452" y="137" type="line"/>
      <point x="460" y="160"/>
      <point x="467" y="183"/>
      <point x="474" y="207" type="curve"/>
      <point x="439" y="175"/>
      <point x="393" y="151"/>
      <point x="344" y="151" type="curve" smooth="yes"/>
      <point x="266" y="151"/>
      <point x="208" y="218"/>
      <point x="219" y="296" type="curve" smooth="yes"/>
      <point x="231" y="380"/>
      <point x="313" y="451"/>
      <point x="396" y="451" type="curve" smooth="yes"/>
      <point x="442" y="451"/>
      <point x="482" y="430"/>
      <point x="506" y="388" type="curve"/>
      <point x="646" y="478" type="line"/>
      <point x="600" y="557"/>
      <point x="515" y="611"/>
      <point x="409" y="611" type="curve" smooth="yes"/>
      <point x="241" y="611"/>
      <point x="84" y="472"/>
      <point x="61" y="306" type="curve" smooth="yes"/>
      <point x="37" y="134"/>
      <point x="159" y="-9"/>
      <point x="331" y="-9" type="curve" smooth="yes"/>
    </contour>
    <contour>
      <point x="781" y="700" type="move" name="accentside"/>
    </contour>
    <contour>
      <point x="606" y="701" type="move" name="bar"/>
    </contour>
  </outline>
</glyph>
<glyph name="e" format="1">
  <advance width="739"/>
  <unicode hex="0065"/>
  <outline>
    <contour>
      <point x="440" y="-8"/>
      <point x="548" y="49"/>
      <point x="618" y="145" type="curve"/>
      <point x="463" y="191" type="line"/>
      <point x="430" y="164"/>
      <point x="385" y="144"/>
      <point x="341" y="144" type="curve" smooth="yes"/>
      <point x="261" y="144"/>
      <point x="202" y="219"/>
      <point x="212" y="296" type="curve" smooth="yes"/>
      <point x="224" y="381"/>
      <point x="311" y="457"/>
      <point x="397" y="457" type="curve" smooth="yes"/>
      <point x="477" y="456"/>
      <point x="538" y="385"/>
      <point x="526" y="300" type="curve"/>
      <point x="533" y="347"/>
      <point x="568" y="350"/>
      <point x="618" y="350" type="curve"/>
      <point x="179" y="351" type="line"/>
      <point x="162" y="231" type="line"/>
      <point x="602" y="230" type="line" smooth="yes"/>
      <point x="641" y="230"/>
      <point x="673" y="259"/>
      <point x="678" y="295" type="curve" smooth="yes"/>
      <point x="703" y="469"/>
      <point x="582" y="609"/>
      <point x="409" y="610" type="curve" smooth="yes"/>
      <point x="240" y="610"/>
      <point x="85" y="474"/>
      <point x="61" y="306" type="curve" smooth="yes"/>
      <point x="36" y="132"/>
      <point x="158" y="-9"/>
      <point x="331" y="-9" type="curve" smooth="yes"/>
    </contour>
    <contour>
      <point x="304" y="-167" type="move" name="below"/>
    </contour>
    <contour>
      <point x="435" y="759" type="move" name="accent"/>
    </contour>
    <contour>
      <point x="464" y="969" type="move" name="above"/>
    </contour>
    <contour>
      <point x="304" y="-1" type="move" name="bottom"/>
    </contour>
  </outline>
</glyph>
<glyph name="f" format="1">
  <advance width="566"/>
  <unicode hex="0066"/>
  <outline>
    <contour>
      <point x="198" y="0" type="line"/>
      <point x="257" y="422" type="line" smooth="yes"/>
      <point x="268" y="497"/>
      <point x="340" y="560"/>
      <point x="417" y="560" type="curve" smooth="yes"/>
      <point x="435" y="560"/>
      <point x="448" y="559"/>
      <point x="464" y="552" type="curve"/>
      <point x="540" y="698" type="line"/>
      <point x="509" y="711"/>
      <point x="469" y="720"/>
      <point x="430" y="720" type="curve" smooth="yes"/>
      <point x="270" y="720"/>
      <point x="121" y="589"/>
      <point x="98" y="426" type="curve" smooth="yes"/>
      <point x="38" y="0" type="line"/>
    </contour>
    <contour>
      <point x="408" y="220" type="line"/>
      <point x="430" y="380" type="line"/>
      <point x="163" y="380" type="line"/>
      <point x="141" y="220" type="line"/>
    </contour>
  </outline>
</glyph>
<glyph name="g" format="1">
  <advance width="714"/>
  <unicode hex="0067"/>
  <outline>
    <contour>
      <point x="372" y="-230" type="line" smooth="yes"/>
      <point x="477" y="-230"/>
      <point x="571" y="-147"/>
      <point x="586" y="-42" type="curve" smooth="yes"/>
      <point x="650" y="414" type="line" smooth="yes"/>
      <point x="654" y="446"/>
      <point x="651" y="471"/>
      <point x="632" y="493" type="curve" smooth="yes"/>
      <point x="587" y="563"/>
      <point x="506" y="609"/>
      <point x="409" y="609" type="curve" smooth="yes"/>
      <point x="241" y="609"/>
      <point x="84" y="470"/>
      <point x="61" y="304" type="curve" smooth="yes"/>
      <point x="36" y="132"/>
      <point x="159" y="-11"/>
      <point x="331" y="-11" type="curve" smooth="yes"/>
      <point x="433" y="-11"/>
      <point x="530" y="39"/>
      <point x="598" y="118" type="curve"/>
      <point x="478" y="216" type="line"/>
      <point x="443" y="174"/>
      <point x="394" y="149"/>
      <point x="344" y="149" type="curve" smooth="yes"/>
      <point x="265" y="149"/>
      <point x="208" y="216"/>
      <point x="219" y="294" type="curve" smooth="yes"/>
      <point x="231" y="378"/>
      <point x="312" y="449"/>
      <point x="396" y="449" type="curve" smooth="yes"/>
      <point x="439" y="449"/>
      <point x="478" y="429"/>
      <point x="502" y="392" type="curve"/>
      <point x="498" y="413"/>
      <point x="498" y="436"/>
      <point x="496" y="459" type="curve"/>
      <point x="427" y="-38" type="line" smooth="yes"/>
      <point x="424" y="-55"/>
      <point x="407" y="-70"/>
      <point x="390" y="-70" type="curve" smooth="yes"/>
      <point x="98" y="-70" type="line"/>
      <point x="76" y="-230" type="line"/>
    </contour>
    <contour>
      <point x="435" y="759" type="move" name="accent"/>
    </contour>
  </outline>
</glyph>
<glyph name="h" format="1">
  <advance width="734"/>
  <unicode hex="0068"/>
  <outline>
    <contour>
      <point x="612" y="0" type="line"/>
      <point x="654" y="299" type="line" smooth="yes"/>
      <point x="678" y="468"/>
      <point x="555" y="611"/>
      <point x="383" y="611" type="curve" smooth="yes"/>
      <point x="281" y="611"/>
      <point x="184" y="561"/>
      <point x="116" y="482" type="curve"/>
      <point x="236" y="384" type="line"/>
      <point x="271" y="426"/>
      <point x="320" y="451"/>
      <point x="370" y="451" type="curve" smooth="yes"/>
      <point x="449" y="451"/>
      <point x="506" y="384"/>
      <point x="494" y="303" type="curve" smooth="yes"/>
      <point x="452" y="0" type="line"/>
    </contour>
    <contour>
      <point x="198" y="0" type="line"/>
      <point x="310" y="800" type="line"/>
      <point x="150" y="800" type="line"/>
      <point x="38" y="0" type="line"/>
    </contour>
    <contour>
      <point x="216" y="701" type="move" name="bar"/>
    </contour>
  </outline>
</glyph>
<glyph name="k" format="1">
  <advance width="759"/>
  <unicode hex="006B"/>
  <outline>
    <contour>
      <point x="656" y="0" type="line"/>
      <point x="428" y="377" type="line"/>
      <point x="438" y="362"/>
      <point x="439" y="341"/>
      <point x="437" y="329" type="curve" smooth="yes"/>
      <point x="434" y="309"/>
      <point x="426" y="292"/>
      <point x="416" y="279" type="curve"/>
      <point x="667" y="600" type="line"/>
      <point x="476" y="600" type="line"/>
      <point x="292" y="365" type="line" smooth="yes"/>
      <point x="283" y="352"/>
      <point x="278" y="338"/>
      <point x="277" y="329" type="curve" smooth="yes"/>
      <point x="274" y="310"/>
      <point x="279" y="296"/>
      <point x="288" y="281" type="curve" smooth="yes"/>
      <point x="458" y="0" type="line"/>
    </contour>
    <contour>
      <point x="198" y="0" type="line"/>
      <point x="310" y="800" type="line"/>
      <point x="150" y="800" type="line"/>
      <point x="38" y="0" type="line"/>
    </contour>
    <contour>
      <point x="495" y="759" type="move" name="accent"/>
    </contour>
  </outline>
</glyph>
<glyph name="l" format="1">
  <advance width="320"/>
  <unicode hex="006C"/>
  <outline>
    <contour>
      <point x="38" y="0" type="line"/>
      <point x="198" y="0" type="line"/>
      <point x="310" y="800" type="line"/>
      <point x="150" y="800" type="line"/>
    </contour>
    <contour>
      <point x="174" y="400" type="move" name="slash"/>
    </contour>
    <contour>
      <point x="254" y="969" type="move" name="accent"/>
    </contour>
  </outline>
</glyph>
<glyph name="m" format="1">
  <advance width="892"/>
  <unicode hex="006D"/>
  <outline>
    <contour>
      <point x="770" y="0" type="line"/>
      <point x="824" y="386" type="line" smooth="yes"/>
      <point x="841" y="509"/>
      <point x="753" y="610"/>
      <point x="628" y="610" type="curve" smooth="yes"/>
      <point x="508" y="610"/>
      <point x="396" y="513"/>
      <point x="379" y="390" type="curve"/>
      <point x="538" y="386" type="line"/>
      <point x="543" y="420"/>
      <point x="577" y="450"/>
      <point x="615" y="450" type="curve" smooth="yes"/>
      <point x="647" y="450"/>
      <point x="669" y="424"/>
      <point x="665" y="390" type="curve" smooth="yes"/>
      <point x="610" y="0" type="line"/>
    </contour>
    <contour>
      <point x="198" y="0" type="line"/>
      <point x="252" y="386" type="line" smooth="yes"/>
      <point x="257" y="420"/>
      <point x="291" y="450"/>
      <point x="329" y="450" type="curve" smooth="yes"/>
      <point x="361" y="450"/>
      <point x="383" y="424"/>
      <point x="379" y="390" type="curve" smooth="yes"/>
      <point x="324" y="0" type="line"/>
      <point x="484" y="0" type="line"/>
      <point x="538" y="386" type="line" smooth="yes"/>
      <point x="555" y="509"/>
      <point x="467" y="610"/>
      <point x="342" y="610" type="curve" smooth="yes"/>
      <point x="222" y="610"/>
      <point x="110" y="513"/>
      <point x="93" y="390" type="curve" smooth="yes"/>
      <point x="38" y="0" type="line"/>
    </contour>
  </outline>
</glyph>
<glyph name="n" format="1">
  <advance width="734"/>
  <unicode hex="006E"/>
  <outline>
    <contour>
      <point x="198" y="0" type="line"/>
      <point x="263" y="472" type="line"/>
      <point x="248" y="439"/>
      <point x="233" y="406"/>
      <point x="219" y="371" type="curve"/>
      <point x="275" y="433"/>
      <point x="324" y="451"/>
      <point x="370" y="451" type="curve" smooth="yes"/>
      <point x="449" y="451"/>
      <point x="506" y="384"/>
      <point x="494" y="303" type="curve" smooth="yes"/>
      <point x="452" y="0" type="line"/>
      <point x="612" y="0" type="line"/>
      <point x="654" y="299" type="line" smooth="yes"/>
      <point x="678" y="468"/>
      <point x="555" y="611"/>
      <point x="383" y="611" type="curve" smooth="yes"/>
      <point x="290" y="611"/>
      <point x="199" y="569"/>
      <point x="132" y="503" type="curve" smooth="yes"/>
      <point x="110" y="477"/>
      <point x="101" y="452"/>
      <point x="97" y="420" type="curve" smooth="yes"/>
      <point x="38" y="0" type="line"/>
    </contour>
    <contour>
      <point x="409" y="759" type="move" name="accent"/>
    </contour>
  </outline>
</glyph>
<glyph name="o" format="1">
  <advance width="741"/>
  <unicode hex="006F"/>
  <outline>
    <contour>
      <point x="477" y="451"/>
      <point x="533" y="385"/>
      <point x="522" y="306" type="curve" smooth="yes"/>
      <point x="510" y="220"/>
      <point x="430" y="151"/>
      <point x="344" y="151" type="curve" smooth="yes"/>
      <point x="264" y="151"/>
      <point x="208" y="216"/>
      <point x="219" y="296" type="curve" smooth="yes"/>
      <point x="231" y="382"/>
      <point x="311" y="451"/>
      <point x="396" y="451" type="curve" smooth="yes"/>
    </contour>
    <contour>
      <point x="240" y="611"/>
      <point x="85" y="474"/>
      <point x="61" y="306" type="curve" smooth="yes"/>
      <point x="36" y="132"/>
      <point x="158" y="-9"/>
      <point x="331" y="-9" type="curve" smooth="yes"/>
      <point x="501" y="-9"/>
      <point x="657" y="128"/>
      <point x="680" y="296" type="curve" smooth="yes"/>
      <point x="705" y="470"/>
      <point x="582" y="611"/>
      <point x="409" y="611" type="curve" smooth="yes"/>
    </contour>
    <contour>
      <point x="304" y="-167" type="move" name="below"/>
    </contour>
    <contour>
      <point x="436" y="759" type="move" name="accent"/>
    </contour>
    <contour>
      <point x="464" y="969" type="move" name="above"/>
    </contour>
    <contour>
      <point x="370" y="301" type="move" name="slash"/>
    </contour>
    <contour>
      <point x="307" y="-1" type="move" name="bottom"/>
    </contour>
  </outline>
</glyph>
<glyph name="p" format="1">
  <advance width="714"/>
  <unicode hex="0070"/>
  <outline>
    <contour>
      <point x="290" y="609"/>
      <point x="200" y="566"/>
      <point x="131" y="501" type="curve" smooth="yes"/>
      <point x="108" y="475"/>
      <point x="101" y="450"/>
      <point x="97" y="418" type="curve" smooth="yes"/>
      <point x="10" y="-200" type="line"/>
      <point x="170" y="-200" type="line"/>
      <point x="262" y="463" type="line"/>
      <point x="254" y="440"/>
      <point x="247" y="417"/>
      <point x="240" y="393" type="curve"/>
      <point x="275" y="425"/>
      <point x="321" y="449"/>
      <point x="370" y="449" type="curve" smooth="yes"/>
      <point x="448" y="449"/>
      <point x="506" y="382"/>
      <point x="495" y="304" type="curve" smooth="yes"/>
      <point x="483" y="220"/>
      <point x="401" y="149"/>
      <point x="318" y="149" type="curve" smooth="yes"/>
      <point x="272" y="149"/>
      <point x="232" y="170"/>
      <point x="208" y="212" type="curve"/>
      <point x="68" y="122" type="line"/>
      <point x="114" y="43"/>
      <point x="199" y="-11"/>
      <point x="305" y="-11" type="curve" smooth="yes"/>
      <point x="473" y="-11"/>
      <point x="630" y="128"/>
      <point x="653" y="294" type="curve" smooth="yes"/>
      <point x="677" y="466"/>
      <point x="555" y="609"/>
      <point x="383" y="609" type="curve" smooth="yes"/>
    </contour>
  </outline>
</glyph>
<glyph name="r" format="1">
  <advance width="560"/>
  <unicode hex="0072"/>
  <outline>
    <contour>
      <point x="198" y="0" type="line"/>
      <point x="256" y="416" type="line" smooth="yes"/>
      <point x="260" y="440"/>
      <point x="259" y="417"/>
      <point x="243" y="396" type="curve"/>
      <point x="278" y="429"/>
      <point x="324" y="451"/>
      <point x="370" y="451" type="curve" smooth="yes"/>
      <point x="395" y="451"/>
      <point x="417" y="446"/>
      <point x="439" y="431" type="curve"/>
      <point x="536" y="567" type="line"/>
      <point x="493" y="594"/>
      <point x="442" y="611"/>
      <point x="383" y="611" type="curve" smooth="yes"/>
      <point x="290" y="611"/>
      <point x="199" y="569"/>
      <point x="132" y="503" type="curve" smooth="yes"/>
      <point x="110" y="477"/>
      <point x="101" y="452"/>
      <point x="97" y="420" type="curve" smooth="yes"/>
      <point x="38" y="0" type="line"/>
    </contour>
    <contour>
      <point x="349" y="759" type="move" name="accent"/>
    </contour>
  </outline>
</glyph>
<glyph name="s" format="1">
  <advance width="650"/>
  <unicode hex="0073"/>
  <outline>
    <contour>
      <point x="360" y="0" type="line" smooth="yes"/>
      <point x="465" y="0"/>
      <point x="559" y="83"/>
      <point x="574" y="185" type="curve" smooth="yes"/>
      <point x="589" y="293"/>
      <point x="515" y="380"/>
      <point x="409" y="380" type="curve" smooth="yes"/>
      <point x="279" y="380" type="line" smooth="yes"/>
      <point x="262" y="380"/>
      <point x="253" y="391"/>
      <point x="255" y="405" type="curve" smooth="yes"/>
      <point x="258" y="425"/>
      <point x="275" y="440"/>
      <point x="292" y="440" type="curve" smooth="yes"/>
      <point x="555" y="440" type="line"/>
      <point x="577" y="600" type="line"/>
      <point x="310" y="600" type="line" smooth="yes"/>
      <point x="205" y="600"/>
      <point x="111" y="517"/>
      <point x="96" y="415" type="curve" smooth="yes"/>
      <point x="81" y="307"/>
      <point x="155" y="220"/>
      <point x="261" y="220" type="curve" smooth="yes"/>
      <point x="391" y="220" type="line" smooth="yes"/>
      <point x="408" y="220"/>
      <point x="417" y="209"/>
      <point x="415" y="195" type="curve" smooth="yes"/>
      <point x="412" y="175"/>
      <point x="395" y="160"/>
      <point x="378" y="160" type="curve" smooth="yes"/>
      <point x="75" y="160" type="line"/>
      <point x="53" y="0" type="line"/>
    </contour>
    <contour>
      <point x="297" y="8" type="move" name="bottom"/>
    </contour>
    <contour>
      <point x="403" y="759" type="move" name="accent"/>
    </contour>
  </outline>
</glyph>
<glyph name="t" format="1">
  <advance width="530"/>
  <unicode hex="0074"/>
  <outline>
    <contour>
      <point x="408" y="0" type="line"/>
      <point x="430" y="160" type="line"/>
      <point x="248" y="160" type="line" smooth="yes"/>
      <point x="231" y="160"/>
      <point x="222" y="171"/>
      <point x="224" y="188" type="curve" smooth="yes"/>
      <point x="296" y="700" type="line"/>
      <point x="136" y="700" type="line"/>
      <point x="65" y="192" type="line" smooth="yes"/>
      <point x="50" y="87"/>
      <point x="125" y="0"/>
      <point x="230" y="0" type="curve" smooth="yes"/>
    </contour>
    <contour>
      <point x="470" y="440" type="line"/>
      <point x="492" y="600" type="line"/>
      <point x="197" y="600" type="line"/>
      <point x="175" y="440" type="line"/>
    </contour>
    <contour>
      <point x="157" y="297" type="move" name="bar"/>
    </contour>
    <contour>
      <point x="243" y="8" type="move" name="bottom"/>
    </contour>
    <contour>
      <point x="341" y="849" type="move" name="accent"/>
    </contour>
  </outline>
</glyph>
<glyph name="u" format="1">
  <advance width="732"/>
  <unicode hex="0075"/>
  <outline>
    <contour>
      <point x="483" y="-9"/>
      <point x="626" y="117"/>
      <point x="648" y="275" type="curve" smooth="yes"/>
      <point x="694" y="600" type="line"/>
      <point x="534" y="600" type="line"/>
      <point x="489" y="279" type="line" smooth="yes"/>
      <point x="479" y="209"/>
      <point x="413" y="151"/>
      <point x="340" y="151" type="curve" smooth="yes"/>
      <point x="273" y="151"/>
      <point x="227" y="205"/>
      <point x="236" y="275" type="curve" smooth="yes"/>
      <point x="282" y="600" type="line"/>
      <point x="122" y="600" type="line"/>
      <point x="77" y="279" type="line" smooth="yes"/>
      <point x="55" y="121"/>
      <point x="167" y="-9"/>
      <point x="327" y="-9" type="curve" smooth="yes"/>
    </contour>
    <contour>
      <point x="300" y="-167" type="move" name="below"/>
    </contour>
    <contour>
      <point x="431" y="759" type="move" name="accent"/>
    </contour>
    <contour>
      <point x="460" y="969" type="move" name="above"/>
    </contour>
    <contour>
      <point x="304" y="0" type="move" name="bottom"/>
    </contour>
  </outline>
</glyph>
<glyph name="v" format="1">
  <advance width="705"/>
  <unicode hex="0076"/>
  <outline>
    <contour>
      <point x="360" y="-10"/>
      <point x="411" y="19"/>
      <point x="443" y="80" type="curve" smooth="yes"/>
      <point x="708" y="600" type="line"/>
      <point x="535" y="600" type="line"/>
      <point x="302" y="137" type="line"/>
      <point x="302" y="137"/>
      <point x="317" y="138"/>
      <point x="333" y="138" type="curve" smooth="yes"/>
      <point x="346" y="138"/>
      <point x="359" y="140"/>
      <point x="358" y="139" type="curve"/>
      <point x="251" y="600" type="line"/>
      <point x="83" y="600" type="line"/>
      <point x="202" y="84" type="line" smooth="yes"/>
      <point x="216" y="23"/>
      <point x="262" y="-10"/>
      <point x="313" y="-10" type="curve" smooth="yes"/>
    </contour>
  </outline>
</glyph>
<glyph name="w" format="1">
  <advance width="892"/>
  <unicode hex="0077"/>
  <outline>
    <contour>
      <point x="640" y="214" type="line" smooth="yes"/>
      <point x="635" y="180"/>
      <point x="601" y="150"/>
      <point x="563" y="150" type="curve" smooth="yes"/>
      <point x="531" y="150"/>
      <point x="509" y="176"/>
      <point x="513" y="210" type="curve"/>
      <point x="354" y="214" type="line"/>
      <point x="337" y="91"/>
      <point x="426" y="-10"/>
      <point x="550" y="-10" type="curve" smooth="yes"/>
      <point x="671" y="-10"/>
      <point x="782" y="87"/>
      <point x="799" y="210" type="curve" smooth="yes"/>
      <point x="854" y="600" type="line"/>
      <point x="694" y="600" type="line"/>
    </contour>
    <contour>
      <point x="68" y="214" type="line" smooth="yes"/>
      <point x="51" y="91"/>
      <point x="140" y="-10"/>
      <point x="264" y="-10" type="curve" smooth="yes"/>
      <point x="385" y="-10"/>
      <point x="496" y="87"/>
      <point x="513" y="210" type="curve" smooth="yes"/>
      <point x="568" y="600" type="line"/>
      <point x="408" y="600" type="line"/>
      <point x="354" y="214" type="line" smooth="yes"/>
      <point x="349" y="180"/>
      <point x="315" y="150"/>
      <point x="277" y="150" type="curve" smooth="yes"/>
      <point x="245" y="150"/>
      <point x="223" y="176"/>
      <point x="227" y="210" type="curve" smooth="yes"/>
      <point x="282" y="600" type="line"/>
      <point x="122" y="600" type="line"/>
    </contour>
    <contour>
      <point x="511" y="759" type="move" name="accent"/>
    </contour>
  </outline>
</glyph>
<glyph name="x" format="1">
  <advance width="803"/>
  <unicode hex="0078"/>
  <outline>
    <contour>
      <point x="680" y="-2" type="line"/>
      <point x="692" y="85"/>
      <point x="663" y="168"/>
      <point x="603" y="223" type="curve" smooth="yes"/>
      <point x="313" y="495" type="line" smooth="yes"/>
      <point x="287" y="521"/>
      <point x="276" y="558"/>
      <point x="282" y="598" type="curve"/>
      <point x="122" y="602" type="line"/>
      <point x="110" y="515"/>
      <point x="139" y="432"/>
      <point x="199" y="377" type="curve" smooth="yes"/>
      <point x="489" y="105" type="line" smooth="yes"/>
      <point x="515" y="79"/>
      <point x="526" y="42"/>
      <point x="520" y="2" type="curve"/>
    </contour>
    <contour>
      <point x="198" y="-2" type="line"/>
      <point x="203" y="38"/>
      <point x="228" y="75"/>
      <point x="262" y="101" type="curve" smooth="yes"/>
      <point x="630" y="372" type="line" smooth="yes"/>
      <point x="704" y="427"/>
      <point x="752" y="510"/>
      <point x="765" y="597" type="curve"/>
      <point x="605" y="601" type="line"/>
      <point x="600" y="561"/>
      <point x="575" y="524"/>
      <point x="541" y="498" type="curve" smooth="yes"/>
      <point x="173" y="227" type="line" smooth="yes"/>
      <point x="99" y="172"/>
      <point x="50" y="89"/>
      <point x="38" y="2" type="curve"/>
    </contour>
  </outline>
</glyph>
<glyph name="y" format="1">
  <advance width="734"/>
  <unicode hex="0079"/>
  <outline>
    <contour>
      <point x="392" y="-230" type="line" smooth="yes"/>
      <point x="497" y="-230"/>
      <point x="591" y="-147"/>
      <point x="606" y="-42" type="curve" smooth="yes"/>
      <point x="696" y="600" type="line"/>
      <point x="536" y="600" type="line"/>
      <point x="447" y="-38" type="line" smooth="yes"/>
      <point x="444" y="-55"/>
      <point x="427" y="-70"/>
      <point x="410" y="-70" type="curve" smooth="yes"/>
      <point x="118" y="-70" type="line"/>
      <point x="96" y="-230" type="line"/>
    </contour>
    <contour>
      <point x="453" y="-11"/>
      <point x="550" y="40"/>
      <point x="618" y="118" type="curve"/>
      <point x="499" y="216" type="line"/>
      <point x="463" y="174"/>
      <point x="414" y="149"/>
      <point x="364" y="149" type="curve" smooth="yes"/>
      <point x="285" y="149"/>
      <point x="228" y="216"/>
      <point x="240" y="297" type="curve" smooth="yes"/>
      <point x="282" y="600" type="line"/>
      <point x="122" y="600" type="line"/>
      <point x="80" y="301" type="line" smooth="yes"/>
      <point x="56" y="132"/>
      <point x="179" y="-11"/>
      <point x="351" y="-11" type="curve" smooth="yes"/>
    </contour>
    <contour>
      <point x="460" y="939" type="move" name="above"/>
    </contour>
    <contour>
      <point x="435" y="759" type="move" name="accent"/>
    </contour>
  </outline>
</glyph>
<glyph name="z" format="1">
  <advance width="777"/>
  <unicode hex="007A"/>
  <outline>
    <contour>
      <point x="655" y="0" type="line"/>
      <point x="677" y="160" type="line"/>
      <point x="159" y="160" type="line"/>
      <point x="198" y="160"/>
      <point x="217" y="129"/>
      <point x="213" y="98" type="curve" smooth="yes"/>
      <point x="210" y="78"/>
      <point x="199" y="62"/>
      <point x="182" y="48" type="curve"/>
      <point x="685" y="432" type="line" smooth="yes"/>
      <point x="710" y="452"/>
      <point x="722" y="478"/>
      <point x="725" y="500" type="curve" smooth="yes"/>
      <point x="732" y="552"/>
      <point x="699" y="600"/>
      <point x="641" y="600" type="curve" smooth="yes"/>
      <point x="142" y="600" type="line"/>
      <point x="120" y="440" type="line"/>
      <point x="618" y="440" type="line"/>
      <point x="579" y="440"/>
      <point x="560" y="471"/>
      <point x="564" y="502" type="curve" smooth="yes"/>
      <point x="567" y="521"/>
      <point x="578" y="538"/>
      <point x="594" y="551" type="curve"/>
      <point x="92" y="168" type="line" smooth="yes"/>
      <point x="67" y="148"/>
      <point x="55" y="122"/>
      <point x="52" y="100" type="curve" smooth="yes"/>
      <point x="45" y="48"/>
      <point x="78" y="0"/>
      <point x="136" y="0" type="curve" smooth="yes"/>
    </contour>
    <contour>
      <point x="469" y="759" type="move" name="accent"/>
    </contour>
  </outline>
</glyph>
<glyph name="braceleft" format="1">
  <advance width="482"/>
  <unicode hex="007B"/>
  <outline>
    <contour>
      <point x="256" y="312"/>
      <point x="340" y="385"/>
      <point x="353" y="479" type="curve" smooth="yes"/>
      <point x="376" y="645" type="line" smooth="yes"/>
      <point x="381" y="675"/>
      <point x="414" y="700"/>
      <point x="441" y="700" type="curve"/>
      <point x="453" y="820" type="line"/>
      <point x="341" y="820"/>
      <point x="240" y="741"/>
      <point x="226" y="639" type="curve" smooth="yes"/>
      <point x="204" y="483" type="line" smooth="yes"/>
      <point x="200" y="454"/>
      <point x="179" y="432"/>
      <point x="166" y="432" type="curve"/>
      <point x="154" y="312" type="line"/>
    </contour>
    <contour>
      <point x="338" y="4" type="line"/>
      <point x="311" y="4"/>
      <point x="289" y="25"/>
      <point x="294" y="55" type="curve" smooth="yes"/>
      <point x="317" y="221" type="line" smooth="yes"/>
      <point x="330" y="315"/>
      <point x="263" y="392"/>
      <point x="161" y="392" type="curve"/>
      <point x="148" y="272" type="line"/>
      <point x="161" y="272"/>
      <point x="172" y="254"/>
      <point x="168" y="225" type="curve" smooth="yes"/>
      <point x="146" y="69" type="line" smooth="yes"/>
      <point x="131" y="-33"/>
      <point x="214" y="-116"/>
      <point x="326" y="-116" type="curve"/>
    </contour>
    <contour>
      <point x="96" y="272" type="line"/>
      <point x="146" y="272" type="line"/>
      <point x="169" y="432" type="line"/>
      <point x="119" y="432" type="line"/>
    </contour>
  </outline>
</glyph>
<glyph name="bar" format="1">
  <advance width="320"/>
  <unicode hex="007C"/>
  <outline>
    <contour>
      <point x="40" y="-130" type="line"/>
      <point x="160" y="-130" type="line"/>
      <point x="293" y="820" type="line"/>
      <point x="173" y="820" type="line"/>
    </contour>
  </outline>
</glyph>
<glyph name="braceright" format="1">
  <advance width="482"/>
  <unicode hex="007D"/>
  <outline>
    <contour>
      <point x="348" y="432" type="line"/>
      <point x="335" y="432"/>
      <point x="325" y="450"/>
      <point x="329" y="479" type="curve" smooth="yes"/>
      <point x="351" y="635" type="line" smooth="yes"/>
      <point x="365" y="737"/>
      <point x="283" y="820"/>
      <point x="171" y="820" type="curve"/>
      <point x="159" y="700" type="line"/>
      <point x="186" y="700"/>
      <point x="207" y="679"/>
      <point x="203" y="649" type="curve" smooth="yes"/>
      <point x="180" y="483" type="line" smooth="yes"/>
      <point x="167" y="389"/>
      <point x="234" y="312"/>
      <point x="336" y="312" type="curve"/>
    </contour>
    <contour>
      <point x="156" y="-116"/>
      <point x="257" y="-37"/>
      <point x="271" y="65" type="curve" smooth="yes"/>
      <point x="293" y="221" type="line" smooth="yes"/>
      <point x="297" y="250"/>
      <point x="317" y="272"/>
      <point x="330" y="272" type="curve"/>
      <point x="343" y="392" type="line"/>
      <point x="241" y="392"/>
      <point x="157" y="319"/>
      <point x="144" y="225" type="curve" smooth="yes"/>
      <point x="120" y="59" type="line" smooth="yes"/>
      <point x="116" y="29"/>
      <point x="83" y="4"/>
      <point x="56" y="4" type="curve"/>
      <point x="44" y="-116" type="line"/>
    </contour>
    <contour>
      <point x="351" y="432" type="line"/>
      <point x="328" y="272" type="line"/>
      <point x="378" y="272" type="line"/>
      <point x="401" y="432" type="line"/>
    </contour>
  </outline>
</glyph>
<glyph name="asciitilde" format="1">
  <advance width="625"/>
  <unicode hex="007E"/>
  <outline>
    <contour>
      <point x="433" y="276"/>
      <point x="493" y="307"/>
      <point x="535" y="364" type="curve"/>
      <point x="455" y="438" type="line"/>
      <point x="429" y="414"/>
      <point x="409" y="398"/>
      <point x="382" y="398" type="curve" smooth="yes"/>
      <point x="342" y="398"/>
      <point x="324" y="432"/>
      <point x="262" y="432" type="curve" smooth="yes"/>
      <point x="202" y="432"/>
      <point x="142" y="401"/>
      <point x="105" y="347" type="curve"/>
      <point x="184" y="267" type="line"/>
      <point x="205" y="293"/>
      <point x="225" y="311"/>
      <point x="254" y="311" type="curve" smooth="yes"/>
      <point x="300" y="311"/>
      <point x="302" y="276"/>
      <point x="374" y="276" type="curve" smooth="yes"/>
    </contour>
  </outline>
</glyph>
<glyph name="exclamdown" format="1">
  <advance width="400"/>
  <unicode hex="00A1"/>
  <outline>
    <contour>
      <point x="76" y="-18" type="line"/>
      <point x="236" y="-18" type="line"/>
      <point x="303" y="454" type="line"/>
      <point x="143" y="454" type="line"/>
    </contour>
    <contour>
      <point x="286" y="500"/>
      <point x="334" y="543"/>
      <point x="341" y="595" type="curve" smooth="yes"/>
      <point x="350" y="653"/>
      <point x="310" y="700"/>
      <point x="251" y="700" type="curve" smooth="yes"/>
      <point x="199" y="700"/>
      <point x="150" y="657"/>
      <point x="143" y="605" type="curve" smooth="yes"/>
      <point x="135" y="547"/>
      <point x="175" y="500"/>
      <point x="233" y="500" type="curve" smooth="yes"/>
    </contour>
  </outline>
</glyph>
<glyph name="cent" format="1">
  <advance width="700"/>
  <unicode hex="00A2"/>
  <outline>
    <contour>
      <point x="439" y="84"/>
      <point x="532" y="136"/>
      <point x="589" y="215" type="curve"/>
      <point x="491" y="279" type="line"/>
      <point x="460" y="234"/>
      <point x="405" y="204"/>
      <point x="350" y="204" type="curve" smooth="yes"/>
      <point x="270" y="204"/>
      <point x="215" y="268"/>
      <point x="227" y="347" type="curve" smooth="yes"/>
      <point x="238" y="431"/>
      <point x="316" y="499"/>
      <point x="401" y="499" type="curve" smooth="yes"/>
      <point x="452" y="499"/>
      <point x="495" y="474"/>
      <point x="516" y="427" type="curve"/>
      <point x="625" y="484" type="line"/>
      <point x="589" y="564"/>
      <point x="509" y="619"/>
      <point x="408" y="619" type="curve" smooth="yes"/>
      <point x="262" y="619"/>
      <point x="128" y="502"/>
      <point x="108" y="357" type="curve" smooth="yes"/>
      <point x="87" y="206"/>
      <point x="192" y="84"/>
      <point x="342" y="84" type="curve" smooth="yes"/>
    </contour>
    <contour>
      <point x="382" y="-26" type="line"/>
      <point x="405" y="134" type="line"/>
      <point x="285" y="134" type="line"/>
      <point x="262" y="-26" type="line"/>
    </contour>
    <contour>
      <point x="466" y="569" type="line"/>
      <point x="488" y="729" type="line"/>
      <point x="368" y="729" type="line"/>
      <point x="346" y="569" type="line"/>
    </contour>
  </outline>
</glyph>
<glyph name="sterling" format="1">
  <advance width="630"/>
  <unicode hex="00A3"/>
  <outline>
    <contour>
      <point x="170" y="30"/>
      <point x="265" y="114"/>
      <point x="281" y="220" type="curve" smooth="yes"/>
      <point x="305" y="384" type="line" smooth="yes"/>
      <point x="321" y="491"/>
      <point x="422" y="580"/>
      <point x="530" y="580" type="curve"/>
      <point x="542" y="700" type="line"/>
      <point x="368" y="700"/>
      <point x="211" y="562"/>
      <point x="185" y="388" type="curve" smooth="yes"/>
      <point x="161" y="224" type="line" smooth="yes"/>
      <point x="156" y="184"/>
      <point x="117" y="150"/>
      <point x="77" y="150" type="curve"/>
      <point x="64" y="30" type="line"/>
    </contour>
    <contour>
      <point x="492" y="30" type="line"/>
      <point x="509" y="150" type="line"/>
      <point x="79" y="150" type="line"/>
      <point x="62" y="30" type="line"/>
    </contour>
    <contour>
      <point x="489" y="305" type="line"/>
      <point x="501" y="390" type="line"/>
      <point x="113" y="390" type="line"/>
      <point x="101" y="305" type="line"/>
    </contour>
  </outline>
</glyph>
<glyph name="yen" format="1">
  <advance width="738"/>
  <unicode hex="00A5"/>
  <outline>
    <contour>
      <point x="506" y="309" type="line"/>
      <point x="691" y="670" type="line"/>
      <point x="561" y="670" type="line"/>
      <point x="398" y="353" type="line" smooth="yes"/>
      <point x="391" y="338"/>
      <point x="380" y="330"/>
      <point x="368" y="330" type="curve" smooth="yes"/>
      <point x="363" y="330"/>
      <point x="356" y="335"/>
      <point x="353" y="349" type="curve" smooth="yes"/>
      <point x="280" y="670" type="line"/>
      <point x="153" y="670" type="line"/>
      <point x="236" y="309" type="line"/>
    </contour>
    <contour>
      <point x="384" y="-26" type="line"/>
      <point x="405" y="120" type="line"/>
      <point x="285" y="120" type="line"/>
      <point x="264" y="-26" type="line"/>
    </contour>
    <contour>
      <point x="551" y="104" type="line"/>
      <point x="563" y="189" type="line"/>
      <point x="143" y="189" type="line"/>
      <point x="131" y="104" type="line"/>
    </contour>
    <contour>
      <point x="572" y="249" type="line"/>
      <point x="584" y="334" type="line"/>
      <point x="490" y="334" type="line"/>
      <point x="488" y="319" type="line"/>
      <point x="255" y="319" type="line"/>
      <point x="257" y="334" type="line"/>
      <point x="164" y="334" type="line"/>
      <point x="152" y="249" type="line"/>
    </contour>
  </outline>
</glyph>
<glyph name="brokenbar" format="1">
  <advance width="320"/>
  <unicode hex="00A6"/>
  <outline>
    <contour>
      <point x="241" y="448" type="line"/>
      <point x="293" y="820" type="line"/>
      <point x="173" y="820" type="line"/>
      <point x="121" y="448" type="line"/>
    </contour>
    <contour>
      <point x="160" y="-130" type="line"/>
      <point x="212" y="242" type="line"/>
      <point x="92" y="242" type="line"/>
      <point x="40" y="-130" type="line"/>
    </contour>
  </outline>
</glyph>
<glyph name="section" format="1">
  <advance width="682"/>
  <unicode hex="00A7"/>
  <outline>
    <contour>
      <point x="416" y="196" type="line" smooth="yes"/>
      <point x="500" y="196"/>
      <point x="576" y="263"/>
      <point x="587" y="345" type="curve" smooth="yes"/>
      <point x="600" y="434"/>
      <point x="540" y="504"/>
      <point x="454" y="504" type="curve" smooth="yes"/>
      <point x="280" y="504" type="line" smooth="yes"/>
      <point x="196" y="504"/>
      <point x="120" y="437"/>
      <point x="109" y="355" type="curve" smooth="yes"/>
      <point x="96" y="266"/>
      <point x="156" y="196"/>
      <point x="242" y="196" type="curve" smooth="yes"/>
    </contour>
    <contour>
      <point x="389" y="6" type="line" smooth="yes"/>
      <point x="474" y="6"/>
      <point x="550" y="73"/>
      <point x="562" y="156" type="curve" smooth="yes"/>
      <point x="574" y="244"/>
      <point x="513" y="316"/>
      <point x="428" y="316" type="curve"/>
      <point x="416" y="196" type="line"/>
      <point x="434" y="196"/>
      <point x="445" y="182"/>
      <point x="443" y="166" type="curve" smooth="yes"/>
      <point x="440" y="143"/>
      <point x="420" y="126"/>
      <point x="401" y="126" type="curve" smooth="yes"/>
      <point x="112" y="126" type="line"/>
      <point x="95" y="6" type="line"/>
    </contour>
    <contour>
      <point x="234" y="316"/>
      <point x="225" y="328"/>
      <point x="227" y="345" type="curve" smooth="yes"/>
      <point x="230" y="367"/>
      <point x="250" y="384"/>
      <point x="268" y="384" type="curve" smooth="yes"/>
      <point x="442" y="384" type="line" smooth="yes"/>
      <point x="462" y="384"/>
      <point x="471" y="372"/>
      <point x="469" y="355" type="curve" smooth="yes"/>
      <point x="466" y="333"/>
      <point x="446" y="316"/>
      <point x="428" y="316" type="curve" smooth="yes"/>
      <point x="254" y="316" type="line" smooth="yes"/>
    </contour>
    <contour>
      <point x="280" y="504" type="line"/>
      <point x="262" y="504"/>
      <point x="251" y="518"/>
      <point x="253" y="534" type="curve" smooth="yes"/>
      <point x="256" y="557"/>
      <point x="276" y="574"/>
      <point x="295" y="574" type="curve" smooth="yes"/>
      <point x="585" y="574" type="line"/>
      <point x="601" y="694" type="line"/>
      <point x="307" y="694" type="line" smooth="yes"/>
      <point x="222" y="694"/>
      <point x="146" y="627"/>
      <point x="134" y="544" type="curve" smooth="yes"/>
      <point x="122" y="456"/>
      <point x="183" y="384"/>
      <point x="268" y="384" type="curve"/>
    </contour>
  </outline>
</glyph>
<glyph name="dieresis" format="1">
  <advance width="414"/>
  <unicode hex="00A8"/>
  <outline>
    <contour>
      <point x="196" y="650"/>
      <point x="230" y="680"/>
      <point x="235" y="717" type="curve" smooth="yes"/>
      <point x="240" y="754"/>
      <point x="215" y="784"/>
      <point x="177" y="784" type="curve" smooth="yes"/>
      <point x="140" y="784"/>
      <point x="106" y="754"/>
      <point x="100" y="717" type="curve" smooth="yes"/>
      <point x="94" y="680"/>
      <point x="121" y="650"/>
      <point x="158" y="650" type="curve" smooth="yes"/>
    </contour>
    <contour>
      <point x="393" y="650"/>
      <point x="427" y="680"/>
      <point x="432" y="717" type="curve" smooth="yes"/>
      <point x="437" y="754"/>
      <point x="412" y="784"/>
      <point x="374" y="784" type="curve" smooth="yes"/>
      <point x="337" y="784"/>
      <point x="303" y="754"/>
      <point x="297" y="717" type="curve" smooth="yes"/>
      <point x="291" y="680"/>
      <point x="318" y="650"/>
      <point x="355" y="650" type="curve" smooth="yes"/>
    </contour>
    <contour>
      <point x="266" y="717" type="move" name="_accent"/>
    </contour>
    <contour>
      <point x="207" y="717" type="move" name="_above"/>
    </contour>
  </outline>
</glyph>
<glyph name="copyright" format="1">
  <advance width="911"/>
  <unicode hex="00A9"/>
  <outline>
    <contour>
      <point x="620" y="-25"/>
      <point x="809" y="141"/>
      <point x="837" y="345" type="curve" smooth="yes"/>
      <point x="867" y="555"/>
      <point x="720" y="725"/>
      <point x="510" y="725" type="curve" smooth="yes"/>
      <point x="305" y="725"/>
      <point x="116" y="559"/>
      <point x="88" y="355" type="curve" smooth="yes"/>
      <point x="58" y="145"/>
      <point x="205" y="-25"/>
      <point x="414" y="-25" type="curve" smooth="yes"/>
    </contour>
    <contour>
      <point x="499" y="184"/>
      <point x="555" y="215"/>
      <point x="590" y="264" type="curve"/>
      <point x="520" y="310" type="line"/>
      <point x="503" y="286"/>
      <point x="474" y="269"/>
      <point x="444" y="269" type="curve" smooth="yes"/>
      <point x="401" y="269"/>
      <point x="373" y="302"/>
      <point x="379" y="344" type="curve" smooth="yes"/>
      <point x="386" y="391"/>
      <point x="429" y="428"/>
      <point x="476" y="428" type="curve" smooth="yes"/>
      <point x="502" y="428"/>
      <point x="523" y="416"/>
      <point x="534" y="391" type="curve"/>
      <point x="611" y="429" type="line"/>
      <point x="590" y="479"/>
      <point x="541" y="513"/>
      <point x="478" y="513" type="curve" smooth="yes"/>
      <point x="389" y="513"/>
      <point x="308" y="441"/>
      <point x="296" y="354" type="curve" smooth="yes"/>
      <point x="282" y="260"/>
      <point x="347" y="184"/>
      <point x="441" y="184" type="curve" smooth="yes"/>
    </contour>
    <contour>
      <point x="286" y="99"/>
      <point x="192" y="210"/>
      <point x="211" y="345" type="curve" smooth="yes"/>
      <point x="231" y="486"/>
      <point x="362" y="601"/>
      <point x="502" y="601" type="curve" smooth="yes"/>
      <point x="639" y="601"/>
      <point x="733" y="490"/>
      <point x="714" y="355" type="curve" smooth="yes"/>
      <point x="694" y="214"/>
      <point x="563" y="99"/>
      <point x="422" y="99" type="curve" smooth="yes"/>
    </contour>
  </outline>
</glyph>
<glyph name="guillemetleft" format="1">
  <advance width="804"/>
  <unicode hex="00AB"/>
  <outline>
    <contour>
      <point x="421" y="146" type="line"/>
      <point x="244" y="353" type="line"/>
      <point x="478" y="559" type="line"/>
      <point x="405" y="643" type="line"/>
      <point x="138" y="413" type="line" smooth="yes"/>
      <point x="120" y="396"/>
      <point x="111" y="376"/>
      <point x="108" y="358" type="curve" smooth="yes"/>
      <point x="105" y="335"/>
      <point x="112" y="314"/>
      <point x="126" y="297" type="curve" smooth="yes"/>
      <point x="325" y="62" type="line"/>
    </contour>
    <contour>
      <point x="682" y="146" type="line"/>
      <point x="505" y="353" type="line"/>
      <point x="739" y="559" type="line"/>
      <point x="666" y="643" type="line"/>
      <point x="399" y="413" type="line" smooth="yes"/>
      <point x="381" y="396"/>
      <point x="372" y="376"/>
      <point x="369" y="358" type="curve" smooth="yes"/>
      <point x="366" y="335"/>
      <point x="373" y="314"/>
      <point x="387" y="297" type="curve" smooth="yes"/>
      <point x="586" y="62" type="line"/>
    </contour>
  </outline>
</glyph>
<glyph name="logicalnot" format="1">
  <advance width="660"/>
  <unicode hex="00AC"/>
  <outline>
    <contour>
      <point x="115" y="410" type="line"/>
      <point x="99" y="290" type="line"/>
      <point x="559" y="290" type="line"/>
      <point x="575" y="410" type="line"/>
    </contour>
    <contour>
      <point x="571" y="380" type="line"/>
      <point x="451" y="380" type="line"/>
      <point x="418" y="140" type="line"/>
      <point x="538" y="140" type="line"/>
    </contour>
  </outline>
</glyph>
<glyph name="registered" format="1">
  <advance width="593"/>
  <unicode hex="00AE"/>
  <outline>
    <contour>
      <point x="416" y="363"/>
      <point x="514" y="449"/>
      <point x="529" y="555" type="curve" smooth="yes"/>
      <point x="544" y="666"/>
      <point x="467" y="756"/>
      <point x="356" y="756" type="curve" smooth="yes"/>
      <point x="250" y="756"/>
      <point x="152" y="670"/>
      <point x="137" y="565" type="curve" smooth="yes"/>
      <point x="122" y="453"/>
      <point x="199" y="363"/>
      <point x="311" y="363" type="curve" smooth="yes"/>
    </contour>
    <contour>
      <point x="235" y="422"/>
      <point x="184" y="481"/>
      <point x="195" y="555" type="curve" smooth="yes"/>
      <point x="206" y="634"/>
      <point x="278" y="697"/>
      <point x="358" y="697" type="curve" smooth="yes"/>
      <point x="431" y="697"/>
      <point x="482" y="638"/>
      <point x="471" y="565" type="curve" smooth="yes"/>
      <point x="460" y="485"/>
      <point x="388" y="422"/>
      <point x="309" y="422" type="curve" smooth="yes"/>
    </contour>
    <contour>
      <point x="284" y="476" type="line"/>
      <point x="303" y="614" type="line"/>
      <point x="376" y="614" type="line" smooth="yes"/>
      <point x="384" y="614"/>
      <point x="387" y="609"/>
      <point x="386" y="605" type="curve" smooth="yes"/>
      <point x="386" y="594"/>
      <point x="375" y="586"/>
      <point x="367" y="586" type="curve" smooth="yes"/>
      <point x="357" y="586" type="line" smooth="yes"/>
      <point x="317" y="586"/>
      <point x="293" y="537"/>
      <point x="317" y="508" type="curve" smooth="yes"/>
      <point x="343" y="476" type="line"/>
      <point x="398" y="476" type="line"/>
      <point x="345" y="533" type="line" smooth="yes"/>
      <point x="343" y="537"/>
      <point x="351" y="545"/>
      <point x="356" y="545" type="curve" smooth="yes"/>
      <point x="366" y="545" type="line" smooth="yes"/>
      <point x="397" y="545"/>
      <point x="421" y="567"/>
      <point x="425" y="595" type="curve" smooth="yes"/>
      <point x="430" y="628"/>
      <point x="407" y="655"/>
      <point x="377" y="655" type="curve" smooth="yes"/>
      <point x="307" y="655" type="line" smooth="yes"/>
      <point x="281" y="655"/>
      <point x="267" y="642"/>
      <point x="263" y="616" type="curve" smooth="yes"/>
      <point x="244" y="476" type="line"/>
    </contour>
  </outline>
</glyph>
<glyph name="degree" format="1">
  <advance width="486"/>
  <unicode hex="00B0"/>
  <outline>
    <contour>
      <point x="342" y="433"/>
      <point x="413" y="496"/>
      <point x="424" y="571" type="curve" smooth="yes"/>
      <point x="435" y="652"/>
      <point x="378" y="719"/>
      <point x="297" y="719" type="curve" smooth="yes"/>
      <point x="222" y="719"/>
      <point x="150" y="656"/>
      <point x="139" y="581" type="curve" smooth="yes"/>
      <point x="128" y="500"/>
      <point x="186" y="433"/>
      <point x="266" y="433" type="curve" smooth="yes"/>
    </contour>
    <contour>
      <point x="242" y="521"/>
      <point x="222" y="544"/>
      <point x="226" y="571" type="curve" smooth="yes"/>
      <point x="231" y="604"/>
      <point x="262" y="631"/>
      <point x="294" y="631" type="curve" smooth="yes"/>
      <point x="322" y="631"/>
      <point x="341" y="608"/>
      <point x="337" y="581" type="curve" smooth="yes"/>
      <point x="333" y="548"/>
      <point x="302" y="521"/>
      <point x="269" y="521" type="curve" smooth="yes"/>
    </contour>
  </outline>
</glyph>
<glyph name="plusminus" format="1">
  <advance width="620"/>
  <unicode hex="00B1"/>
  <outline>
    <contour>
      <point x="247" y="280" type="line"/>
      <point x="367" y="280" type="line"/>
      <point x="411" y="590" type="line"/>
      <point x="291" y="590" type="line"/>
    </contour>
    <contour>
      <point x="127" y="495" type="line"/>
      <point x="111" y="375" type="line"/>
      <point x="531" y="375" type="line"/>
      <point x="547" y="495" type="line"/>
    </contour>
    <contour>
      <point x="92" y="240" type="line"/>
      <point x="75" y="120" type="line"/>
      <point x="495" y="120" type="line"/>
      <point x="512" y="240" type="line"/>
    </contour>
  </outline>
</glyph>
<glyph name="acute" format="1">
  <advance width="278"/>
  <unicode hex="00B4"/>
  <outline>
    <contour>
      <point x="50" y="600" type="line"/>
      <point x="154" y="600" type="line"/>
      <point x="218" y="744" type="line"/>
      <point x="114" y="744" type="line"/>
    </contour>
    <contour>
      <point x="103" y="670" type="move" name="_accent"/>
    </contour>
    <contour>
      <point x="103" y="644" type="move" name="_accentside"/>
    </contour>
    <contour>
      <point x="103" y="670" type="move" name="_above"/>
    </contour>
  </outline>
</glyph>
<glyph name="paragraph" format="1">
  <advance width="736"/>
  <unicode hex="00B6"/>
  <outline>
    <contour>
      <point x="328" y="-110" type="line"/>
      <point x="413" y="-110" type="line"/>
      <point x="541" y="800" type="line"/>
      <point x="456" y="800" type="line"/>
    </contour>
    <contour>
      <point x="493" y="-110" type="line"/>
      <point x="578" y="-110" type="line"/>
      <point x="706" y="800" type="line"/>
      <point x="621" y="800" type="line"/>
    </contour>
    <contour>
      <point x="454" y="800" type="line"/>
      <point x="297" y="800"/>
      <point x="153" y="674"/>
      <point x="131" y="519" type="curve" smooth="yes"/>
      <point x="108" y="359"/>
      <point x="221" y="228"/>
      <point x="378" y="228" type="curve"/>
    </contour>
  </outline>
</glyph>
<glyph name="cedilla" format="1">
  <advance width="246"/>
  <unicode hex="00B8"/>
  <outline>
    <contour>
      <point x="-23" y="-190"/>
      <point x="13" y="-206"/>
      <point x="52" y="-206" type="curve" smooth="yes"/>
      <point x="131" y="-206"/>
      <point x="194" y="-143"/>
      <point x="194" y="-63" type="curve" smooth="yes"/>
      <point x="194" y="8"/>
      <point x="139" y="70"/>
      <point x="65" y="77" type="curve"/>
      <point x="57" y="-8" type="line"/>
      <point x="86" y="-10"/>
      <point x="109" y="-35"/>
      <point x="109" y="-63" type="curve" smooth="yes"/>
      <point x="109" y="-96"/>
      <point x="84" y="-121"/>
      <point x="52" y="-121" type="curve" smooth="yes"/>
      <point x="36" y="-121"/>
      <point x="23" y="-115"/>
      <point x="11" y="-103" type="curve"/>
      <point x="-50" y="-162" type="line"/>
    </contour>
    <contour>
      <point x="82" y="-26" type="move" name="_bottom"/>
    </contour>
  </outline>
</glyph>
<glyph name="guillemetright" format="1">
  <advance width="804"/>
  <unicode hex="00BB"/>
  <outline>
    <contour>
      <point x="681" y="293" type="line" smooth="yes"/>
      <point x="699" y="310"/>
      <point x="708" y="331"/>
      <point x="711" y="348" type="curve" smooth="yes"/>
      <point x="714" y="372"/>
      <point x="707" y="392"/>
      <point x="693" y="409" type="curve" smooth="yes"/>
      <point x="493" y="643" type="line"/>
      <point x="398" y="559" type="line"/>
      <point x="574" y="353" type="line"/>
      <point x="339" y="146" type="line"/>
      <point x="415" y="62" type="line"/>
    </contour>
    <contour>
      <point x="420" y="293" type="line" smooth="yes"/>
      <point x="438" y="310"/>
      <point x="447" y="331"/>
      <point x="450" y="348" type="curve" smooth="yes"/>
      <point x="453" y="372"/>
      <point x="446" y="392"/>
      <point x="432" y="409" type="curve" smooth="yes"/>
      <point x="232" y="643" type="line"/>
      <point x="137" y="559" type="line"/>
      <point x="313" y="353" type="line"/>
      <point x="78" y="146" type="line"/>
      <point x="154" y="62" type="line"/>
    </contour>
  </outline>
</glyph>
<glyph name="questiondown" format="1">
  <advance width="571"/>
  <unicode hex="00BF"/>
  <outline>
    <contour>
      <point x="274" y="456" type="line"/>
      <point x="270" y="431"/>
      <point x="244" y="405"/>
      <point x="169" y="341" type="curve" smooth="yes"/>
      <point x="121" y="297"/>
      <point x="92" y="241"/>
      <point x="85" y="195" type="curve" smooth="yes"/>
      <point x="66" y="56"/>
      <point x="162" y="-56"/>
      <point x="300" y="-56" type="curve" smooth="yes"/>
      <point x="380" y="-56"/>
      <point x="462" y="-16"/>
      <point x="518" y="54" type="curve"/>
      <point x="394" y="146" type="line"/>
      <point x="375" y="121"/>
      <point x="344" y="104"/>
      <point x="313" y="104" type="curve" smooth="yes"/>
      <point x="268" y="104"/>
      <point x="238" y="141"/>
      <point x="244" y="185" type="curve" smooth="yes"/>
      <point x="250" y="229"/>
      <point x="286" y="258"/>
      <point x="326" y="289" type="curve" smooth="yes"/>
      <point x="384" y="340"/>
      <point x="427" y="405"/>
      <point x="433" y="452" type="curve"/>
    </contour>
    <contour>
      <point x="420" y="501"/>
      <point x="468" y="544"/>
      <point x="476" y="596" type="curve" smooth="yes"/>
      <point x="484" y="654"/>
      <point x="443" y="701"/>
      <point x="386" y="701" type="curve" smooth="yes"/>
      <point x="332" y="701"/>
      <point x="284" y="658"/>
      <point x="277" y="606" type="curve" smooth="yes"/>
      <point x="269" y="548"/>
      <point x="309" y="501"/>
      <point x="367" y="501" type="curve" smooth="yes"/>
    </contour>
  </outline>
</glyph>
<glyph name="AE" format="1">
  <advance width="1100"/>
  <unicode hex="00C6"/>
  <outline>
    <contour>
      <point x="168" y="0" type="line"/>
      <point x="410" y="519" type="line" smooth="yes"/>
      <point x="415" y="530"/>
      <point x="430" y="540"/>
      <point x="443" y="540" type="curve" smooth="yes"/>
      <point x="1054" y="540" type="line"/>
      <point x="1076" y="700" type="line"/>
      <point x="461" y="700" type="line" smooth="yes"/>
      <point x="380" y="700"/>
      <point x="300" y="653"/>
      <point x="264" y="575" type="curve" smooth="yes"/>
      <point x="-3" y="0" type="line"/>
    </contour>
    <contour>
      <point x="620" y="270" type="line"/>
      <point x="854" y="270" type="line"/>
      <point x="876" y="430" type="line"/>
      <point x="643" y="430" type="line"/>
      <point x="663" y="573" type="line"/>
      <point x="503" y="573" type="line"/>
      <point x="462" y="280" type="line"/>
      <point x="227" y="280" type="line"/>
      <point x="205" y="120" type="line"/>
      <point x="440" y="120" type="line"/>
      <point x="432" y="62" type="line" smooth="yes"/>
      <point x="426" y="23"/>
      <point x="446" y="0"/>
      <point x="485" y="0" type="curve" smooth="yes"/>
      <point x="978" y="0" type="line"/>
      <point x="1000" y="160" type="line"/>
      <point x="604" y="160" type="line"/>
    </contour>
  </outline>
</glyph>
<glyph name="multiply" format="1">
  <advance width="582"/>
  <unicode hex="00D7"/>
  <outline>
    <contour>
      <point x="92" y="244" type="line"/>
      <point x="167" y="159" type="line"/>
      <point x="504" y="456" type="line"/>
      <point x="429" y="541" type="line"/>
    </contour>
    <contour>
      <point x="217" y="541" type="line"/>
      <point x="122" y="456" type="line"/>
      <point x="379" y="159" type="line"/>
      <point x="474" y="244" type="line"/>
    </contour>
  </outline>
</glyph>
<glyph name="Thorn" format="1">
  <advance width="763"/>
  <unicode hex="00DE"/>
  <outline>
    <contour>
      <point x="460" y="130" type="line"/>
      <point x="582" y="130"/>
      <point x="693" y="226"/>
      <point x="709" y="345" type="curve" smooth="yes"/>
      <point x="727" y="470"/>
      <point x="639" y="570"/>
      <point x="517" y="570" type="curve"/>
      <point x="202" y="570" type="line"/>
      <point x="179" y="410" type="line"/>
      <point x="499" y="410" type="line" smooth="yes"/>
      <point x="533" y="410"/>
      <point x="555" y="385"/>
      <point x="551" y="355" type="curve" smooth="yes"/>
      <point x="546" y="319"/>
      <point x="512" y="290"/>
      <point x="478" y="290" type="curve" smooth="yes"/>
      <point x="163" y="290" type="line"/>
      <point x="140" y="130" type="line"/>
    </contour>
    <contour>
      <point x="198" y="0" type="line"/>
      <point x="296" y="700" type="line"/>
      <point x="136" y="700" type="line"/>
      <point x="38" y="0" type="line"/>
    </contour>
  </outline>
</glyph>
<glyph name="germandbls" format="1">
  <advance width="708"/>
  <unicode hex="00DF"/>
  <outline>
    <contour>
      <point x="414" y="0" type="line" smooth="yes"/>
      <point x="521" y="0"/>
      <point x="618" y="85"/>
      <point x="633" y="191" type="curve" smooth="yes"/>
      <point x="648" y="301"/>
      <point x="571" y="390"/>
      <point x="465" y="390" type="curve"/>
      <point x="581" y="642" type="line"/>
      <point x="514" y="685"/>
      <point x="445" y="710"/>
      <point x="369" y="710" type="curve" smooth="yes"/>
      <point x="232" y="710"/>
      <point x="124" y="615"/>
      <point x="108" y="496" type="curve" smooth="yes"/>
      <point x="38" y="0" type="line"/>
      <point x="198" y="0" type="line"/>
      <point x="267" y="492" type="line" smooth="yes"/>
      <point x="271" y="524"/>
      <point x="302" y="549"/>
      <point x="340" y="549" type="curve" smooth="yes"/>
      <point x="348" y="549"/>
      <point x="360" y="548"/>
      <point x="371" y="543" type="curve"/>
      <point x="320" y="440" type="line" smooth="yes"/>
      <point x="310" y="415"/>
      <point x="303" y="391"/>
      <point x="300" y="373" type="curve" smooth="yes"/>
      <point x="294" y="328"/>
      <point x="305" y="294"/>
      <point x="331" y="271" type="curve" smooth="yes"/>
      <point x="354" y="246"/>
      <point x="395" y="230"/>
      <point x="450" y="230" type="curve" smooth="yes"/>
      <point x="464" y="230"/>
      <point x="476" y="217"/>
      <point x="474" y="201" type="curve" smooth="yes"/>
      <point x="471" y="177"/>
      <point x="451" y="160"/>
      <point x="432" y="160" type="curve" smooth="yes"/>
      <point x="310" y="160" type="line"/>
      <point x="288" y="0" type="line"/>
    </contour>
  </outline>
</glyph>
<glyph name="ae" format="1">
  <advance width="1202"/>
  <unicode hex="00E6"/>
  <outline>
    <contour>
      <point x="445" y="0" type="line" smooth="yes"/>
      <point x="522" y="0"/>
      <point x="590" y="60"/>
      <point x="601" y="137" type="curve" smooth="yes"/>
      <point x="639" y="408" type="line"/>
      <point x="654" y="513"/>
      <point x="579" y="600"/>
      <point x="474" y="600" type="curve" smooth="yes"/>
      <point x="182" y="600" type="line"/>
      <point x="160" y="440" type="line"/>
      <point x="456" y="440" type="line" smooth="yes"/>
      <point x="473" y="440"/>
      <point x="482" y="429"/>
      <point x="480" y="412" type="curve" smooth="yes"/>
      <point x="443" y="137" type="line"/>
      <point x="451" y="144"/>
      <point x="458" y="151"/>
      <point x="466" y="158" type="curve"/>
      <point x="228" y="160" type="line" smooth="yes"/>
      <point x="211" y="160"/>
      <point x="202" y="171"/>
      <point x="204" y="185" type="curve" smooth="yes"/>
      <point x="207" y="205"/>
      <point x="224" y="220"/>
      <point x="241" y="220" type="curve" smooth="yes"/>
      <point x="534" y="220" type="line"/>
      <point x="556" y="380" type="line"/>
      <point x="259" y="380" type="line" smooth="yes"/>
      <point x="153" y="380"/>
      <point x="60" y="297"/>
      <point x="45" y="195" type="curve" smooth="yes"/>
      <point x="30" y="87"/>
      <point x="105" y="0"/>
      <point x="210" y="0" type="curve" smooth="yes"/>
    </contour>
    <contour>
      <point x="903" y="-9"/>
      <point x="1011" y="49"/>
      <point x="1081" y="145" type="curve"/>
      <point x="921" y="196" type="line"/>
      <point x="889" y="169"/>
      <point x="849" y="151"/>
      <point x="805" y="151" type="curve" smooth="yes"/>
      <point x="725" y="151"/>
      <point x="672" y="219"/>
      <point x="682" y="296" type="curve" smooth="yes"/>
      <point x="694" y="381"/>
      <point x="773" y="450"/>
      <point x="859" y="450" type="curve" smooth="yes"/>
      <point x="939" y="450"/>
      <point x="994" y="385"/>
      <point x="982" y="300" type="curve"/>
      <point x="989" y="347"/>
      <point x="1031" y="350"/>
      <point x="1081" y="350" type="curve"/>
      <point x="642" y="351" type="line"/>
      <point x="625" y="231" type="line"/>
      <point x="1065" y="230" type="line" smooth="yes"/>
      <point x="1104" y="230"/>
      <point x="1136" y="259"/>
      <point x="1141" y="295" type="curve" smooth="yes"/>
      <point x="1166" y="469"/>
      <point x="1045" y="609"/>
      <point x="872" y="610" type="curve" smooth="yes"/>
      <point x="703" y="611"/>
      <point x="548" y="474"/>
      <point x="524" y="306" type="curve" smooth="yes"/>
      <point x="499" y="132"/>
      <point x="621" y="-9"/>
      <point x="794" y="-9" type="curve" smooth="yes"/>
    </contour>
  </outline>
</glyph>
<glyph name="divide" format="1">
  <advance width="620"/>
  <unicode hex="00F7"/>
  <outline>
    <contour>
      <point x="115" y="410" type="line"/>
      <point x="99" y="290" type="line"/>
      <point x="519" y="290" type="line"/>
      <point x="535" y="410" type="line"/>
    </contour>
    <contour>
      <point x="377" y="450"/>
      <point x="414" y="482"/>
      <point x="419" y="523" type="curve" smooth="yes"/>
      <point x="426" y="570"/>
      <point x="395" y="606"/>
      <point x="348" y="606" type="curve" smooth="yes"/>
      <point x="307" y="606"/>
      <point x="271" y="574"/>
      <point x="265" y="533" type="curve" smooth="yes"/>
      <point x="258" y="486"/>
      <point x="289" y="450"/>
      <point x="336" y="450" type="curve" smooth="yes"/>
    </contour>
    <contour>
      <point x="327" y="94"/>
      <point x="363" y="126"/>
      <point x="369" y="167" type="curve" smooth="yes"/>
      <point x="376" y="214"/>
      <point x="345" y="250"/>
      <point x="298" y="250" type="curve" smooth="yes"/>
      <point x="257" y="250"/>
      <point x="221" y="218"/>
      <point x="215" y="177" type="curve" smooth="yes"/>
      <point x="208" y="130"/>
      <point x="239" y="94"/>
      <point x="286" y="94" type="curve" smooth="yes"/>
    </contour>
  </outline>
</glyph>
<glyph name="thorn" format="1">
  <advance width="714"/>
  <unicode hex="00FE"/>
  <outline>
    <contour>
      <point x="310" y="800" type="line"/>
      <point x="150" y="800" type="line"/>
      <point x="10" y="-200" type="line"/>
      <point x="170" y="-200" type="line"/>
    </contour>
    <contour>
      <point x="483" y="222"/>
      <point x="402" y="151"/>
      <point x="318" y="151" type="curve" smooth="yes"/>
      <point x="273" y="151"/>
      <point x="233" y="172"/>
      <point x="209" y="214" type="curve"/>
      <point x="68" y="124" type="line"/>
      <point x="115" y="45"/>
      <point x="199" y="-9"/>
      <point x="305" y="-9" type="curve" smooth="yes"/>
      <point x="473" y="-9"/>
      <point x="630" y="130"/>
      <point x="653" y="296" type="curve" smooth="yes"/>
      <point x="678" y="468"/>
      <point x="555" y="611"/>
      <point x="383" y="611" type="curve" smooth="yes"/>
      <point x="281" y="611"/>
      <point x="184" y="561"/>
      <point x="116" y="482" type="curve"/>
      <point x="236" y="384" type="line"/>
      <point x="271" y="426"/>
      <point x="320" y="451"/>
      <point x="370" y="451" type="curve" smooth="yes"/>
      <point x="449" y="451"/>
      <point x="506" y="384"/>
      <point x="495" y="306" type="curve" smooth="yes"/>
    </contour>
  </outline>
</glyph>
<glyph name="idotless" format="1">
  <advance width="360"/>
  <unicode hex="0131"/>
  <outline>
    <contour>
      <point x="58" y="0" type="line"/>
      <point x="218" y="0" type="line"/>
      <point x="302" y="600" type="line"/>
      <point x="142" y="600" type="line"/>
    </contour>
    <contour>
      <point x="114" y="-167" type="move" name="below"/>
    </contour>
    <contour>
      <point x="245" y="759" type="move" name="accent"/>
    </contour>
    <contour>
      <point x="274" y="969" type="move" name="above"/>
    </contour>
    <contour>
      <point x="132" y="8" type="move" name="bottom"/>
    </contour>
  </outline>
</glyph>
<glyph name="Eng" format="1">
  <advance width="873"/>
  <unicode hex="014A"/>
  <outline>
    <contour>
      <point x="667" y="-25" type="line"/>
      <point x="690" y="135" type="line"/>
      <point x="577" y="135" type="line"/>
      <point x="564" y="135"/>
      <point x="556" y="141"/>
      <point x="553" y="152" type="curve"/>
      <point x="491" y="594" type="line"/>
      <point x="477" y="669"/>
      <point x="412" y="726"/>
      <point x="326" y="726" type="curve"/>
      <point x="223" y="726"/>
      <point x="128" y="642"/>
      <point x="113" y="537" type="curve"/>
      <point x="38" y="0" type="line"/>
      <point x="198" y="0" type="line"/>
      <point x="273" y="533" type="line"/>
      <point x="275" y="550"/>
      <point x="294" y="566"/>
      <point x="313" y="566" type="curve"/>
      <point x="323" y="566"/>
      <point x="332" y="560"/>
      <point x="335" y="549" type="curve"/>
      <point x="396" y="107" type="line"/>
      <point x="410" y="32"/>
      <point x="476" y="-25"/>
      <point x="560" y="-25" type="curve"/>
    </contour>
    <contour>
      <point x="521" y="-230" type="line" smooth="yes"/>
      <point x="651" y="-230"/>
      <point x="728" y="-162"/>
      <point x="746" y="-32" type="curve" smooth="yes"/>
      <point x="849" y="701" type="line"/>
      <point x="689" y="701" type="line"/>
      <point x="587" y="-28" type="line" smooth="yes"/>
      <point x="584" y="-50"/>
      <point x="561" y="-70"/>
      <point x="539" y="-70" type="curve" smooth="yes"/>
      <point x="432" y="-70" type="line"/>
      <point x="410" y="-230" type="line"/>
    </contour>
    <contour>
      <point x="517" y="869" type="move" name="accent"/>
    </contour>
  </outline>
</glyph>
<glyph name="eng" format="1">
  <advance width="734"/>
  <unicode hex="014B"/>
  <outline>
    <contour>
      <point x="382" y="-230" type="line" smooth="yes"/>
      <point x="512" y="-230"/>
      <point x="589" y="-163"/>
      <point x="607" y="-32" type="curve" smooth="yes"/>
      <point x="654" y="299" type="line" smooth="yes"/>
      <point x="678" y="468"/>
      <point x="555" y="611"/>
      <point x="383" y="611" type="curve" smooth="yes"/>
      <point x="290" y="611"/>
      <point x="199" y="569"/>
      <point x="132" y="503" type="curve" smooth="yes"/>
      <point x="110" y="477"/>
      <point x="101" y="452"/>
      <point x="97" y="420" type="curve" smooth="yes"/>
      <point x="38" y="0" type="line"/>
      <point x="198" y="0" type="line"/>
      <point x="263" y="472" type="line"/>
      <point x="248" y="439"/>
      <point x="233" y="406"/>
      <point x="219" y="371" type="curve"/>
      <point x="275" y="433"/>
      <point x="324" y="451"/>
      <point x="370" y="451" type="curve" smooth="yes"/>
      <point x="449" y="451"/>
      <point x="506" y="384"/>
      <point x="494" y="303" type="curve" smooth="yes"/>
      <point x="448" y="-28" type="line" smooth="yes"/>
      <point x="445" y="-50"/>
      <point x="422" y="-70"/>
      <point x="400" y="-70" type="curve" smooth="yes"/>
      <point x="293" y="-70" type="line"/>
      <point x="271" y="-230" type="line"/>
    </contour>
    <contour>
      <point x="409" y="759" type="move" name="accent"/>
    </contour>
  </outline>
</glyph>
<glyph name="OE" format="1">
  <advance width="1215"/>
  <unicode hex="0152"/>
  <outline>
    <contour>
      <point x="600" y="-25"/>
      <point x="789" y="141"/>
      <point x="817" y="345" type="curve"/>
      <point x="847" y="555"/>
      <point x="700" y="725"/>
      <point x="490" y="725" type="curve"/>
      <point x="285" y="725"/>
      <point x="96" y="559"/>
      <point x="68" y="355" type="curve"/>
      <point x="38" y="145"/>
      <point x="185" y="-25"/>
      <point x="394" y="-25" type="curve"/>
    </contour>
    <contour>
      <point x="291" y="135"/>
      <point x="210" y="229"/>
      <point x="226" y="345" type="curve"/>
      <point x="243" y="467"/>
      <point x="357" y="565"/>
      <point x="477" y="565" type="curve"/>
      <point x="594" y="565"/>
      <point x="675" y="471"/>
      <point x="659" y="355" type="curve"/>
      <point x="642" y="233"/>
      <point x="528" y="135"/>
      <point x="407" y="135" type="curve"/>
    </contour>
    <contour>
      <point x="1093" y="0" type="line"/>
      <point x="1115" y="160" type="line"/>
      <point x="571" y="162" type="line"/>
      <point x="556" y="58"/>
      <point x="606" y="0"/>
      <point x="710" y="0" type="curve" smooth="yes"/>
    </contour>
    <contour>
      <point x="969" y="270" type="line"/>
      <point x="991" y="430" type="line"/>
      <point x="748" y="430" type="line"/>
      <point x="726" y="270" type="line"/>
    </contour>
    <contour>
      <point x="1169" y="540" type="line"/>
      <point x="1191" y="700" type="line"/>
      <point x="804" y="700" type="line" smooth="yes"/>
      <point x="700" y="700"/>
      <point x="639" y="646"/>
      <point x="624" y="542" type="curve"/>
    </contour>
  </outline>
</glyph>
<glyph name="oe" format="1">
  <advance width="1200"/>
  <unicode hex="0153"/>
  <outline>
    <contour>
      <point x="901" y="-9"/>
      <point x="1009" y="49"/>
      <point x="1079" y="145" type="curve"/>
      <point x="919" y="196" type="line"/>
      <point x="887" y="169"/>
      <point x="847" y="151"/>
      <point x="803" y="151" type="curve" smooth="yes"/>
      <point x="723" y="151"/>
      <point x="670" y="219"/>
      <point x="680" y="296" type="curve" smooth="yes"/>
      <point x="692" y="381"/>
      <point x="771" y="450"/>
      <point x="857" y="450" type="curve" smooth="yes"/>
      <point x="937" y="450"/>
      <point x="992" y="385"/>
      <point x="980" y="300" type="curve"/>
      <point x="987" y="347"/>
      <point x="1029" y="350"/>
      <point x="1079" y="350" type="curve"/>
      <point x="640" y="351" type="line"/>
      <point x="623" y="231" type="line"/>
      <point x="1063" y="230" type="line" smooth="yes"/>
      <point x="1102" y="230"/>
      <point x="1134" y="259"/>
      <point x="1139" y="295" type="curve" smooth="yes"/>
      <point x="1164" y="469"/>
      <point x="1043" y="609"/>
      <point x="870" y="610" type="curve" smooth="yes"/>
      <point x="701" y="611"/>
      <point x="546" y="474"/>
      <point x="522" y="306" type="curve" smooth="yes"/>
      <point x="497" y="132"/>
      <point x="619" y="-9"/>
      <point x="792" y="-9" type="curve" smooth="yes"/>
    </contour>
    <contour>
      <point x="477" y="451"/>
      <point x="533" y="385"/>
      <point x="522" y="306" type="curve" smooth="yes"/>
      <point x="510" y="220"/>
      <point x="430" y="151"/>
      <point x="344" y="151" type="curve" smooth="yes"/>
      <point x="264" y="151"/>
      <point x="208" y="216"/>
      <point x="219" y="296" type="curve" smooth="yes"/>
      <point x="231" y="382"/>
      <point x="311" y="451"/>
      <point x="396" y="451" type="curve" smooth="yes"/>
    </contour>
    <contour>
      <point x="240" y="611"/>
      <point x="85" y="474"/>
      <point x="61" y="306" type="curve"/>
      <point x="36" y="132"/>
      <point x="158" y="-9"/>
      <point x="331" y="-9" type="curve"/>
      <point x="501" y="-9"/>
      <point x="657" y="128"/>
      <point x="680" y="296" type="curve"/>
      <point x="705" y="470"/>
      <point x="582" y="611"/>
      <point x="409" y="611" type="curve"/>
    </contour>
    <contour>
      <point x="1096" y="759" type="move" name="accent"/>
    </contour>
  </outline>
</glyph>
<glyph name="jdotless" format="1">
  <advance width="360"/>
  <unicode hex="0237"/>
  <outline>
    <contour>
      <point x="-12" y="-230" type="line" smooth="yes"/>
      <point x="118" y="-230"/>
      <point x="195" y="-162"/>
      <point x="213" y="-32" type="curve" smooth="yes"/>
      <point x="302" y="600" type="line"/>
      <point x="142" y="600" type="line"/>
      <point x="54" y="-28" type="line" smooth="yes"/>
      <point x="51" y="-50"/>
      <point x="28" y="-70"/>
      <point x="6" y="-70" type="curve" smooth="yes"/>
      <point x="-101" y="-70" type="line"/>
      <point x="-123" y="-230" type="line"/>
    </contour>
    <contour>
      <point x="246" y="759" type="move" name="accent"/>
    </contour>
  </outline>
</glyph>
<glyph name="circumflex" format="1">
  <advance width="420"/>
  <unicode hex="02C6"/>
  <outline>
    <component base="caron" yOffset="1382" yScale="-1"/>
    <contour>
      <point x="210" y="687" type="move" name="_accent"/>
    </contour>
    <contour>
      <point x="210" y="687" type="move" name="_above"/>
    </contour>
  </outline>
</glyph>
<glyph name="caron" format="1">
  <advance width="420"/>
  <unicode hex="02C7"/>
  <outline>
    <contour>
      <point x="380" y="764" type="line"/>
      <point x="271" y="764" type="line"/>
      <point x="210" y="706" type="line"/>
      <point x="149" y="764" type="line"/>
      <point x="40" y="764" type="line"/>
      <point x="167" y="637" type="line" smooth="yes"/>
      <point x="192" y="612"/>
      <point x="228" y="612"/>
      <point x="253" y="637" type="curve" smooth="yes"/>
    </contour>
    <contour>
      <point x="210" y="717" type="move" name="_accent"/>
    </contour>
    <contour>
      <point x="210" y="717" type="move" name="_above"/>
    </contour>
  </outline>
</glyph>
<glyph name="breve" format="1">
  <advance width="370"/>
  <unicode hex="02D8"/>
  <outline>
    <contour>
      <point x="265" y="619"/>
      <point x="330" y="683"/>
      <point x="330" y="764" type="curve"/>
      <point x="245" y="764" type="line"/>
      <point x="245" y="731"/>
      <point x="219" y="704"/>
      <point x="185" y="704" type="curve" smooth="yes"/>
      <point x="151" y="704"/>
      <point x="125" y="730"/>
      <point x="125" y="764" type="curve"/>
      <point x="40" y="764" type="line"/>
      <point x="40" y="683"/>
      <point x="104" y="619"/>
      <point x="185" y="619" type="curve" smooth="yes"/>
    </contour>
    <contour>
      <point x="185" y="723" type="move" name="_accent"/>
    </contour>
    <contour>
      <point x="185" y="723" type="move" name="_below"/>
    </contour>
  </outline>
</glyph>
<glyph name="dotaccent" format="1">
  <advance width="260"/>
  <unicode hex="02D9"/>
  <outline>
    <contour>
      <point x="178" y="631"/>
      <point x="216" y="669"/>
      <point x="216" y="717" type="curve" smooth="yes"/>
      <point x="216" y="765"/>
      <point x="178" y="803"/>
      <point x="130" y="803" type="curve" smooth="yes"/>
      <point x="82" y="803"/>
      <point x="44" y="765"/>
      <point x="44" y="717" type="curve" smooth="yes"/>
      <point x="44" y="669"/>
      <point x="82" y="631"/>
      <point x="130" y="631" type="curve" smooth="yes"/>
    </contour>
    <contour>
      <point x="130" y="717" type="move" name="_accent"/>
    </contour>
  </outline>
</glyph>
<glyph name="ring" format="1">
  <advance width="252"/>
  <unicode hex="02DA"/>
  <outline>
    <contour>
      <point x="179" y="605"/>
      <point x="221" y="647"/>
      <point x="221" y="700" type="curve" smooth="yes"/>
      <point x="221" y="753"/>
      <point x="179" y="795"/>
      <point x="126" y="795" type="curve" smooth="yes"/>
      <point x="73" y="795"/>
      <point x="31" y="753"/>
      <point x="31" y="700" type="curve" smooth="yes"/>
      <point x="31" y="647"/>
      <point x="73" y="605"/>
      <point x="126" y="605" type="curve" smooth="yes"/>
    </contour>
    <contour>
      <point x="111" y="673"/>
      <point x="99" y="685"/>
      <point x="99" y="700" type="curve" smooth="yes"/>
      <point x="99" y="715"/>
      <point x="111" y="727"/>
      <point x="126" y="727" type="curve" smooth="yes"/>
      <point x="140" y="727"/>
      <point x="153" y="714"/>
      <point x="153" y="700" type="curve" smooth="yes"/>
      <point x="153" y="685"/>
      <point x="141" y="673"/>
      <point x="126" y="673" type="curve" smooth="yes"/>
    </contour>
    <contour>
      <point x="126" y="700" type="move" name="_accent"/>
    </contour>
  </outline>
</glyph>
<glyph name="tilde" format="1">
  <advance width="600"/>
  <unicode hex="02DC"/>
  <outline>
    <contour>
      <point x="191" y="654"/>
      <point x="216" y="666"/>
      <point x="238" y="666" type="curve" smooth="yes"/>
      <point x="296" y="666"/>
      <point x="315" y="627"/>
      <point x="393" y="627" type="curve" smooth="yes"/>
      <point x="446" y="627"/>
      <point x="502" y="653"/>
      <point x="533" y="693" type="curve"/>
      <point x="455" y="756" type="line"/>
      <point x="441" y="739"/>
      <point x="417" y="727"/>
      <point x="395" y="727" type="curve" smooth="yes"/>
      <point x="340" y="727"/>
      <point x="317" y="765"/>
      <point x="240" y="765" type="curve" smooth="yes"/>
      <point x="191" y="765"/>
      <point x="135" y="740"/>
      <point x="100" y="702" type="curve"/>
      <point x="176" y="636" type="line"/>
    </contour>
    <contour>
      <point x="310" y="700" type="move" name="_accent"/>
    </contour>
  </outline>
</glyph>
<glyph name="hungarumlaut" format="1">
  <advance width="476"/>
  <unicode hex="02DD"/>
  <outline>
    <contour>
      <point x="238" y="600" type="line"/>
      <point x="344" y="599" type="line"/>
      <point x="408" y="743" type="line"/>
      <point x="302" y="744" type="line"/>
    </contour>
    <contour>
      <point x="60" y="600" type="line"/>
      <point x="164" y="600" type="line"/>
      <point x="228" y="744" type="line"/>
      <point x="124" y="744" type="line"/>
    </contour>
    <contour>
      <point x="208" y="680" type="move" name="_accent"/>
    </contour>
  </outline>
</glyph>
<glyph name="gravecomb" format="1">
  <advance width="278"/>
  <unicode hex="0300"/>
  <outline>
    <component base="grave" xOffset="-84" yxScale="0.141"/>
    <contour>
      <point x="175" y="670" type="move" name="_accent"/>
    </contour>
    <contour>
      <point x="175" y="669" type="move" name="_below"/>
    </contour>
    <contour>
      <point x="175" y="670" type="move" name="_above"/>
    </contour>
  </outline>
</glyph>
<glyph name="acutecomb" format="1">
  <advance width="278"/>
  <unicode hex="0301"/>
  <outline>
    <component base="acute" xOffset="-84" yxScale="0.141"/>
    <contour>
      <point x="113" y="670" type="move" name="_accent"/>
    </contour>
    <contour>
      <point x="109" y="645" type="move" name="_accentside"/>
    </contour>
    <contour>
      <point x="113" y="670" type="move" name="_above"/>
    </contour>
    <contour>
      <point x="113" y="670" type="move" name="_below"/>
    </contour>
  </outline>
</glyph>
<glyph name="circumflexcomb" format="1">
  <advance width="420"/>
  <unicode hex="0302"/>
  <outline>
    <component base="circumflex" xOffset="-42" yxScale="0.141"/>
    <contour>
      <point x="264" y="687" type="move" name="_accent"/>
    </contour>
    <contour>
      <point x="264" y="687" type="move" name="_below"/>
    </contour>
    <contour>
      <point x="264" y="687" type="move" name="_above"/>
    </contour>
  </outline>
</glyph>
<glyph name="tildecomb" format="1">
  <advance width="600"/>
  <unicode hex="0303"/>
  <outline>
    <contour>
      <point x="498" y="707"/>
      <point x="556" y="733"/>
      <point x="596" y="774" type="curve"/>
      <point x="539" y="830" type="line"/>
      <point x="520" y="807"/>
      <point x="485" y="789"/>
      <point x="453" y="789" type="curve" smooth="yes"/>
      <point x="441" y="789"/>
      <point x="417" y="795"/>
      <point x="393" y="805" type="curve" smooth="yes"/>
      <point x="368" y="820"/>
      <point x="332" y="831"/>
      <point x="304" y="831" type="curve" smooth="yes"/>
      <point x="256" y="831"/>
      <point x="199" y="806"/>
      <point x="160" y="766" type="curve"/>
      <point x="216" y="710" type="line"/>
      <point x="236" y="733"/>
      <point x="271" y="751"/>
      <point x="302" y="751" type="curve" smooth="yes"/>
      <point x="316" y="751"/>
      <point x="339" y="744"/>
      <point x="361" y="734" type="curve" smooth="yes"/>
      <point x="386" y="718"/>
      <point x="422" y="707"/>
      <point x="450" y="707" type="curve" smooth="yes"/>
    </contour>
    <contour>
      <point x="377" y="780" type="move" name="_accent"/>
    </contour>
    <contour>
      <point x="377" y="780" type="move" name="_below"/>
    </contour>
    <contour>
      <point x="377" y="779" type="move" name="_above"/>
    </contour>
  </outline>
</glyph>
<glyph name="brevecomb" format="1">
  <advance width="370"/>
  <unicode hex="0306"/>
  <outline>
    <contour>
      <point x="310" y="615"/>
      <point x="384" y="679"/>
      <point x="395" y="760" type="curve"/>
      <point x="310" y="760" type="line"/>
      <point x="306" y="727"/>
      <point x="276" y="700"/>
      <point x="242" y="700" type="curve" smooth="yes"/>
      <point x="208" y="700"/>
      <point x="186" y="726"/>
      <point x="190" y="760" type="curve"/>
      <point x="105" y="760" type="line"/>
      <point x="104" y="753"/>
      <point x="104" y="746"/>
      <point x="104" y="739" type="curve" smooth="yes"/>
      <point x="104" y="668"/>
      <point x="156" y="615"/>
      <point x="230" y="615" type="curve" smooth="yes"/>
    </contour>
    <contour>
      <point x="244" y="719" type="move" name="_accent"/>
    </contour>
    <contour>
      <point x="244" y="723" type="move" name="_below"/>
    </contour>
    <contour>
      <point x="244" y="723" type="move" name="_above"/>
    </contour>
  </outline>
</glyph>
<glyph name="ringcomb" format="1">
  <advance width="252"/>
  <unicode hex="030A"/>
  <outline>
    <contour>
      <point x="226" y="605"/>
      <point x="278" y="654"/>
      <point x="278" y="714" type="curve" smooth="yes"/>
      <point x="278" y="760"/>
      <point x="244" y="795"/>
      <point x="196" y="795" type="curve" smooth="yes"/>
      <point x="138" y="795"/>
      <point x="86" y="746"/>
      <point x="86" y="686" type="curve" smooth="yes"/>
      <point x="86" y="640"/>
      <point x="121" y="605"/>
      <point x="169" y="605" type="curve" smooth="yes"/>
    </contour>
    <contour>
      <point x="165" y="673"/>
      <point x="155" y="683"/>
      <point x="155" y="696" type="curve" smooth="yes"/>
      <point x="155" y="713"/>
      <point x="170" y="727"/>
      <point x="186" y="727" type="curve" smooth="yes"/>
      <point x="199" y="727"/>
      <point x="210" y="716"/>
      <point x="210" y="703" type="curve" smooth="yes"/>
      <point x="210" y="687"/>
      <point x="195" y="673"/>
      <point x="179" y="673" type="curve" smooth="yes"/>
    </contour>
    <contour>
      <point x="182" y="700" type="move" name="_accent"/>
    </contour>
  </outline>
</glyph>
<glyph name="caroncomb" format="1">
  <advance width="420"/>
  <unicode hex="030C"/>
  <outline>
    <component base="caron" xOffset="-42" yxScale="0.141"/>
    <contour>
      <point x="269" y="717" type="move" name="_accent"/>
    </contour>
    <contour>
      <point x="269" y="717" type="move" name="_above"/>
    </contour>
  </outline>
</glyph>
<glyph name="commaturnedabovecomb" format="1">
  <advance width="280"/>
  <unicode hex="0312"/>
  <outline>
    <component base="comma" xOffset="230" yOffset="63" xScale="-1" yScale="-1"/>
    <contour>
      <point x="88" y="1" type="move" name="_accent"/>
    </contour>
  </outline>
</glyph>
<glyph name="cedillacomb" format="1">
  <advance width="246"/>
  <unicode hex="0327"/>
  <outline>
    <component base="cedilla"/>
    <contour>
      <point x="82" y="-26" type="move" name="_bottom"/>
    </contour>
  </outline>
</glyph>
<glyph name="strokeshortcomb" format="1">
  <advance width="320"/>
  <unicode hex="0335"/>
  <outline>
    <contour>
      <point x="0" y="348" type="line"/>
      <point x="320" y="348" type="line"/>
      <point x="320" y="434" type="line"/>
      <point x="0" y="434" type="line"/>
    </contour>
    <contour>
      <point x="157" y="391" type="move" name="_accent"/>
    </contour>
    <contour>
      <point x="157" y="391" type="move" name="_bar"/>
    </contour>
    <contour>
      <point x="157" y="391" type="move" name="_below"/>
    </contour>
  </outline>
</glyph>
<glyph name="strokelongcomb" format="1">
  <advance width="795"/>
  <unicode hex="0336"/>
  <outline>
    <contour>
      <point x="0" y="277" type="line"/>
      <point x="795" y="277" type="line"/>
      <point x="795" y="362" type="line"/>
      <point x="0" y="362" type="line"/>
    </contour>
    <contour>
      <point x="398" y="319" type="move" name="_bar"/>
    </contour>
  </outline>
</glyph>
<glyph name="slashshortcomb" format="1">
  <advance width="761"/>
  <unicode hex="0337"/>
  <outline>
    <contour>
      <point x="228" y="138" type="line"/>
      <point x="610" y="519" type="line"/>
      <point x="550" y="579" type="line"/>
      <point x="168" y="198" type="line"/>
    </contour>
    <contour>
      <point x="389" y="359" type="move" name="_slash"/>
    </contour>
  </outline>
</glyph>
<glyph name="Dje-cy" format="1">
  <advance width="828"/>
  <unicode hex="0402"/>
  <outline>
    <contour>
      <point x="629" y="0"/>
      <point x="763" y="130"/>
      <point x="763" y="280" type="curve" smooth="yes"/>
      <point x="763" y="404"/>
      <point x="670" y="498"/>
      <point x="542" y="498" type="curve" smooth="yes"/>
      <point x="406" y="498"/>
      <point x="283" y="389"/>
      <point x="263" y="251" type="curve"/>
      <point x="422" y="247" type="line"/>
      <point x="430" y="297"/>
      <point x="477" y="338"/>
      <point x="529" y="338" type="curve" smooth="yes"/>
      <point x="572" y="338"/>
      <point x="602" y="308"/>
      <point x="602" y="267" type="curve" smooth="yes"/>
      <point x="602" y="209"/>
      <point x="550" y="160"/>
      <point x="496" y="160" type="curve"/>
      <point x="478" y="0" type="line"/>
    </contour>
    <contour>
      <point x="388" y="0" type="line"/>
      <point x="470" y="585" type="line"/>
      <point x="310" y="585" type="line"/>
      <point x="228" y="0" type="line"/>
    </contour>
    <contour>
      <point x="695" y="550" type="line"/>
      <point x="716" y="700" type="line"/>
      <point x="96" y="700" type="line"/>
      <point x="75" y="550" type="line"/>
    </contour>
    <contour>
      <point x="288" y="-167" type="move" name="below"/>
    </contour>
    <contour>
      <point x="434" y="869" type="move" name="accent"/>
    </contour>
    <contour>
      <point x="459" y="1049" type="move" name="above"/>
    </contour>
    <contour>
      <point x="361" y="350" type="move" name="slash"/>
    </contour>
    <contour>
      <point x="309" y="-18" type="move" name="bottom"/>
    </contour>
  </outline>
</glyph>
<glyph name="E-cy" format="1">
  <advance width="842"/>
  <unicode hex="0404"/>
  <outline>
    <contour>
      <point x="531" y="-25"/>
      <point x="661" y="48"/>
      <point x="742" y="160" type="curve"/>
      <point x="612" y="244" type="line"/>
      <point x="568" y="185"/>
      <point x="499" y="135"/>
      <point x="407" y="135" type="curve" smooth="yes"/>
      <point x="299" y="135"/>
      <point x="224" y="213"/>
      <point x="224" y="315" type="curve" smooth="yes"/>
      <point x="224" y="444"/>
      <point x="340" y="565"/>
      <point x="477" y="565" type="curve" smooth="yes"/>
      <point x="565" y="565"/>
      <point x="617" y="519"/>
      <point x="646" y="460" type="curve"/>
      <point x="792" y="536" type="line"/>
      <point x="743" y="648"/>
      <point x="631" y="725"/>
      <point x="490" y="725" type="curve" smooth="yes"/>
      <point x="267" y="725"/>
      <point x="64" y="529"/>
      <point x="64" y="301" type="curve" smooth="yes"/>
      <point x="64" y="117"/>
      <point x="203" y="-25"/>
      <point x="394" y="-25" type="curve" smooth="yes"/>
    </contour>
    <contour>
      <point x="450" y="410" type="line"/>
      <point x="159" y="411" type="line"/>
      <point x="142" y="291" type="line"/>
      <point x="434" y="290" type="line"/>
    </contour>
    <contour>
      <point x="368" y="-167" type="move" name="below"/>
    </contour>
    <contour>
      <point x="514" y="869" type="move" name="accent"/>
    </contour>
    <contour>
      <point x="539" y="1049" type="move" name="above"/>
    </contour>
    <contour>
      <point x="441" y="350" type="move" name="slash"/>
    </contour>
    <contour>
      <point x="389" y="-18" type="move" name="bottom"/>
    </contour>
  </outline>
</glyph>
<glyph name="Dze-cy" format="1">
  <advance width="768"/>
  <unicode hex="0405"/>
  <outline>
    <contour>
      <point x="349" y="700" type="line"/>
      <point x="223" y="700"/>
      <point x="105" y="591"/>
      <point x="105" y="459" type="curve" smooth="yes"/>
      <point x="105" y="352"/>
      <point x="184" y="270"/>
      <point x="293" y="270" type="curve"/>
      <point x="471" y="270" type="line"/>
      <point x="499" y="270"/>
      <point x="518" y="253"/>
      <point x="518" y="227" type="curve" smooth="yes"/>
      <point x="518" y="187"/>
      <point x="491" y="160"/>
      <point x="451" y="160" type="curve"/>
      <point x="74" y="160" type="line"/>
      <point x="52" y="0" type="line"/>
      <point x="433" y="0" type="line"/>
      <point x="559" y="0"/>
      <point x="677" y="109"/>
      <point x="677" y="241" type="curve" smooth="yes"/>
      <point x="677" y="347"/>
      <point x="597" y="430"/>
      <point x="489" y="430" type="curve"/>
      <point x="311" y="430" type="line"/>
      <point x="283" y="430"/>
      <point x="264" y="447"/>
      <point x="264" y="473" type="curve" smooth="yes"/>
      <point x="264" y="513"/>
      <point x="291" y="540"/>
      <point x="331" y="540" type="curve"/>
      <point x="682" y="540" type="line"/>
      <point x="704" y="700" type="line"/>
    </contour>
    <contour>
      <point x="308" y="-167" type="move" name="below"/>
    </contour>
    <contour>
      <point x="454" y="869" type="move" name="accent"/>
    </contour>
    <contour>
      <point x="479" y="1049" type="move" name="above"/>
    </contour>
    <contour>
      <point x="381" y="350" type="move" name="slash"/>
    </contour>
    <contour>
      <point x="329" y="-18" type="move" name="bottom"/>
    </contour>
  </outline>
</glyph>
<glyph name="I-cy" format="1">
  <advance width="320"/>
  <unicode hex="0406"/>
  <outline>
    <contour>
      <point x="136" y="700" type="line"/>
      <point x="38" y="0" type="line"/>
      <point x="198" y="0" type="line"/>
      <point x="296" y="700" type="line"/>
    </contour>
    <contour>
      <point x="92" y="-167" type="move" name="below"/>
    </contour>
    <contour>
      <point x="238" y="869" type="move" name="accent"/>
    </contour>
    <contour>
      <point x="263" y="1049" type="move" name="above"/>
    </contour>
    <contour>
      <point x="165" y="350" type="move" name="slash"/>
    </contour>
    <contour>
      <point x="113" y="-18" type="move" name="bottom"/>
    </contour>
  </outline>
</glyph>
<glyph name="Je-cy" format="1">
  <advance width="635"/>
  <unicode hex="0408"/>
  <outline>
    <contour>
      <point x="451" y="700" type="line"/>
      <point x="398" y="322" type="line" smooth="yes"/>
      <point x="384" y="218"/>
      <point x="317" y="160"/>
      <point x="213" y="160" type="curve" smooth="yes"/>
      <point x="60" y="160" type="line"/>
      <point x="38" y="0" type="line"/>
      <point x="195" y="0" type="line" smooth="yes"/>
      <point x="389" y="0"/>
      <point x="530" y="124"/>
      <point x="557" y="318" type="curve" smooth="yes"/>
      <point x="611" y="700" type="line"/>
    </contour>
    <contour>
      <point x="407" y="-167" type="move" name="below"/>
    </contour>
    <contour>
      <point x="553" y="869" type="move" name="accent"/>
    </contour>
    <contour>
      <point x="578" y="1049" type="move" name="above"/>
    </contour>
    <contour>
      <point x="480" y="350" type="move" name="slash"/>
    </contour>
    <contour>
      <point x="428" y="-18" type="move" name="bottom"/>
    </contour>
  </outline>
</glyph>
<glyph name="Lje-cy" format="1">
  <advance width="1012"/>
  <unicode hex="0409"/>
  <outline>
    <contour>
      <point x="647" y="535" type="line"/>
      <point x="648" y="545"/>
      <point x="649" y="554"/>
      <point x="649" y="563" type="curve" smooth="yes"/>
      <point x="649" y="646"/>
      <point x="593" y="700"/>
      <point x="505" y="700" type="curve" smooth="yes"/>
      <point x="316" y="700" type="line" smooth="yes"/>
      <point x="218" y="700"/>
      <point x="146" y="637"/>
      <point x="133" y="539" type="curve" smooth="yes"/>
      <point x="85" y="200" type="line" smooth="yes"/>
      <point x="82" y="178"/>
      <point x="59" y="160"/>
      <point x="37" y="160" type="curve" smooth="yes"/>
      <point x="0" y="160" type="line"/>
      <point x="-22" y="0" type="line"/>
      <point x="19" y="0" type="line" smooth="yes"/>
      <point x="149" y="0"/>
      <point x="226" y="70"/>
      <point x="245" y="200" type="curve" smooth="yes"/>
      <point x="291" y="535" type="line" smooth="yes"/>
      <point x="291" y="538"/>
      <point x="294" y="540"/>
      <point x="297" y="540" type="curve" smooth="yes"/>
      <point x="483" y="540" type="line" smooth="yes"/>
      <point x="486" y="540"/>
      <point x="487" y="538"/>
      <point x="487" y="535" type="curve" smooth="yes"/>
      <point x="435" y="162" type="line" smooth="yes"/>
      <point x="433" y="150"/>
      <point x="432" y="138"/>
      <point x="432" y="128" type="curve" smooth="yes"/>
      <point x="432" y="45"/>
      <point x="482" y="0"/>
      <point x="574" y="0" type="curve" smooth="yes"/>
      <point x="656" y="0" type="line" smooth="yes"/>
      <point x="810" y="0"/>
      <point x="948" y="134"/>
      <point x="948" y="286" type="curve" smooth="yes"/>
      <point x="948" y="413"/>
      <point x="853" y="510"/>
      <point x="724" y="510" type="curve" smooth="yes"/>
      <point x="627" y="510" type="line"/>
      <point x="605" y="350" type="line"/>
      <point x="705" y="350" type="line" smooth="yes"/>
      <point x="753" y="350"/>
      <point x="786" y="316"/>
      <point x="786" y="272" type="curve" smooth="yes"/>
      <point x="786" y="212"/>
      <point x="730" y="160"/>
      <point x="674" y="160" type="curve" smooth="yes"/>
      <point x="599" y="160" type="line" smooth="yes"/>
      <point x="596" y="160"/>
      <point x="595" y="162"/>
      <point x="595" y="165" type="curve"/>
      <point x="623" y="366" type="line"/>
    </contour>
    <contour>
      <point x="388" y="-167" type="move" name="below"/>
    </contour>
    <contour>
      <point x="534" y="869" type="move" name="accent"/>
    </contour>
    <contour>
      <point x="559" y="1049" type="move" name="above"/>
    </contour>
    <contour>
      <point x="461" y="350" type="move" name="slash"/>
    </contour>
    <contour>
      <point x="409" y="-18" type="move" name="bottom"/>
    </contour>
  </outline>
</glyph>
<glyph name="Nje-cy" format="1">
  <advance width="1033"/>
  <unicode hex="040A"/>
  <outline>
    <contour>
      <point x="136" y="700" type="line"/>
      <point x="38" y="0" type="line"/>
      <point x="198" y="0" type="line"/>
      <point x="296" y="700" type="line"/>
    </contour>
    <contour>
      <point x="178" y="430" type="line"/>
      <point x="156" y="270" type="line"/>
      <point x="554" y="270" type="line"/>
      <point x="576" y="430" type="line"/>
    </contour>
    <contour>
      <point x="677" y="0" type="line" smooth="yes"/>
      <point x="831" y="0"/>
      <point x="969" y="134"/>
      <point x="969" y="286" type="curve" smooth="yes"/>
      <point x="969" y="413"/>
      <point x="874" y="510"/>
      <point x="745" y="510" type="curve" smooth="yes"/>
      <point x="589" y="510" type="line"/>
      <point x="566" y="350" type="line"/>
      <point x="726" y="350" type="line" smooth="yes"/>
      <point x="774" y="350"/>
      <point x="807" y="316"/>
      <point x="807" y="272" type="curve" smooth="yes"/>
      <point x="807" y="212"/>
      <point x="751" y="160"/>
      <point x="695" y="160" type="curve" smooth="yes"/>
      <point x="620" y="160" type="line" smooth="yes"/>
      <point x="617" y="160"/>
      <point x="616" y="162"/>
      <point x="616" y="165" type="curve" smooth="yes"/>
      <point x="691" y="700" type="line"/>
      <point x="531" y="700" type="line"/>
      <point x="456" y="162" type="line" smooth="yes"/>
      <point x="454" y="150"/>
      <point x="453" y="138"/>
      <point x="453" y="128" type="curve" smooth="yes"/>
      <point x="453" y="45"/>
      <point x="503" y="0"/>
      <point x="595" y="0" type="curve" smooth="yes"/>
    </contour>
    <contour>
      <point x="437" y="-167" type="move" name="below"/>
    </contour>
    <contour>
      <point x="583" y="869" type="move" name="accent"/>
    </contour>
    <contour>
      <point x="608" y="1049" type="move" name="above"/>
    </contour>
    <contour>
      <point x="510" y="350" type="move" name="slash"/>
    </contour>
    <contour>
      <point x="458" y="-18" type="move" name="bottom"/>
    </contour>
  </outline>
</glyph>
<glyph name="Tshe-cy" format="1">
  <advance width="929"/>
  <unicode hex="040B"/>
  <outline>
    <contour>
      <point x="695" y="550" type="line"/>
      <point x="716" y="700" type="line"/>
      <point x="96" y="700" type="line"/>
      <point x="75" y="550" type="line"/>
    </contour>
    <component base="Shha-cy" xOffset="189"/>
    <contour>
      <point x="280" y="-167" type="move" name="below"/>
    </contour>
    <contour>
      <point x="426" y="869" type="move" name="accent"/>
    </contour>
    <contour>
      <point x="451" y="1049" type="move" name="above"/>
    </contour>
    <contour>
      <point x="353" y="350" type="move" name="slash"/>
    </contour>
    <contour>
      <point x="301" y="-18" type="move" name="bottom"/>
    </contour>
  </outline>
</glyph>
<glyph name="Dzhe-cy" format="1">
  <advance width="744"/>
  <unicode hex="040F"/>
  <outline>
    <contour>
      <point x="461" y="0" type="line" smooth="yes"/>
      <point x="559" y="0"/>
      <point x="631" y="63"/>
      <point x="644" y="161" type="curve" smooth="yes"/>
      <point x="720" y="700" type="line"/>
      <point x="560" y="700" type="line"/>
      <point x="486" y="165" type="line" smooth="yes"/>
      <point x="486" y="162"/>
      <point x="483" y="160"/>
      <point x="480" y="160" type="curve" smooth="yes"/>
      <point x="225" y="160" type="line" smooth="yes"/>
      <point x="222" y="160"/>
      <point x="221" y="162"/>
      <point x="221" y="165" type="curve" smooth="yes"/>
      <point x="296" y="700" type="line"/>
      <point x="136" y="700" type="line"/>
      <point x="61" y="165" type="line"/>
      <point x="60" y="155"/>
      <point x="59" y="146"/>
      <point x="59" y="137" type="curve" smooth="yes"/>
      <point x="59" y="54"/>
      <point x="115" y="0"/>
      <point x="203" y="0" type="curve" smooth="yes"/>
    </contour>
    <contour>
      <point x="376" y="-100" type="line"/>
      <point x="402" y="87" type="line"/>
      <point x="282" y="87" type="line"/>
      <point x="256" y="-100" type="line"/>
    </contour>
    <contour>
      <point x="308" y="-167" type="move" name="below"/>
    </contour>
    <contour>
      <point x="454" y="869" type="move" name="accent"/>
    </contour>
    <contour>
      <point x="479" y="1049" type="move" name="above"/>
    </contour>
    <contour>
      <point x="381" y="350" type="move" name="slash"/>
    </contour>
    <contour>
      <point x="329" y="-18" type="move" name="bottom"/>
    </contour>
  </outline>
</glyph>
<glyph name="Be-cy" format="1">
  <advance width="778"/>
  <unicode hex="0411"/>
  <outline>
    <contour>
      <point x="468" y="0" type="line" smooth="yes"/>
      <point x="594" y="0"/>
      <point x="707" y="108"/>
      <point x="707" y="233" type="curve" smooth="yes"/>
      <point x="707" y="338"/>
      <point x="629" y="418"/>
      <point x="523" y="418" type="curve" smooth="yes"/>
      <point x="201" y="418" type="line"/>
      <point x="178" y="258" type="line"/>
      <point x="505" y="258" type="line" smooth="yes"/>
      <point x="531" y="258"/>
      <point x="546" y="242"/>
      <point x="546" y="220" type="curve" smooth="yes"/>
      <point x="546" y="187"/>
      <point x="516" y="160"/>
      <point x="486" y="160" type="curve" smooth="yes"/>
      <point x="185" y="160" type="line"/>
      <point x="205" y="160"/>
      <point x="216" y="150"/>
      <point x="216" y="133" type="curve" smooth="yes"/>
      <point x="216" y="130"/>
      <point x="216" y="127"/>
      <point x="215" y="124" type="curve"/>
      <point x="279" y="580" type="line"/>
      <point x="276" y="557"/>
      <point x="256" y="540"/>
      <point x="233" y="540" type="curve"/>
      <point x="627" y="540" type="line"/>
      <point x="649" y="700" type="line"/>
      <point x="297" y="700" type="line" smooth="yes"/>
      <point x="199" y="700"/>
      <point x="127" y="637"/>
      <point x="114" y="539" type="curve" smooth="yes"/>
      <point x="61" y="162" type="line" smooth="yes"/>
      <point x="59" y="150"/>
      <point x="58" y="138"/>
      <point x="58" y="128" type="curve" smooth="yes"/>
      <point x="58" y="45"/>
      <point x="108" y="0"/>
      <point x="200" y="0" type="curve" smooth="yes"/>
    </contour>
  </outline>
</glyph>
<glyph name="Ge-cy" format="1">
  <advance width="693"/>
  <unicode hex="0413"/>
  <outline>
    <contour>
      <point x="297" y="700" type="line" smooth="yes"/>
      <point x="199" y="700"/>
      <point x="127" y="637"/>
      <point x="114" y="539" type="curve" smooth="yes"/>
      <point x="38" y="0" type="line"/>
      <point x="198" y="0" type="line"/>
      <point x="279" y="580" type="line"/>
      <point x="276" y="554"/>
      <point x="259" y="540"/>
      <point x="233" y="540" type="curve"/>
      <point x="687" y="540" type="line"/>
      <point x="709" y="700" type="line"/>
    </contour>
    <contour>
      <point x="476" y="1079" type="move" name="above"/>
    </contour>
    <contour>
      <point x="301" y="-167" type="move" name="below"/>
    </contour>
    <contour>
      <point x="447" y="869" type="move" name="accent"/>
    </contour>
  </outline>
</glyph>
<glyph name="De-cy" format="1">
  <advance width="942"/>
  <unicode hex="0414"/>
  <outline>
    <contour>
      <point x="306" y="700"/>
      <point x="235" y="638"/>
      <point x="221" y="539" type="curve" smooth="yes"/>
      <point x="194" y="351" type="line" smooth="yes"/>
      <point x="180" y="249"/>
      <point x="154" y="195"/>
      <point x="68" y="127" type="curve"/>
      <point x="162" y="1" type="line"/>
      <point x="276" y="102"/>
      <point x="333" y="204"/>
      <point x="354" y="347" type="curve" smooth="yes"/>
      <point x="380" y="535" type="line" smooth="yes"/>
      <point x="380" y="538"/>
      <point x="383" y="540"/>
      <point x="386" y="540" type="curve" smooth="yes"/>
      <point x="631" y="540" type="line" smooth="yes"/>
      <point x="634" y="540"/>
      <point x="635" y="538"/>
      <point x="635" y="535" type="curve" smooth="yes"/>
      <point x="560" y="0" type="line"/>
      <point x="720" y="0" type="line"/>
      <point x="795" y="535" type="line" smooth="yes"/>
      <point x="796" y="545"/>
      <point x="797" y="554"/>
      <point x="797" y="563" type="curve" smooth="yes"/>
      <point x="797" y="646"/>
      <point x="741" y="700"/>
      <point x="653" y="700" type="curve" smooth="yes"/>
      <point x="404" y="700" type="line" smooth="yes"/>
    </contour>
    <contour>
      <point x="90" y="162"/>
      <point x="35" y="113"/>
      <point x="25" y="42" type="curve" smooth="yes"/>
      <point x="5" y="-100" type="line"/>
      <point x="125" y="-100" type="line"/>
      <point x="138" y="0" type="line"/>
      <point x="719" y="0" type="line"/>
      <point x="706" y="-100" type="line"/>
      <point x="826" y="-100" type="line"/>
      <point x="845" y="38" type="line" smooth="yes"/>
      <point x="846" y="45"/>
      <point x="846" y="51"/>
      <point x="846" y="57" type="curve" smooth="yes"/>
      <point x="846" y="118"/>
      <point x="803" y="162"/>
      <point x="740" y="162" type="curve" smooth="yes"/>
      <point x="159" y="162" type="line" smooth="yes"/>
    </contour>
  </outline>
</glyph>
<glyph name="Ie-cy" format="1">
  <advance width="775"/>
  <unicode hex="0415"/>
  <outline>
    <contour>
      <point x="220" y="160" type="line"/>
      <point x="274" y="540" type="line"/>
      <point x="729" y="540" type="line"/>
      <point x="751" y="700" type="line"/>
      <point x="294" y="700" type="line" smooth="yes"/>
      <point x="190" y="700"/>
      <point x="129" y="646"/>
      <point x="114" y="542" type="curve" smooth="yes"/>
      <point x="61" y="162" type="line" smooth="yes"/>
      <point x="59" y="150"/>
      <point x="58" y="138"/>
      <point x="58" y="128" type="curve" smooth="yes"/>
      <point x="58" y="45"/>
      <point x="108" y="0"/>
      <point x="200" y="0" type="curve" smooth="yes"/>
      <point x="653" y="0" type="line"/>
      <point x="675" y="160" type="line"/>
    </contour>
    <contour>
      <point x="178" y="430" type="line"/>
      <point x="156" y="270" type="line"/>
      <point x="549" y="270" type="line"/>
      <point x="571" y="430" type="line"/>
    </contour>
    <contour>
      <point x="332" y="-167" type="move" name="below"/>
    </contour>
    <contour>
      <point x="478" y="869" type="move" name="accent"/>
    </contour>
    <contour>
      <point x="507" y="1079" type="move" name="above"/>
    </contour>
    <contour>
      <point x="362" y="8" type="move" name="bottom"/>
    </contour>
  </outline>
</glyph>
<glyph name="Zhe-cy" format="1">
  <advance width="970"/>
  <unicode hex="0416"/>
  <outline>
    <contour>
      <point x="867" y="0" type="line"/>
      <point x="791" y="331" type="line"/>
      <point x="790" y="338"/>
      <point x="790" y="343"/>
      <point x="790" y="345" type="curve" smooth="yes"/>
      <point x="791" y="353"/>
      <point x="794" y="357"/>
      <point x="798" y="365" type="curve" smooth="yes"/>
      <point x="967" y="700" type="line"/>
      <point x="796" y="701" type="line"/>
      <point x="654" y="425" type="line" smooth="yes"/>
      <point x="641" y="394"/>
      <point x="631" y="361"/>
      <point x="631" y="323" type="curve" smooth="yes"/>
      <point x="631" y="307"/>
      <point x="632" y="293"/>
      <point x="636" y="279" type="curve" smooth="yes"/>
      <point x="699" y="0" type="line"/>
    </contour>
    <contour>
      <point x="188" y="-1" type="line"/>
      <point x="330" y="275" type="line" smooth="yes"/>
      <point x="343" y="306"/>
      <point x="353" y="339"/>
      <point x="353" y="377" type="curve" smooth="yes"/>
      <point x="353" y="393"/>
      <point x="352" y="407"/>
      <point x="348" y="421" type="curve" smooth="yes"/>
      <point x="286" y="700" type="line"/>
      <point x="117" y="700" type="line"/>
      <point x="193" y="369" type="line"/>
      <point x="194" y="362"/>
      <point x="194" y="357"/>
      <point x="194" y="355" type="curve" smooth="yes"/>
      <point x="193" y="347"/>
      <point x="190" y="343"/>
      <point x="186" y="335" type="curve" smooth="yes"/>
      <point x="17" y="0" type="line"/>
    </contour>
    <contour>
      <point x="523" y="0" type="line"/>
      <point x="621" y="700" type="line"/>
      <point x="461" y="700" type="line"/>
      <point x="363" y="0" type="line"/>
    </contour>
    <contour>
      <point x="701" y="269" type="line"/>
      <point x="723" y="429" type="line"/>
      <point x="283" y="429" type="line"/>
      <point x="261" y="269" type="line"/>
    </contour>
    <contour>
      <point x="576" y="869" type="move" name="accent"/>
    </contour>
  </outline>
</glyph>
<glyph name="Ze-cy" format="1">
  <advance width="774"/>
  <unicode hex="0417"/>
  <outline>
    <contour>
      <point x="459" y="0" type="line" smooth="yes"/>
      <point x="585" y="0"/>
      <point x="703" y="109"/>
      <point x="703" y="241" type="curve" smooth="yes"/>
      <point x="703" y="296"/>
      <point x="682" y="342"/>
      <point x="649" y="374" type="curve"/>
      <point x="647" y="331" type="line"/>
      <point x="697" y="375"/>
      <point x="731" y="439"/>
      <point x="731" y="511" type="curve" smooth="yes"/>
      <point x="731" y="617"/>
      <point x="651" y="700"/>
      <point x="543" y="700" type="curve" smooth="yes"/>
      <point x="313" y="700" type="line" smooth="yes"/>
      <point x="239" y="700"/>
      <point x="169" y="664"/>
      <point x="122" y="606" type="curve"/>
      <point x="245" y="514" type="line"/>
      <point x="256" y="529"/>
      <point x="276" y="540"/>
      <point x="295" y="540" type="curve" smooth="yes"/>
      <point x="525" y="540" type="line" smooth="yes"/>
      <point x="553" y="540"/>
      <point x="572" y="522"/>
      <point x="572" y="497" type="curve" smooth="yes"/>
      <point x="572" y="460"/>
      <point x="538" y="430"/>
      <point x="505" y="430" type="curve" smooth="yes"/>
      <point x="277" y="430" type="line"/>
      <point x="255" y="270" type="line"/>
      <point x="497" y="270" type="line" smooth="yes"/>
      <point x="525" y="270"/>
      <point x="544" y="252"/>
      <point x="544" y="227" type="curve" smooth="yes"/>
      <point x="544" y="190"/>
      <point x="510" y="160"/>
      <point x="477" y="160" type="curve" smooth="yes"/>
      <point x="237" y="160" type="line" smooth="yes"/>
      <point x="218" y="160"/>
      <point x="203" y="167"/>
      <point x="195" y="182" type="curve"/>
      <point x="52" y="98" type="line"/>
      <point x="84" y="40"/>
      <point x="145" y="0"/>
      <point x="219" y="0" type="curve" smooth="yes"/>
    </contour>
    <contour>
      <point x="308" y="-167" type="move" name="below"/>
    </contour>
    <contour>
      <point x="454" y="869" type="move" name="accent"/>
    </contour>
    <contour>
      <point x="479" y="1049" type="move" name="above"/>
    </contour>
    <contour>
      <point x="381" y="350" type="move" name="slash"/>
    </contour>
    <contour>
      <point x="329" y="-18" type="move" name="bottom"/>
    </contour>
  </outline>
</glyph>
<glyph name="Ii-cy" format="1">
  <advance width="891"/>
  <unicode hex="0418"/>
  <outline>
    <contour>
      <point x="272" y="-23"/>
      <point x="362" y="31"/>
      <point x="413" y="123" type="curve" smooth="yes"/>
      <point x="635" y="526" type="line" smooth="yes"/>
      <point x="647" y="547"/>
      <point x="666" y="560"/>
      <point x="686" y="560" type="curve" smooth="yes"/>
      <point x="695" y="560"/>
      <point x="703" y="558"/>
      <point x="711" y="553" type="curve"/>
      <point x="693" y="598" type="line"/>
      <point x="600" y="0" type="line"/>
      <point x="760" y="0" type="line"/>
      <point x="851" y="588" type="line" smooth="yes"/>
      <point x="852" y="596"/>
      <point x="853" y="604"/>
      <point x="853" y="611" type="curve" smooth="yes"/>
      <point x="853" y="677"/>
      <point x="805" y="720"/>
      <point x="729" y="720" type="curve" smooth="yes"/>
      <point x="631" y="720"/>
      <point x="541" y="666"/>
      <point x="490" y="574" type="curve" smooth="yes"/>
      <point x="267" y="171" type="line" smooth="yes"/>
      <point x="255" y="150"/>
      <point x="236" y="137"/>
      <point x="216" y="137" type="curve" smooth="yes"/>
      <point x="208" y="137"/>
      <point x="199" y="139"/>
      <point x="191" y="144" type="curve"/>
      <point x="211" y="99" type="line"/>
      <point x="296" y="700" type="line"/>
      <point x="136" y="700" type="line"/>
      <point x="53" y="109" type="line" smooth="yes"/>
      <point x="52" y="101"/>
      <point x="51" y="94"/>
      <point x="51" y="87" type="curve" smooth="yes"/>
      <point x="51" y="20"/>
      <point x="98" y="-23"/>
      <point x="173" y="-23" type="curve" smooth="yes"/>
    </contour>
    <contour>
      <point x="514" y="869" type="move" name="accent"/>
    </contour>
  </outline>
</glyph>
<glyph name="Ka-cy" format="1">
  <advance width="777"/>
  <unicode hex="041A"/>
  <outline>
    <contour>
      <point x="674" y="0" type="line"/>
      <point x="451" y="298" type="line" smooth="yes"/>
      <point x="442" y="310"/>
      <point x="439" y="323"/>
      <point x="439" y="335" type="curve" smooth="yes"/>
      <point x="439" y="359"/>
      <point x="452" y="381"/>
      <point x="469" y="398" type="curve" smooth="yes"/>
      <point x="774" y="700" type="line"/>
      <point x="559" y="700" type="line"/>
      <point x="361" y="508" type="line" smooth="yes"/>
      <point x="310" y="457"/>
      <point x="280" y="392"/>
      <point x="280" y="322" type="curve" smooth="yes"/>
      <point x="280" y="277"/>
      <point x="293" y="234"/>
      <point x="321" y="196" type="curve" smooth="yes"/>
      <point x="463" y="0" type="line"/>
    </contour>
    <contour>
      <point x="198" y="0" type="line"/>
      <point x="296" y="700" type="line"/>
      <point x="136" y="700" type="line"/>
      <point x="38" y="0" type="line"/>
    </contour>
    <contour>
      <point x="288" y="-167" type="move" name="below"/>
    </contour>
    <contour>
      <point x="434" y="869" type="move" name="accent"/>
    </contour>
    <contour>
      <point x="459" y="1049" type="move" name="above"/>
    </contour>
    <contour>
      <point x="361" y="350" type="move" name="slash"/>
    </contour>
    <contour>
      <point x="309" y="-18" type="move" name="bottom"/>
    </contour>
  </outline>
</glyph>
<glyph name="El-cy" format="1">
  <advance width="764"/>
  <unicode hex="041B"/>
  <outline>
    <contour>
      <point x="19" y="0" type="line" smooth="yes"/>
      <point x="149" y="0"/>
      <point x="226" y="70"/>
      <point x="245" y="200" type="curve" smooth="yes"/>
      <point x="298" y="580" type="line"/>
      <point x="295" y="554"/>
      <point x="278" y="540"/>
      <point x="252" y="540" type="curve"/>
      <point x="593" y="540" type="line"/>
      <point x="566" y="540"/>
      <point x="557" y="554"/>
      <point x="563" y="576" type="curve"/>
      <point x="482" y="0" type="line"/>
      <point x="642" y="0" type="line"/>
      <point x="717" y="535" type="line" smooth="yes"/>
      <point x="718" y="545"/>
      <point x="719" y="554"/>
      <point x="719" y="563" type="curve" smooth="yes"/>
      <point x="719" y="646"/>
      <point x="663" y="700"/>
      <point x="575" y="700" type="curve" smooth="yes"/>
      <point x="316" y="700" type="line" smooth="yes"/>
      <point x="218" y="700"/>
      <point x="147" y="637"/>
      <point x="133" y="539" type="curve" smooth="yes"/>
      <point x="85" y="200" type="line" smooth="yes"/>
      <point x="82" y="178"/>
      <point x="59" y="160"/>
      <point x="37" y="160" type="curve" smooth="yes"/>
      <point x="0" y="160" type="line"/>
      <point x="-22" y="0" type="line"/>
    </contour>
  </outline>
</glyph>
<glyph name="Em-cy" format="1">
  <advance width="1160"/>
  <unicode hex="041C"/>
  <outline>
    <contour>
      <point x="815" y="725"/>
      <point x="725" y="673"/>
      <point x="696" y="566" type="curve" smooth="yes"/>
      <point x="585" y="159" type="line" smooth="yes"/>
      <point x="581" y="144"/>
      <point x="570" y="134"/>
      <point x="557" y="134" type="curve" smooth="yes"/>
      <point x="547" y="134"/>
      <point x="535" y="140"/>
      <point x="535" y="155" type="curve" smooth="yes"/>
      <point x="537" y="563" type="line" smooth="yes"/>
      <point x="538" y="669"/>
      <point x="460" y="725"/>
      <point x="373" y="725" type="curve" smooth="yes"/>
      <point x="290" y="725"/>
      <point x="201" y="673"/>
      <point x="171" y="566" type="curve" smooth="yes"/>
      <point x="18" y="0" type="line"/>
      <point x="180" y="0" type="line"/>
      <point x="327" y="541" type="line" smooth="yes"/>
      <point x="331" y="557"/>
      <point x="342" y="566"/>
      <point x="356" y="566" type="curve" smooth="yes"/>
      <point x="365" y="566"/>
      <point x="377" y="561"/>
      <point x="377" y="545" type="curve" smooth="yes"/>
      <point x="375" y="137" type="line" smooth="yes"/>
      <point x="374" y="31"/>
      <point x="452" y="-25"/>
      <point x="539" y="-25" type="curve" smooth="yes"/>
      <point x="622" y="-25"/>
      <point x="711" y="27"/>
      <point x="741" y="134" type="curve" smooth="yes"/>
      <point x="852" y="541" type="line" smooth="yes"/>
      <point x="856" y="557"/>
      <point x="867" y="566"/>
      <point x="881" y="566" type="curve" smooth="yes"/>
      <point x="890" y="566"/>
      <point x="902" y="561"/>
      <point x="902" y="545" type="curve" smooth="yes"/>
      <point x="896" y="0" type="line"/>
      <point x="1058" y="0" type="line"/>
      <point x="1062" y="562" type="line" smooth="yes"/>
      <point x="1064" y="669"/>
      <point x="984" y="725"/>
      <point x="898" y="725" type="curve" smooth="yes"/>
    </contour>
  </outline>
</glyph>
<glyph name="En-cy" format="1">
  <advance width="795"/>
  <unicode hex="041D"/>
  <outline>
    <contour>
      <point x="611" y="700" type="line"/>
      <point x="513" y="0" type="line"/>
      <point x="673" y="0" type="line"/>
      <point x="771" y="700" type="line"/>
    </contour>
    <contour>
      <point x="136" y="700" type="line"/>
      <point x="38" y="0" type="line"/>
      <point x="198" y="0" type="line"/>
      <point x="296" y="700" type="line"/>
    </contour>
    <contour>
      <point x="178" y="430" type="line"/>
      <point x="156" y="270" type="line"/>
      <point x="634" y="270" type="line"/>
      <point x="656" y="430" type="line"/>
    </contour>
    <contour>
      <point x="331" y="-167" type="move" name="below"/>
    </contour>
    <contour>
      <point x="434" y="565" type="move" name="bar"/>
    </contour>
    <contour>
      <point x="477" y="869" type="move" name="accent"/>
    </contour>
    <contour>
      <point x="502" y="1049" type="move" name="above"/>
    </contour>
    <contour>
      <point x="404" y="350" type="move" name="slash"/>
    </contour>
    <contour>
      <point x="352" y="-18" type="move" name="bottom"/>
    </contour>
  </outline>
</glyph>
<glyph name="O-cy" format="1">
  <advance width="863"/>
  <unicode hex="041E"/>
  <outline>
    <contour>
      <point x="264" y="725"/>
      <point x="64" y="528"/>
      <point x="64" y="300" type="curve" smooth="yes"/>
      <point x="64" y="116"/>
      <point x="201" y="-25"/>
      <point x="390" y="-25" type="curve" smooth="yes"/>
      <point x="612" y="-25"/>
      <point x="813" y="171"/>
      <point x="813" y="400" type="curve" smooth="yes"/>
      <point x="813" y="584"/>
      <point x="676" y="725"/>
      <point x="486" y="725" type="curve" smooth="yes"/>
    </contour>
    <contour>
      <point x="579" y="565"/>
      <point x="655" y="486"/>
      <point x="655" y="384" type="curve" smooth="yes"/>
      <point x="655" y="249"/>
      <point x="532" y="135"/>
      <point x="403" y="135" type="curve" smooth="yes"/>
      <point x="298" y="135"/>
      <point x="222" y="214"/>
      <point x="222" y="316" type="curve" smooth="yes"/>
      <point x="222" y="451"/>
      <point x="345" y="565"/>
      <point x="473" y="565" type="curve" smooth="yes"/>
    </contour>
    <contour>
      <point x="370" y="-167" type="move" name="below"/>
    </contour>
    <contour>
      <point x="516" y="869" type="move" name="accent"/>
    </contour>
    <contour>
      <point x="545" y="1079" type="move" name="above"/>
    </contour>
    <contour>
      <point x="443" y="350" type="move" name="slash"/>
    </contour>
    <contour>
      <point x="391" y="-18" type="move" name="bottom"/>
    </contour>
  </outline>
</glyph>
<glyph name="Pe-cy" format="1">
  <advance width="795"/>
  <unicode hex="041F"/>
  <outline>
    <contour>
      <point x="297" y="700" type="line" smooth="yes"/>
      <point x="199" y="700"/>
      <point x="127" y="637"/>
      <point x="114" y="539" type="curve" smooth="yes"/>
      <point x="38" y="0" type="line"/>
      <point x="198" y="0" type="line"/>
      <point x="272" y="535" type="line" smooth="yes"/>
      <point x="272" y="538"/>
      <point x="275" y="540"/>
      <point x="278" y="540" type="curve" smooth="yes"/>
      <point x="584" y="540" type="line" smooth="yes"/>
      <point x="587" y="540"/>
      <point x="588" y="538"/>
      <point x="588" y="535" type="curve" smooth="yes"/>
      <point x="513" y="0" type="line"/>
      <point x="673" y="0" type="line"/>
      <point x="748" y="535" type="line"/>
      <point x="749" y="545"/>
      <point x="750" y="554"/>
      <point x="750" y="563" type="curve" smooth="yes"/>
      <point x="750" y="646"/>
      <point x="694" y="700"/>
      <point x="606" y="700" type="curve" smooth="yes"/>
    </contour>
  </outline>
</glyph>
<glyph name="Er-cy" format="1">
  <advance width="779"/>
  <unicode hex="0420"/>
  <outline>
    <contour>
      <point x="294" y="700" type="line" smooth="yes"/>
      <point x="190" y="700"/>
      <point x="129" y="646"/>
      <point x="114" y="542" type="curve" smooth="yes"/>
      <point x="38" y="0" type="line"/>
      <point x="198" y="0" type="line"/>
      <point x="274" y="540" type="line"/>
      <point x="498" y="540" type="line"/>
      <point x="546" y="540"/>
      <point x="579" y="506"/>
      <point x="579" y="462" type="curve" smooth="yes"/>
      <point x="579" y="402"/>
      <point x="523" y="350"/>
      <point x="467" y="350" type="curve"/>
      <point x="171" y="350" type="line"/>
      <point x="149" y="190" type="line"/>
      <point x="450" y="190" type="line"/>
      <point x="604" y="190"/>
      <point x="741" y="324"/>
      <point x="741" y="476" type="curve" smooth="yes"/>
      <point x="741" y="603"/>
      <point x="645" y="700"/>
      <point x="516" y="700" type="curve"/>
    </contour>
  </outline>
</glyph>
<glyph name="Te-cy" format="1">
  <advance width="700"/>
  <unicode hex="0422"/>
  <outline>
    <contour>
      <point x="388" y="0" type="line"/>
      <point x="470" y="585" type="line"/>
      <point x="310" y="585" type="line"/>
      <point x="228" y="0" type="line"/>
    </contour>
    <contour>
      <point x="695" y="550" type="line"/>
      <point x="716" y="700" type="line"/>
      <point x="96" y="700" type="line"/>
      <point x="75" y="550" type="line"/>
    </contour>
    <contour>
      <point x="284" y="-167" type="move" name="below"/>
    </contour>
    <contour>
      <point x="352" y="350" type="move" name="bar"/>
    </contour>
    <contour>
      <point x="430" y="869" type="move" name="accent"/>
    </contour>
    <contour>
      <point x="357" y="350" type="move" name="slash"/>
    </contour>
    <contour>
      <point x="352" y="350" type="move" name="stroke"/>
    </contour>
    <contour>
      <point x="305" y="-18" type="move" name="bottom"/>
    </contour>
  </outline>
</glyph>
<glyph name="U-cy" format="1">
  <advance width="765"/>
  <unicode hex="0423"/>
  <outline>
    <contour>
      <point x="581" y="700" type="line"/>
      <point x="524" y="294" type="line" smooth="yes"/>
      <point x="514" y="221"/>
      <point x="444" y="160"/>
      <point x="371" y="160" type="curve" smooth="yes"/>
      <point x="63" y="160" type="line"/>
      <point x="41" y="0" type="line"/>
      <point x="353" y="0" type="line" smooth="yes"/>
      <point x="514" y="0"/>
      <point x="661" y="129"/>
      <point x="684" y="290" type="curve" smooth="yes"/>
      <point x="741" y="700" type="line"/>
    </contour>
    <contour>
      <point x="140" y="700" type="line"/>
      <point x="120" y="610"/>
      <point x="119" y="576"/>
      <point x="119" y="547" type="curve" smooth="yes"/>
      <point x="119" y="424"/>
      <point x="182" y="338"/>
      <point x="302" y="298" type="curve" smooth="yes"/>
      <point x="550" y="212" type="line"/>
      <point x="620" y="364" type="line"/>
      <point x="368" y="448" type="line" smooth="yes"/>
      <point x="304" y="470"/>
      <point x="280" y="507"/>
      <point x="280" y="569" type="curve" smooth="yes"/>
      <point x="280" y="604"/>
      <point x="287" y="647"/>
      <point x="300" y="700" type="curve"/>
    </contour>
    <contour>
      <point x="308" y="-167" type="move" name="below"/>
    </contour>
    <contour>
      <point x="454" y="869" type="move" name="accent"/>
    </contour>
    <contour>
      <point x="479" y="1049" type="move" name="above"/>
    </contour>
    <contour>
      <point x="381" y="350" type="move" name="slash"/>
    </contour>
    <contour>
      <point x="329" y="-18" type="move" name="bottom"/>
    </contour>
  </outline>
</glyph>
